<?xml version="1.0" standalone="no"?>
<!DOCTYPE svg PUBLIC "-//W3C//DTD SVG 1.1//EN" "http://www.w3.org/Graphics/SVG/1.1/DTD/svg11.dtd" >
<svg xmlns="http://www.w3.org/2000/svg" xmlns:xlink="http://www.w3.org/1999/xlink" version="1.1">
<metadata></metadata>
<defs>
<font id="arialblack" horiz-adv-x="1366" >
<font-face units-per-em="2048" ascent="1638" descent="-410" />
<missing-glyph horiz-adv-x="683" />
<glyph horiz-adv-x="0" />
<glyph horiz-adv-x="682" />
<glyph unicode=" "  horiz-adv-x="683" />
<glyph unicode="&#x09;" horiz-adv-x="683" />
<glyph unicode="&#xa0;" horiz-adv-x="683" />
<glyph unicode="!" horiz-adv-x="682" d="M124 1132v334h435v-334l-84 -671h-269zM139 0v359h406v-359h-406z" />
<glyph unicode="&#x22;" horiz-adv-x="1024" d="M48 1224v242h406v-242l-64 -297h-276zM569 1224v242h406v-242l-64 -297h-276z" />
<glyph unicode="#" horiz-adv-x="1352" d="M60 328v276h193l52 253h-245v276h300l71 358h285l-73 -358h219l72 358h284l-70 -358h137v-276h-193l-51 -253h244v-276h-299l-71 -352h-285l70 352h-218l-72 -352h-283l73 352h-140zM537 604h219l52 253h-218z" />
<glyph unicode="$" d="M54 421l404 47q18 -99 48.5 -143t100.5 -78v353q-202 56 -286.5 97t-146.5 131.5t-62 220.5q0 178 124.5 297.5t370.5 132.5v99h146v-99q224 -14 342.5 -106t154.5 -252l-372 -59q-28 71 -50.5 98.5t-74.5 55.5v-289q304 -81 406 -171q135 -121 135 -307 q0 -109 -48.5 -200t-124 -152t-160.5 -88.5t-208 -32.5v-189h-146v189q-147 13 -238.5 47.5t-158 95.5t-102.5 131.5t-54 170.5zM493 1096q0 -44 25.5 -76.5t88.5 -54.5v256q-64 -21 -89 -52t-25 -73zM753 237q85 19 124.5 62.5t39.5 97.5q0 47 -33.5 86.5t-130.5 73.5v-320 z" />
<glyph unicode="%" horiz-adv-x="2048" d="M99 1106q0 102 44.5 194t136 141.5t216.5 49.5q184 0 290 -105t106 -280q0 -176 -106 -281t-290 -105q-125 0 -216.5 49.5t-136 141.5t-44.5 195zM380 1104q0 -124 40 -180q26 -37 76 -37t75 37q40 56 40 180q0 123 -40 180q-25 36 -75 36t-76 -36q-40 -56 -40 -180z M499 -75l845 1566h211l-847 -1566h-209zM1156 313q0 103 44 194.5t136 141.5t216 50q185 0 291 -105.5t106 -280.5t-106 -280.5t-291 -105.5q-124 0 -216 50t-136 141.5t-44 194.5zM1437 311q0 -124 40 -180q25 -36 75 -36t76 36q40 56 40 180t-40 181q-26 36 -76 36 t-75 -37q-40 -56 -40 -180z" />
<glyph unicode="&#x26;" horiz-adv-x="1821" d="M153 394q0 125 84 236.5t275 188.5q-80 97 -110 168.5t-30 145.5q0 156 119 257t361 101q247 0 363 -96t116 -230q0 -75 -35.5 -144t-85.5 -112t-179 -128q107 -107 223 -199q31 62 53 131l318 -71q-25 -88 -48 -141t-65 -125l153 -105q28 -18 72 -43l-219 -252 q-60 32 -124.5 74t-115.5 72q-106 -70 -212 -102q-147 -44 -334 -44q-293 0 -436 122t-143 296zM555 424q0 -73 63 -130t164 -57q109 0 245 85q-130 100 -333 292q-84 -59 -111.5 -101t-27.5 -89zM729 1150q0 -62 110 -180q79 43 122 93.5t43 95.5q0 47 -36 79.5t-99 32.5 q-62 0 -101 -36t-39 -85z" />
<glyph unicode="'" horiz-adv-x="569" d="M85 1224v242h406v-242l-64 -297h-276z" />
<glyph unicode="(" horiz-adv-x="797" d="M112 533q0 253 82.5 481t268.5 477h254q-131 -290 -189 -536q-49 -209 -49 -446q0 -457 238 -940h-254q-194 275 -272.5 497.5t-78.5 466.5z" />
<glyph unicode=")" horiz-adv-x="797" d="M80 -431h254q194 275 272.5 497.5t78.5 466.5q0 253 -82.5 481t-268.5 477h-254q131 -290 189 -536q49 -209 49 -446q0 -457 -238 -940z" />
<glyph unicode="*" horiz-adv-x="1139" d="M177 1129l72 211l139 -63q22 -10 109 -62q-19 84 -24 125l-20 151h221l-18 -151q-6 -55 -25 -125q38 19 50 26q42 23 64 33l139 66l69 -211l-154 -32q-42 -8 -125 -11q56 -44 89 -80l104 -113l-180 -135l-74 135q-16 29 -52 113q-39 -92 -52 -113l-75 -135l-185 135 l112 113q47 47 92 80q-46 4 -121 18z" />
<glyph unicode="+" horiz-adv-x="1352" d="M127 570v324h383v385h323v-385h385v-324h-385v-383h-323v383h-383z" />
<glyph unicode="," horiz-adv-x="682" d="M124 0v404h435v-335q0 -185 -77 -292t-263 -189l-95 178q116 54 159.5 107.5t48.5 126.5h-208z" />
<glyph unicode="-" horiz-adv-x="682" d="M45 377v315h592v-315h-592z" />
<glyph unicode="." horiz-adv-x="682" d="M124 0v408h435v-408h-435z" />
<glyph unicode="/" horiz-adv-x="569" d="M1 -24l366 1515h208l-368 -1515h-206z" />
<glyph unicode="0" d="M84 739q0 418 150.5 585t458.5 167q148 0 243 -36.5t155 -95t94.5 -123t55.5 -150.5q41 -164 41 -342q0 -399 -135 -584t-465 -185q-185 0 -299 59t-187 173q-53 81 -82.5 221.5t-29.5 310.5zM488 738q0 -280 49.5 -382.5t143.5 -102.5q62 0 107.5 43.5t67 137.5 t21.5 293q0 292 -49.5 392.5t-148.5 100.5q-101 0 -146 -102.5t-45 -379.5z" />
<glyph unicode="1" d="M167 764v334q208 67 323 161t180 232h337v-1491h-412v977q-100 -76 -193.5 -123t-234.5 -90z" />
<glyph unicode="2" d="M54 0q21 181 127.5 340.5t399.5 376.5q179 133 229 202t50 131q0 67 -49.5 114.5t-124.5 47.5q-78 0 -127.5 -49t-66.5 -173l-408 33q24 172 88 268.5t180.5 148t322.5 51.5q215 0 334.5 -49t188 -150.5t68.5 -227.5q0 -134 -78.5 -256t-285.5 -268q-123 -85 -164.5 -119 t-97.5 -89h636v-332h-1222z" />
<glyph unicode="3" d="M72 387l407 54q24 -123 74.5 -170.5t128.5 -47.5q82 0 136.5 60t54.5 160q0 102 -52.5 158t-142.5 56q-48 0 -132 -24l21 291q34 -5 53 -5q80 0 133.5 51t53.5 121q0 67 -40 107t-110 40q-72 0 -117 -43.5t-61 -152.5l-385 69q48 184 184.5 282t386.5 98q287 0 415 -107 t128 -269q0 -95 -52 -172t-157 -135q85 -21 130 -49q73 -45 113.5 -118.5t40.5 -175.5q0 -128 -67 -245.5t-193 -181t-331 -63.5q-200 0 -315.5 47t-190 137.5t-114.5 227.5z" />
<glyph unicode="4" d="M42 274v335l742 882h355v-901h184v-316h-184v-274h-355v274h-742zM392 590h392v461z" />
<glyph unicode="5" d="M67 380l412 45q15 -99 70 -150.5t131 -51.5q85 0 140.5 64.5t55.5 192.5q0 131 -56 192t-149 61q-59 0 -114 -29q-41 -21 -90 -76l-347 50l129 788h967v-325h-655l-35 -220q68 32 134.5 48t131.5 16q220 0 357 -133t137 -335q0 -142 -70.5 -273t-200 -200t-331.5 -69 q-145 0 -248.5 27.5t-176 82t-117.5 123.5t-75 172z" />
<glyph unicode="6" d="M86 725q0 397 167 581.5t463 184.5q175 0 276.5 -40.5t168.5 -118.5t102 -196l-405 -50q-16 85 -53.5 120t-92.5 35q-99 0 -154 -100q-40 -72 -59 -308q73 74 150 109.5t178 35.5q196 0 331.5 -140t135.5 -355q0 -145 -68.5 -265t-190 -181.5t-304.5 -61.5 q-220 0 -353 75t-212.5 239.5t-79.5 435.5zM513 483q0 -119 60 -186.5t147 -67.5q80 0 134 61t54 182q0 124 -56 189t-139 65q-85 0 -142.5 -63t-57.5 -180z" />
<glyph unicode="7" d="M91 1122v344h1189v-275q-155 -140 -259 -303q-126 -198 -199 -441q-58 -189 -78 -447h-406q48 359 151 602t326 520h-724z" />
<glyph unicode="8" d="M84 431q0 129 60 218.5t185 138.5q-96 51 -140 114q-60 86 -60 198q0 184 173 301q135 90 357 90q294 0 434.5 -112t140.5 -282q0 -99 -56 -185q-42 -64 -132 -124q119 -57 177.5 -151t58.5 -208q0 -110 -50.5 -205.5t-124 -147.5t-183 -76.5t-233.5 -24.5 q-233 0 -356 55t-187 162t-64 239zM490 445q0 -97 59 -158.5t135 -61.5q73 0 131 62.5t58 158.5q0 97 -58.5 159t-135.5 62q-76 0 -132.5 -60t-56.5 -162zM512 1076q0 -76 47.5 -122.5t126.5 -46.5q70 0 115 46t45 119q0 76 -47 123.5t-120 47.5q-74 0 -120.5 -46.5 t-46.5 -120.5z" />
<glyph unicode="9" d="M71 982q0 146 69 266t190 181.5t304 61.5q220 0 353 -75.5t212.5 -240t79.5 -434.5q0 -397 -167 -581.5t-463 -184.5q-175 0 -276 40.5t-168 118.5t-103 195l405 51q16 -85 54 -120t93 -35q98 0 153 99q40 73 60 309q-73 -75 -150 -110t-178 -35q-197 0 -332.5 140 t-135.5 354zM458 993q0 -123 55.5 -188t138.5 -65q86 0 143 63t57 180q0 119 -60 186.5t-146 67.5q-81 0 -134.5 -61t-53.5 -183z" />
<glyph unicode=":" horiz-adv-x="682" d="M124 0v408h435v-408h-435zM124 654v408h435v-408h-435z" />
<glyph unicode=";" horiz-adv-x="682" d="M124 0v404h435v-335q0 -185 -77 -292t-263 -189l-95 178q116 54 159.5 107.5t48.5 126.5h-208zM124 654v408h435v-408h-435z" />
<glyph unicode="&#x3c;" horiz-adv-x="1352" d="M107 585v296l1137 472v-355l-691 -266l691 -267v-353z" />
<glyph unicode="=" horiz-adv-x="1352" d="M126 325v324h1092v-324h-1092zM126 816v325h1092v-325h-1092z" />
<glyph unicode="&#x3e;" horiz-adv-x="1352" d="M108 112l1137 473v296l-1137 472v-355l691 -266l-691 -267v-353z" />
<glyph unicode="?" horiz-adv-x="1251" d="M73 1016q20 214 155.5 344.5t415.5 130.5q218 0 352 -91q182 -123 182 -328q0 -85 -47 -164t-192 -193q-101 -80 -127.5 -128.5t-26.5 -126.5h-380v38q0 97 22 157.5t65.5 110.5t195.5 176q81 66 81 121t-32.5 85.5t-98.5 30.5q-71 0 -117.5 -47t-59.5 -164zM392 0v359 h407v-359h-407z" />
<glyph unicode="@" horiz-adv-x="1516" d="M-6 615q0 250 107.5 454.5t285.5 313.5t422 109q315 0 512.5 -200t197.5 -517q0 -188 -77 -344t-226 -247q-115 -70 -216 -70q-60 0 -98 28t-56 89q-67 -65 -122 -91.5t-119 -26.5q-133 0 -229 111t-96 318q0 245 123 443t305 198q71 0 125.5 -33t109.5 -115l18 113h195 l-125 -791q-4 -24 -4 -35q0 -18 10 -28t30 -10q46 0 104 41q86 60 141.5 173.5t55.5 274.5q0 264 -151.5 417t-406.5 153q-188 0 -342.5 -90t-238 -261t-83.5 -378q0 -322 181.5 -510.5t468.5 -188.5q140 0 269.5 47t248.5 140h205q-82 -97 -156 -152q-109 -81 -253 -132 t-310 -51q-231 0 -415 107t-287.5 305t-103.5 436zM490 493q0 -119 51 -185q38 -49 97 -49q64 0 116 54.5t91 217.5t39 293q0 98 -42 148t-100 50q-66 0 -116 -50q-67 -67 -101.5 -212.5t-34.5 -266.5z" />
<glyph unicode="A" horiz-adv-x="1593" d="M2 0l551 1466h494l551 -1466h-474l-72 242h-516l-71 -242h-463zM634 559h323l-162 527z" />
<glyph unicode="B" horiz-adv-x="1593" d="M151 0v1466h848q212 0 325.5 -105t113.5 -260q0 -130 -81 -223q-54 -62 -158 -98q158 -38 232.5 -130.5t74.5 -232.5q0 -114 -53 -205t-145 -144q-57 -33 -172 -48q-153 -20 -203 -20h-782zM608 315h231q117 0 165 41.5t48 111.5q0 65 -47.5 104.5t-166.5 39.5h-230v-297 zM608 891h197q106 0 147.5 36.5t41.5 105.5q0 64 -41.5 100t-144.5 36h-200v-278z" />
<glyph unicode="C" horiz-adv-x="1593" d="M97 736q0 364 193.5 559.5t547.5 195.5q277 0 435.5 -112t235.5 -344l-400 -89q-21 67 -44 98q-38 52 -93 80t-123 28q-154 0 -236 -124q-62 -92 -62 -289q0 -244 74 -334.5t208 -90.5q130 0 196.5 73t96.5 212l397 -120q-40 -167 -126 -279t-213.5 -169t-324.5 -57 q-239 0 -390.5 69.5t-261.5 244.5t-110 448z" />
<glyph unicode="D" horiz-adv-x="1593" d="M156 0v1466h673q199 0 321.5 -54t202.5 -155t116 -235t36 -284q0 -235 -53.5 -364.5t-148.5 -217t-204 -116.5q-149 -40 -270 -40h-673zM609 333h111q142 0 202 31.5t94 110t34 254.5q0 233 -76 319t-252 86h-113v-801z" />
<glyph unicode="E" horiz-adv-x="1479" d="M149 0v1466h1214v-313h-760v-233h705v-299h-705v-289h782v-332h-1236z" />
<glyph unicode="F" d="M152 0v1466h1120v-315h-665v-256h568v-296h-568v-599h-455z" />
<glyph unicode="G" horiz-adv-x="1706" d="M94 733q0 240 99 417.5t290 269.5q149 71 401 71q243 0 363.5 -44t200 -136.5t119.5 -234.5l-437 -78q-27 83 -91.5 127t-164.5 44q-149 0 -237.5 -103.5t-88.5 -327.5q0 -238 89.5 -340t249.5 -102q76 0 145 22t158 75v138h-303v305h700v-625q-201 -137 -355.5 -186.5 t-366.5 -49.5q-261 0 -425.5 89t-255 265t-90.5 404z" />
<glyph unicode="H" horiz-adv-x="1706" d="M152 0v1466h453v-513h495v513h455v-1466h-455v593h-495v-593h-453z" />
<glyph unicode="I" horiz-adv-x="797" d="M168 0v1466h454v-1466h-454z" />
<glyph unicode="J" d="M35 495l433 59q1 -97 17 -144t54 -76q26 -19 74 -19q76 0 111.5 56.5t35.5 190.5v904h454v-797q0 -251 -44.5 -382t-179 -222t-344.5 -91q-222 0 -344 60t-188.5 175.5t-78.5 285.5z" />
<glyph unicode="K" horiz-adv-x="1706" d="M152 0v1466h453v-554l475 554h602l-534 -553l558 -913h-558l-309 603l-234 -245v-358h-453z" />
<glyph unicode="L" d="M150 0v1466h453v-1105h707v-361h-1160z" />
<glyph unicode="M" horiz-adv-x="1933" d="M145 0v1466h596l230 -892l229 892h594v-1466h-370v1118l-287 -1118h-335l-286 1118v-1118h-371z" />
<glyph unicode="N" horiz-adv-x="1706" d="M153 0v1466h423l552 -811v811h427v-1466h-427l-549 805v-805h-426z" />
<glyph unicode="O" horiz-adv-x="1706" d="M93 732q0 359 200 559t557 200q366 0 564 -196.5t198 -550.5q0 -257 -86.5 -421.5t-250 -256t-407.5 -91.5q-248 0 -410.5 79t-263.5 250t-101 428zM546 730q0 -222 82.5 -319t224.5 -97q146 0 226 95t80 341q0 207 -83.5 302.5t-226.5 95.5q-137 0 -220 -97t-83 -321z " />
<glyph unicode="P" horiz-adv-x="1479" d="M148 0v1466h753q246 0 368.5 -117t122.5 -333q0 -222 -133.5 -347t-407.5 -125h-248v-544h-455zM603 841h111q131 0 184 45.5t53 116.5q0 69 -46 117t-173 48h-129v-327z" />
<glyph unicode="Q" horiz-adv-x="1706" d="M93 728q0 362 199.5 562.5t557.5 200.5q365 0 563.5 -196t198.5 -561q0 -325 -160 -520q85 -59 111 -74q39 -22 105 -51l-126 -254q-95 46 -188 109.5t-130 95.5q-150 -65 -376 -65q-334 0 -527 174q-228 206 -228 579zM546 748q0 -240 82 -337t225 -97q46 0 87 9 q-57 55 -180 104l71 163q60 -11 93.5 -27t130.5 -84q23 -16 50 -33q54 97 54 290q0 222 -82.5 317t-227.5 95q-135 0 -219 -97t-84 -303z" />
<glyph unicode="R" horiz-adv-x="1593" d="M156 0v1466h755q210 0 321 -36t179 -133.5t68 -237.5q0 -122 -52 -210.5t-143 -143.5q-58 -35 -159 -58q81 -27 118 -54q25 -18 72.5 -77t63.5 -91l219 -425h-512l-242 448q-46 87 -82 113q-49 34 -111 34h-40v-595h-455zM611 872h191q31 0 120 20q45 9 73.5 46t28.5 85 q0 71 -45 109t-169 38h-199v-298z" />
<glyph unicode="S" horiz-adv-x="1479" d="M71 485l431 27q14 -105 57 -160q70 -89 200 -89q97 0 149.5 45.5t52.5 105.5q0 57 -50 102t-232 85q-298 67 -425 178q-128 111 -128 283q0 113 65.5 213.5t197 158t360.5 57.5q281 0 428.5 -104.5t175.5 -332.5l-427 -25q-17 99 -71.5 144t-150.5 45q-79 0 -119 -33.5 t-40 -81.5q0 -35 33 -63q32 -29 152 -54q297 -64 425.5 -129.5t187 -162.5t58.5 -217q0 -141 -78 -260t-218 -180.5t-353 -61.5q-374 0 -518 144t-163 366z" />
<glyph unicode="T" horiz-adv-x="1479" d="M47 1104v362h1377v-362h-462v-1104h-453v1104h-462z" />
<glyph unicode="U" horiz-adv-x="1706" d="M151 592v874h452v-895q0 -120 66.5 -187.5t184.5 -67.5q117 0 183.5 66.5t66.5 188.5v895h452v-874q0 -130 -40.5 -245.5t-127 -202t-181.5 -121.5q-132 -49 -317 -49q-107 0 -233.5 15t-211.5 59.5t-155.5 126.5t-96.5 169q-42 140 -42 248z" />
<glyph unicode="V" horiz-adv-x="1593" d="M5 1466h474l330 -1055l325 1055h460l-544 -1466h-491z" />
<glyph unicode="W" horiz-adv-x="2048" d="M-1 1466h430l155 -819l226 819h429l227 -819l155 819h428l-323 -1466h-444l-257 923l-256 -923h-444z" />
<glyph unicode="X" horiz-adv-x="1593" d="M3 0l506 764l-460 702h499l260 -451l252 451h494l-456 -710l499 -756h-509l-289 471l-290 -471h-506z" />
<glyph unicode="Y" horiz-adv-x="1593" d="M2 1466h503l296 -495l296 495h500l-570 -852v-614h-454v614z" />
<glyph unicode="Z" horiz-adv-x="1479" d="M34 0v304l813 849h-734v313h1282v-293l-822 -858h852v-315h-1391z" />
<glyph unicode="[" horiz-adv-x="797" d="M135 -407v1873h615v-316h-243v-1241h243v-316h-615z" />
<glyph unicode="\" horiz-adv-x="569" d="M-6 1491l368 -1515h206l-366 1515h-208z" />
<glyph unicode="]" horiz-adv-x="797" d="M47 -91v-316h615v1873h-615v-316h243v-1241h-243z" />
<glyph unicode="^" horiz-adv-x="1352" d="M125 678l408 813h279l408 -813h-353l-193 491l-195 -491h-354z" />
<glyph unicode="_" horiz-adv-x="1024" d="M-12 -154h1048v-102h-1048v102z" />
<glyph unicode="`" horiz-adv-x="682" d="M1 1491h347l164 -298h-192z" />
<glyph unicode="a" d="M73 281q0 121 71 199t262 116q229 46 297 64.5t144 48.5q0 75 -31 105t-109 30q-100 0 -150 -32q-39 -25 -63 -94l-389 41q22 102 63.5 160.5t119.5 101.5q56 31 154 48t212 17q183 0 294 -20.5t185 -85.5q52 -45 82 -127.5t30 -157.5v-469q0 -75 9.5 -117.5t41.5 -108.5 h-382q-23 41 -30 62.5t-14 67.5q-80 -77 -159 -110q-108 -44 -251 -44q-190 0 -288.5 88t-98.5 217zM481 311q0 -48 33.5 -78.5t98.5 -30.5q68 0 126.5 33t83 80.5t24.5 123.5v65q-84 -30 -175 -53q-124 -33 -157 -65q-34 -33 -34 -75z" />
<glyph unicode="b" d="M125 0v1466h411v-508q61 64 138.5 96t171.5 32q194 0 321 -139.5t127 -400.5q0 -174 -58 -306.5t-160.5 -198t-227.5 -65.5q-107 0 -196 46q-67 36 -146 135v-157h-381zM533 534q0 -137 51.5 -198.5t130.5 -61.5q73 0 122.5 60.5t49.5 203.5q0 126 -48.5 185t-117.5 59 q-83 0 -135.5 -61.5t-52.5 -186.5z" />
<glyph unicode="c" d="M74 526q0 164 56 273q41 80 112 143.5t146 94.5q119 49 305 49q260 0 396.5 -93t191.5 -272l-383 -51q-18 68 -65.5 102.5t-127.5 34.5q-101 0 -163.5 -72.5t-62.5 -219.5q0 -131 62 -199t158 -68q80 0 134.5 41t81.5 126l387 -44q-32 -121 -105 -209.5t-186.5 -137.5 t-288.5 -49q-169 0 -281.5 31.5t-193.5 102t-127 165.5t-46 252z" />
<glyph unicode="d" d="M72 542q0 264 126.5 404t321.5 140q95 0 172.5 -32t137.5 -96v508h411v-1466h-381v157q-80 -100 -146 -135q-88 -46 -196 -46q-217 0 -331.5 165t-114.5 401zM479 525q0 -130 49.5 -190.5t122.5 -60.5q78 0 130 61t52 199q0 125 -53 186.5t-134 61.5q-71 0 -119 -59 t-48 -198z" />
<glyph unicode="e" d="M72 529q0 249 159.5 403t440.5 154q228 0 360 -69t201 -200t69 -341v-46h-816q11 -98 53 -146q59 -69 154 -69q60 0 114 30q33 19 71 67l401 -37q-92 -160 -222 -229.5t-373 -69.5q-211 0 -332 59.5t-200.5 189t-79.5 304.5zM487 625h401q-12 118 -63.5 169t-135.5 51 q-97 0 -155 -77q-37 -48 -47 -143z" />
<glyph unicode="f" horiz-adv-x="797" d="M16 764v298h152v48q0 65 14 143t52.5 127.5t108 80t203.5 30.5q107 0 311 -25l-45 -246q-73 12 -118 12q-55 0 -79 -18.5t-34 -58.5q-5 -22 -5 -93h194v-298h-194v-764h-408v764h-152z" />
<glyph unicode="g" d="M73 578q0 248 120 378t314 130q124 0 204.5 -42t150.5 -139v157h381v-1003l1 -47q0 -100 -42.5 -190.5t-113 -146.5t-179 -81t-248.5 -25q-320 0 -439.5 96t-119.5 257q0 20 2 54l395 -45q15 -55 46 -76q45 -31 113 -31q88 0 131.5 47t43.5 164v161q-60 -71 -120 -103 q-94 -50 -203 -50q-213 0 -344 186q-93 132 -93 349zM479 547q0 -115 49 -170.5t129 -55.5q76 0 127.5 57.5t51.5 173.5t-54 177.5t-132 61.5t-124.5 -56.5t-46.5 -187.5z" />
<glyph unicode="h" d="M123 0v1466h407v-540q83 86 165 123t194 37q166 0 261.5 -101t95.5 -310v-675h-409v584q0 100 -37 141.5t-104 41.5q-74 0 -120 -56t-46 -201v-510h-407z" />
<glyph unicode="i" horiz-adv-x="682" d="M138 0v1062h407v-1062h-407zM138 1189v277h407v-277h-407z" />
<glyph unicode="j" horiz-adv-x="682" d="M-100 -396l61 296q49 -10 72 -10q52 0 79 35.5t27 141.5v995h408v-1030q0 -197 -28.5 -279t-105.5 -133t-220 -51q-118 0 -293 35zM139 1186v280h408v-280h-408z" />
<glyph unicode="k" d="M123 0v1466h416v-756l304 352h501l-381 -372l403 -690h-459l-215 426l-153 -150v-276h-416z" />
<glyph unicode="l" horiz-adv-x="682" d="M137 0v1466h408v-1466h-408z" />
<glyph unicode="m" horiz-adv-x="2048" d="M126 0v1062h380v-155q82 97 165.5 138t201.5 41q127 0 201 -45t121 -134q96 104 175 141.5t195 37.5q171 0 267 -101.5t96 -317.5v-667h-408v605q0 72 -28 107q-41 55 -102 55q-72 0 -116 -52t-44 -167v-548h-408v585q0 70 -8 95q-13 40 -45 64.5t-75 24.5 q-70 0 -115 -53t-45 -174v-542h-408z" />
<glyph unicode="n" d="M123 0v1062h379v-173q85 106 172 151.5t212 45.5q169 0 264.5 -100.5t95.5 -310.5v-675h-409v584q0 100 -37 141.5t-104 41.5q-74 0 -120 -56t-46 -201v-510h-407z" />
<glyph unicode="o" d="M73 528q0 243 164 400.5t443 157.5q319 0 482 -185q131 -149 131 -367q0 -245 -162.5 -401.5t-449.5 -156.5q-256 0 -414 130q-194 161 -194 422zM481 529q0 -142 57.5 -210t144.5 -68q88 0 144.5 67t56.5 215q0 138 -57 205.5t-141 67.5q-89 0 -147 -68.5t-58 -208.5z " />
<glyph unicode="p" d="M125 -404v1466h381v-157q79 99 145 134q89 47 197 47q213 0 329.5 -163t116.5 -403q0 -265 -127 -404.5t-321 -139.5q-94 0 -171.5 32t-138.5 95v-507h-411zM533 528q0 -126 53 -187t134 -61q71 0 119 58.5t48 198.5q0 129 -50 189.5t-122 60.5q-78 0 -130 -61t-52 -198z " />
<glyph unicode="q" d="M72 515q0 174 58 307t161 198.5t227 65.5q107 0 197 -47q66 -35 145 -134v157h381v-1466h-411v507q-60 -63 -137.5 -95t-172.5 -32q-194 0 -321 139.5t-127 399.5zM479 524q0 -127 48.5 -185.5t118.5 -58.5q82 0 134.5 61t52.5 187q0 137 -51.5 198t-130.5 61 q-73 0 -122.5 -60.5t-49.5 -202.5z" />
<glyph unicode="r" horiz-adv-x="909" d="M127 0v1062h381v-174q55 113 113.5 155.5t144.5 42.5q90 0 197 -56l-126 -290q-72 30 -114 30q-80 0 -124 -66q-63 -93 -63 -348v-356h-409z" />
<glyph unicode="s" horiz-adv-x="1251" d="M51 294l404 38q25 -72 70 -103t120 -31q82 0 127 35q35 26 35 65q0 44 -46 68q-33 17 -175 42q-212 37 -294.5 68.5t-139 106.5t-56.5 171q0 105 61 181t168 113.5t287 37.5q190 0 280.5 -29t151 -90t100.5 -165l-386 -38q-15 51 -50 75q-48 32 -116 32 q-69 0 -100.5 -24.5t-31.5 -59.5q0 -39 40 -59t174 -36q203 -23 302 -64t151.5 -117t52.5 -167q0 -92 -55.5 -179t-175 -138.5t-325.5 -51.5q-291 0 -414.5 83t-158.5 236z" />
<glyph unicode="t" horiz-adv-x="909" d="M56 765v297h150v195l408 209v-404h224v-297h-224v-377q0 -68 13 -90q20 -34 70 -34q45 0 126 26l30 -281q-151 -33 -282 -33q-152 0 -224 39t-106.5 118.5t-34.5 257.5v374h-150z" />
<glyph unicode="u" d="M119 386v676h409v-584q0 -100 37 -142t104 -42q73 0 119.5 56t46.5 201v511h407v-1062h-380v172q-85 -106 -171.5 -151t-212.5 -45q-168 0 -263.5 100.5t-95.5 309.5z" />
<glyph unicode="v" horiz-adv-x="1251" d="M2 1062h424l206 -673l213 673h411l-451 -1062h-361z" />
<glyph unicode="w" horiz-adv-x="1933" d="M3 1062h394l171 -669l216 669h367l224 -669l171 669h391l-391 -1062h-362l-215 639l-208 -639h-364z" />
<glyph unicode="x" d="M11 0l386 556l-366 506h483l169 -296l196 296h449l-362 -506l388 -556h-475l-196 342l-231 -342h-441z" />
<glyph unicode="y" horiz-adv-x="1251" d="M5 1062h430l219 -707l203 707h401l-421 -1135q-72 -194 -147 -262q-106 -96 -323 -96q-88 0 -272 24l-32 284q88 -28 196 -28q72 0 116.5 33t75.5 118z" />
<glyph unicode="z" horiz-adv-x="1139" d="M37 0v264l508 520h-468v278h985v-238l-536 -546h569v-278h-1058z" />
<glyph unicode="{" horiz-adv-x="797" d="M26 357v343q77 0 115.5 24t58.5 73.5t20 167.5v34q-1 23 -1 46q0 177 29.5 256t81.5 121q39 32 106 48q89 21 203 21h135v-328h-45q-63 0 -94.5 -26.5t-44.5 -81.5q-7 -30 -8 -164.5t-28 -211.5q-20 -59 -57 -95q-28 -27 -92 -55q67 -31 99.5 -64.5t55.5 -102t23 -218.5 q0 -135 14 -176t46.5 -58t130.5 -17v-324h-126q-195 0 -277 42.5t-117 124t-35 244.5q0 36 2 72q1 22 1 45q0 116 -21 165t-60.5 71t-114.5 24z" />
<glyph unicode="|" horiz-adv-x="569" d="M160 -404v1870h255v-1870h-255z" />
<glyph unicode="}" horiz-adv-x="797" d="M23 -107v-324h126q195 0 277 42.5t117 124t35 244.5q0 36 -2 72q-1 22 -1 45q0 116 21 165t60.5 71t114.5 24v343q-77 0 -115.5 24t-58.5 73.5t-20 167.5v34q1 23 1 46q0 177 -29.5 256t-81.5 121q-39 32 -106 48q-89 21 -203 21h-135v-328h45q63 0 94.5 -26.5 t44.5 -81.5q7 -30 8 -164.5t28 -211.5q20 -59 57 -95q28 -27 92 -55q-67 -31 -99.5 -64.5t-55.5 -102t-23 -218.5q0 -135 -14 -176t-46.5 -58t-130.5 -17z" />
<glyph unicode="~" horiz-adv-x="1352" d="M99 492v329q93 83 174 118t177 35q49 0 103 -15.5t158.5 -66.5t148.5 -64t83 -13q134 0 303 157v-326q-115 -92 -186 -123t-147 -31q-58 0 -116.5 17t-183 80t-196.5 63q-154 0 -318 -160z" />
<glyph unicode="&#xa1;" horiz-adv-x="682" d="M124 -70v-334h435v334l-84 671h-269zM139 703h406v359h-406v-359z" />
<glyph unicode="&#xa2;" d="M74 529q0 254 160.5 409.5t419.5 155.5q39 0 149 -8l129 360l129 -47l-120 -337q101 -32 166.5 -81.5t109.5 -115.5q32 -49 65 -143l-364 -49q-14 47 -27 67t-44 48l-194 -555q36 -5 57 -5q77 0 137 47.5t85 136.5l370 -41q-21 -99 -60 -158q-71 -108 -197.5 -176.5 t-300.5 -68.5q-45 0 -179 8l-129 -366l-131 46l122 352q-162 51 -257.5 184.5t-95.5 336.5zM461 506q0 -76 14.5 -118.5t53.5 -88.5l182 529q-13 1 -20 1q-88 0 -159 -71.5t-71 -251.5z" />
<glyph unicode="&#xa3;" d="M113 259q210 151 210 302q0 8 -2 45h-208v239h149q-38 132 -43 153q-6 32 -6 79q0 125 66.5 224.5t175 144.5t292.5 45q172 0 272.5 -38.5t170 -128t95.5 -216.5l-382 -60q-29 107 -66.5 142t-85.5 35q-58 0 -94 -38t-36 -108q0 -37 7 -71.5t48 -162.5h303v-239h-268 q-5 -85 -31 -153q-21 -52 -70 -108q56 13 96 13q51 0 133 -20q112 -26 179 -26q55 0 95.5 9.5t106.5 39.5l136 -298q-99 -50 -174 -69t-161 -19q-94 0 -215 33q-159 44 -197 51t-82 7q-129 0 -285 -91z" />
<glyph unicode="&#xa5;" d="M-2 1466h457l229 -498l226 498h458l-349 -632h297v-221h-421v-121h421v-224h-421v-268h-416v268h-428v224h428v121h-428v221h306z" />
<glyph unicode="&#xa7;" d="M65 593q0 86 44.5 158.5t152.5 148.5q-51 56 -74 110t-23 121q0 86 40.5 157.5t105.5 114.5t132 62q91 26 234 26q191 0 285.5 -34.5t154.5 -106.5t94 -191l-382 -44q-19 57 -52.5 81t-89.5 24q-67 0 -98 -26t-31 -66q0 -34 28 -60q50 -46 234 -113q263 -96 366 -188 q102 -93 102 -243q0 -88 -39 -160.5t-126 -147.5q53 -58 78.5 -117t25.5 -135q0 -104 -53.5 -195t-168.5 -145.5t-309 -54.5q-124 0 -220.5 21t-159 58t-103 85.5t-60.5 93t-36 120.5l376 39q36 -73 82 -107t113 -34q69 0 103.5 32t34.5 79q0 40 -41 81q-57 56 -305.5 154.5 t-331.5 195.5t-83 206zM394 653q0 -26 17 -45q28 -32 138 -82l385 -173q45 68 45 109q0 33 -27 59q-39 38 -231 117.5t-275 125.5q-52 -69 -52 -111z" />
<glyph unicode="&#xa8;" horiz-adv-x="682" d="M-2 1196v250h260v-250h-260zM422 1196v250h263v-250h-263z" />
<glyph unicode="&#xa9;" horiz-adv-x="1638" d="M58 728q0 204 102.5 381.5t279.5 279.5t381 102q205 0 382 -102t279.5 -279.5t102.5 -381.5q0 -205 -102.5 -382t-279.5 -279t-382 -102q-204 0 -381 102t-279.5 279t-102.5 382zM205 728q0 -255 180.5 -435.5t435.5 -180.5t435.5 180.5t180.5 435.5t-180.5 435.5 t-435.5 180.5t-435.5 -180.5t-180.5 -435.5zM410 730q0 185 119 305.5t298 120.5q145 0 244 -77t125 -199l-197 -30q-18 81 -65.5 120.5t-115.5 39.5q-78 0 -131 -66.5t-53 -208.5q0 -143 36 -204q53 -88 150 -88q61 0 109.5 45t69.5 146l206 -49q-38 -121 -105 -186 q-105 -101 -274 -101q-184 0 -300 118.5t-116 313.5z" />
<glyph unicode="&#xaa;" horiz-adv-x="819" d="M33 959q0 88 53 141q52 53 224 84q104 18 190 49q0 56 -22 77.5t-79 21.5q-53 0 -77.5 -17t-37.5 -61l-221 43q19 71 54 111.5t91 61.5t167 21q212 0 282 -56q69 -57 69 -181v-337q0 -62 6.5 -90.5t28.5 -65.5h-218q-15 31 -24 67q-46 -43 -90 -60q-62 -24 -144 -24 q-125 0 -188.5 59t-63.5 156zM266 977q0 -36 26 -60t71 -24q63 0 100 40t37 124v39q-57 -20 -122 -32.5t-88 -34.5q-24 -22 -24 -52z" />
<glyph unicode="&#xab;" d="M95 533l319 463h312l-277 -463l277 -462h-312zM614 533l318 463h313l-277 -463l277 -462h-313z" />
<glyph unicode="&#xac;" horiz-adv-x="1352" d="M126 808v325h1092v-817h-326v492h-766z" />
<glyph unicode="&#xad;" horiz-adv-x="682" d="M45 377v315h592v-315h-592z" />
<glyph unicode="&#xae;" horiz-adv-x="1638" d="M58 728q0 204 102.5 381.5t279.5 279.5t381 102q205 0 382 -102t279.5 -279.5t102.5 -381.5q0 -205 -102.5 -382t-279.5 -279t-382 -102q-204 0 -381 102t-279.5 279t-102.5 382zM205 728q0 -255 180.5 -435.5t435.5 -180.5t435.5 180.5t180.5 435.5t-180.5 435.5 t-435.5 180.5t-435.5 -180.5t-180.5 -435.5zM475 320v816h365q155 0 224.5 -62.5t69.5 -167.5q0 -82 -53 -142t-167 -87q47 -18 69 -38q31 -28 65 -83q2 -4 132 -236h-240q-117 233 -157 278.5t-80 45.5q-9 0 -25 -3v-321h-203zM678 790h88q88 0 124 28.5t36 73.5 t-34.5 73.5t-117.5 28.5h-96v-204z" />
<glyph unicode="&#xaf;" horiz-adv-x="1024" d="M-12 1599v102h1048v-102h-1048z" />
<glyph unicode="&#xb0;" horiz-adv-x="819" d="M119 1206q0 119 84 202.5t202 83.5q119 0 203 -83.5t84 -202.5q0 -118 -84 -202t-203 -84q-118 0 -202 84t-84 202zM303 1207q0 -42 30 -71.5t72 -29.5t71.5 29.5t29.5 71.5t-29.5 72t-71.5 30t-72 -30t-30 -72z" />
<glyph unicode="&#xb1;" horiz-adv-x="1352" d="M127 0v307h1091v-307h-1091zM127 757v315h383v373h323v-373h385v-315h-385v-356h-323v356h-383z" />
<glyph unicode="&#xb4;" horiz-adv-x="682" d="M163 1192l168 299h350l-323 -299h-195z" />
<glyph unicode="&#xb5;" d="M120 -402v1464h408v-534q0 -114 30 -156q44 -65 127 -65q77 0 115 58.5t38 173.5v523h406v-1062h-382v84q-33 -56 -64 -76q-49 -32 -101 -32q-48 0 -101 29q-35 19 -68 72v-479h-408z" />
<glyph unicode="&#xb6;" horiz-adv-x="1741" d="M135 1050q0 201 128 308.5t382 107.5h972v-317h-131v-1556h-297v1556h-167v-1556h-297v1022h-69q-202 0 -304 49.5t-159.5 153t-57.5 232.5z" />
<glyph unicode="&#xb7;" horiz-adv-x="683" d="M124 529v408h435v-408h-435z" />
<glyph unicode="&#xb8;" horiz-adv-x="682" d="M18 -282q104 -20 221 -20q86 0 116.5 23t30.5 60q0 29 -25 50t-78 21q-71 0 -167 -17l30 118q94 23 176 23q171 0 236 -58t65 -137q0 -48 -29.5 -99t-105.5 -82t-202 -31q-114 0 -268 26v123z" />
<glyph unicode="&#xba;" horiz-adv-x="819" d="M23 1117q0 95 43 184.5t133 139.5t214 50q172 0 273.5 -103t101.5 -274q0 -165 -103 -268t-271 -103q-133 0 -223 54.5t-129 144.5t-39 175zM271 1117q0 -108 43 -160q33 -40 97 -40q57 0 94 46t37 154q0 110 -37.5 156.5t-97.5 46.5q-61 0 -98.5 -46.5t-37.5 -156.5z " />
<glyph unicode="&#xbb;" d="M121 71h313l318 462l-318 463h-313l277 -463zM640 71h312l319 462l-319 463h-312l277 -463z" />
<glyph unicode="&#xbf;" horiz-adv-x="1251" d="M73 -10q0 85 47 164t192 193q101 80 127.5 128.5t26.5 126.5h380v-38q0 -97 -22 -157.5t-65.5 -110.5t-195.5 -176q-81 -66 -81 -121t32.5 -85.5t98.5 -30.5q71 0 117.5 47t59.5 164l388 -48q-20 -214 -155.5 -344.5t-415.5 -130.5q-218 0 -352 91q-182 123 -182 328z M452 703v359h407v-359h-407z" />
<glyph unicode="&#xc0;" horiz-adv-x="1593" d="M2 0l551 1466h494l551 -1466h-474l-72 242h-516l-71 -242h-463zM457 1854h347l164 -298h-192zM634 559h323l-162 527z" />
<glyph unicode="&#xc1;" horiz-adv-x="1593" d="M2 0l551 1466h494l551 -1466h-474l-72 242h-516l-71 -242h-463zM619 1555l168 299h350l-323 -299h-195zM634 559h323l-162 527z" />
<glyph unicode="&#xc2;" horiz-adv-x="1593" d="M2 0l551 1466h494l551 -1466h-474l-72 242h-516l-71 -242h-463zM428 1555l229 286h289l222 -286h-248l-122 153l-122 -153h-248zM634 559h323l-162 527z" />
<glyph unicode="&#xc3;" horiz-adv-x="1593" d="M2 0l551 1466h494l551 -1466h-474l-72 242h-516l-71 -242h-463zM436 1596q0 107 59 170t140 63q35 0 66 -8t114.5 -43t121.5 -35q27 0 43.5 18.5t18.5 67.5h158q1 -26 1 -45q0 -111 -56 -172t-144 -61q-64 0 -194 53q-79 32 -109 32q-29 0 -45 -18t-17 -64h-156 q-1 24 -1 42zM634 559h323l-162 527z" />
<glyph unicode="&#xc4;" horiz-adv-x="1593" d="M2 0l551 1466h494l551 -1466h-474l-72 242h-516l-71 -242h-463zM454 1559v250h260v-250h-260zM634 559h323l-162 527zM878 1559v250h263v-250h-263z" />
<glyph unicode="&#xc5;" horiz-adv-x="1593" d="M2 0l551 1466h34q-32 56 -32 121q0 99 70.5 170t169.5 71q100 0 170.5 -70.5t70.5 -170.5q0 -65 -33 -121h44l551 -1466h-474l-77 242h-506l-76 -242h-463zM646 577h299l-150 485zM692 1588q0 -44 30 -74t73 -30q42 0 72 30t30 73t-30 73t-72 30q-43 0 -73 -30t-30 -72z " />
<glyph unicode="&#xc6;" horiz-adv-x="2048" d="M-76 0l632 1466h1400v-313h-618v-233h562v-299h-562v-289h637v-332h-1063v263h-435l-97 -263h-456zM600 597h312v572h-101z" />
<glyph unicode="&#xc7;" horiz-adv-x="1593" d="M97 736q0 364 193.5 559.5t547.5 195.5q277 0 435.5 -112t235.5 -344l-400 -89q-21 67 -44 98q-38 52 -93 80t-123 28q-154 0 -236 -124q-62 -92 -62 -289q0 -244 74 -334.5t208 -90.5q130 0 196.5 73t96.5 212l397 -120q-40 -167 -126 -279t-213.5 -169t-324.5 -57 q-239 0 -390.5 69.5t-261.5 244.5t-110 448zM474 -282q104 -20 221 -20q86 0 116.5 23t30.5 60q0 29 -25 50t-78 21q-71 0 -167 -17l30 118q94 23 176 23q171 0 236 -58t65 -137q0 -48 -29.5 -99t-105.5 -82t-202 -31q-114 0 -268 26v123z" />
<glyph unicode="&#xc8;" horiz-adv-x="1479" d="M149 0v1466h1214v-313h-760v-233h705v-299h-705v-289h782v-332h-1236zM400 1854h347l164 -298h-192z" />
<glyph unicode="&#xc9;" horiz-adv-x="1479" d="M149 0v1466h1214v-313h-760v-233h705v-299h-705v-289h782v-332h-1236zM562 1555l168 299h350l-323 -299h-195z" />
<glyph unicode="&#xca;" horiz-adv-x="1479" d="M149 0v1466h1214v-313h-760v-233h705v-299h-705v-289h782v-332h-1236zM371 1555l229 286h289l222 -286h-248l-122 153l-122 -153h-248z" />
<glyph unicode="&#xcb;" horiz-adv-x="1479" d="M149 0v1466h1214v-313h-760v-233h705v-299h-705v-289h782v-332h-1236zM397 1559v250h260v-250h-260zM821 1559v250h263v-250h-263z" />
<glyph unicode="&#xcc;" horiz-adv-x="797" d="M59 1854h347l164 -298h-192zM168 0v1466h454v-1466h-454z" />
<glyph unicode="&#xcd;" horiz-adv-x="797" d="M168 0v1466h454v-1466h-454zM221 1555l168 299h350l-323 -299h-195z" />
<glyph unicode="&#xce;" horiz-adv-x="797" d="M30 1555l229 286h289l222 -286h-248l-122 153l-122 -153h-248zM168 0v1466h454v-1466h-454z" />
<glyph unicode="&#xcf;" horiz-adv-x="797" d="M56 1559v250h260v-250h-260zM168 0v1466h454v-1466h-454zM480 1559v250h263v-250h-263z" />
<glyph unicode="&#xd0;" horiz-adv-x="1593" d="M2 622v221h154v623h673q199 0 321.5 -54t202.5 -154.5t115.5 -234.5t35.5 -284q0 -241 -55 -370.5t-149 -215t-204 -114.5q-147 -39 -267 -39h-673v622h-154zM609 333h111q142 0 202 31.5t94 110t34 254.5q0 233 -76.5 319t-252.5 86h-112v-291h220v-221h-220v-289z" />
<glyph unicode="&#xd1;" horiz-adv-x="1706" d="M153 0v1466h423l552 -811v811h427v-1466h-427l-549 805v-805h-426zM492 1596q0 107 59 170t140 63q35 0 66 -8t114.5 -43t121.5 -35q27 0 43.5 18.5t18.5 67.5h158q1 -26 1 -45q0 -111 -56 -172t-144 -61q-64 0 -194 53q-79 32 -109 32q-29 0 -45 -18t-17 -64h-156 q-1 24 -1 42z" />
<glyph unicode="&#xd2;" horiz-adv-x="1706" d="M93 732q0 359 200 559t557 200q366 0 564 -196.5t198 -550.5q0 -257 -86.5 -421.5t-250 -256t-407.5 -91.5q-248 0 -410.5 79t-263.5 250t-101 428zM513 1854h347l164 -298h-192zM546 730q0 -222 82.5 -319t224.5 -97q146 0 226 95t80 341q0 207 -83.5 302.5t-226.5 95.5 q-137 0 -220 -97t-83 -321z" />
<glyph unicode="&#xd3;" horiz-adv-x="1706" d="M93 732q0 359 200 559t557 200q366 0 564 -196.5t198 -550.5q0 -257 -86.5 -421.5t-250 -256t-407.5 -91.5q-248 0 -410.5 79t-263.5 250t-101 428zM546 730q0 -222 82.5 -319t224.5 -97q146 0 226 95t80 341q0 207 -83.5 302.5t-226.5 95.5q-137 0 -220 -97t-83 -321z M675 1555l168 299h350l-323 -299h-195z" />
<glyph unicode="&#xd4;" horiz-adv-x="1706" d="M93 732q0 359 200 559t557 200q366 0 564 -196.5t198 -550.5q0 -257 -86.5 -421.5t-250 -256t-407.5 -91.5q-248 0 -410.5 79t-263.5 250t-101 428zM484 1555l229 286h289l222 -286h-248l-122 153l-122 -153h-248zM546 730q0 -222 82.5 -319t224.5 -97q146 0 226 95 t80 341q0 207 -83.5 302.5t-226.5 95.5q-137 0 -220 -97t-83 -321z" />
<glyph unicode="&#xd5;" horiz-adv-x="1706" d="M93 732q0 359 200 559t557 200q366 0 564 -196.5t198 -550.5q0 -257 -86.5 -421.5t-250 -256t-407.5 -91.5q-248 0 -410.5 79t-263.5 250t-101 428zM492 1596q0 107 59 170t140 63q35 0 66 -8t114.5 -43t121.5 -35q27 0 43.5 18.5t18.5 67.5h158q1 -26 1 -45 q0 -111 -56 -172t-144 -61q-64 0 -194 53q-79 32 -109 32q-29 0 -45 -18t-17 -64h-156q-1 24 -1 42zM546 730q0 -222 82.5 -319t224.5 -97q146 0 226 95t80 341q0 207 -83.5 302.5t-226.5 95.5q-137 0 -220 -97t-83 -321z" />
<glyph unicode="&#xd6;" horiz-adv-x="1706" d="M93 732q0 359 200 559t557 200q366 0 564 -196.5t198 -550.5q0 -257 -86.5 -421.5t-250 -256t-407.5 -91.5q-248 0 -410.5 79t-263.5 250t-101 428zM510 1559v250h260v-250h-260zM546 730q0 -222 82.5 -319t224.5 -97q146 0 226 95t80 341q0 207 -83.5 302.5t-226.5 95.5 q-137 0 -220 -97t-83 -321zM934 1559v250h263v-250h-263z" />
<glyph unicode="&#xd8;" horiz-adv-x="1706" d="M35 107l176 168q-119 185 -119 454q0 361 199.5 561.5t554.5 200.5q315 0 500 -139l174 164l151 -161l-173 -164q53 -80 83 -201.5t30 -254.5q0 -257 -92.5 -422.5t-255 -251.5t-409.5 -86q-176 0 -315 45q-90 29 -178 95l-175 -167zM545 738q0 -68 10 -137l499 474 q-75 73 -206 73q-137 0 -220 -96.5t-83 -313.5zM649 387q73 -73 203 -73q145 0 225.5 94t80.5 326q0 64 -8 127z" />
<glyph unicode="&#xd9;" horiz-adv-x="1706" d="M151 592v874h452v-895q0 -120 66.5 -187.5t184.5 -67.5q117 0 183.5 66.5t66.5 188.5v895h452v-874q0 -130 -40.5 -245.5t-127 -202t-181.5 -121.5q-132 -49 -317 -49q-107 0 -233.5 15t-211.5 59.5t-155.5 126.5t-96.5 169q-42 140 -42 248zM513 1854h347l164 -298h-192 z" />
<glyph unicode="&#xda;" horiz-adv-x="1706" d="M151 592v874h452v-895q0 -120 66.5 -187.5t184.5 -67.5q117 0 183.5 66.5t66.5 188.5v895h452v-874q0 -130 -40.5 -245.5t-127 -202t-181.5 -121.5q-132 -49 -317 -49q-107 0 -233.5 15t-211.5 59.5t-155.5 126.5t-96.5 169q-42 140 -42 248zM675 1555l168 299h350 l-323 -299h-195z" />
<glyph unicode="&#xdb;" horiz-adv-x="1706" d="M151 592v874h452v-895q0 -120 66.5 -187.5t184.5 -67.5q117 0 183.5 66.5t66.5 188.5v895h452v-874q0 -130 -40.5 -245.5t-127 -202t-181.5 -121.5q-132 -49 -317 -49q-107 0 -233.5 15t-211.5 59.5t-155.5 126.5t-96.5 169q-42 140 -42 248zM484 1555l229 286h289 l222 -286h-248l-122 153l-122 -153h-248z" />
<glyph unicode="&#xdc;" horiz-adv-x="1706" d="M151 592v874h452v-895q0 -120 66.5 -187.5t184.5 -67.5q117 0 183.5 66.5t66.5 188.5v895h452v-874q0 -130 -40.5 -245.5t-127 -202t-181.5 -121.5q-132 -49 -317 -49q-107 0 -233.5 15t-211.5 59.5t-155.5 126.5t-96.5 169q-42 140 -42 248zM510 1559v250h260v-250h-260 zM934 1559v250h263v-250h-263z" />
<glyph unicode="&#xdd;" horiz-adv-x="1593" d="M2 1466h503l296 -495l296 495h500l-570 -852v-614h-454v614zM619 1555l168 299h350l-323 -299h-195z" />
<glyph unicode="&#xde;" horiz-adv-x="1479" d="M148 0v1466h455v-261l298 -1q246 0 368.5 -117t122.5 -333q0 -221 -133.5 -346t-407.5 -125h-248v-283h-455zM603 580h111q131 0 184 45.5t53 116.5q0 68 -46 116.5t-173 48.5h-129v-327z" />
<glyph unicode="&#xdf;" d="M119 0v1017q0 129 52 241.5t171.5 172.5t317.5 60q242 0 349.5 -86.5t107.5 -211.5q0 -82 -58.5 -199t-58.5 -153q0 -27 13 -51.5t57 -64.5q130 -119 186 -233q38 -80 38 -178q0 -147 -99 -242.5t-265 -95.5q-122 0 -212 42q-67 32 -132 108l233 138q35 -44 69 -44 q35 0 58 23t23 57q0 30 -27.5 71t-179.5 188q-78 76 -109 135q-20 38 -20 86q0 59 59 175.5t59 175.5q0 45 -30.5 74.5t-80.5 29.5q-57 0 -94.5 -46t-37.5 -164v-1025h-389z" />
<glyph unicode="&#xe0;" d="M73 281q0 121 71 199t262 116q229 46 297 64.5t144 48.5q0 75 -31 105t-109 30q-100 0 -150 -32q-39 -25 -63 -94l-389 41q22 102 63.5 160.5t119.5 101.5q56 31 154 48t212 17q183 0 294 -20.5t185 -85.5q52 -45 82 -127.5t30 -157.5v-469q0 -75 9.5 -117.5t41.5 -108.5 h-382q-23 41 -30 62.5t-14 67.5q-80 -77 -159 -110q-108 -44 -251 -44q-190 0 -288.5 88t-98.5 217zM343 1491h347l164 -298h-192zM481 311q0 -48 33.5 -78.5t98.5 -30.5q68 0 126.5 33t83 80.5t24.5 123.5v65q-84 -30 -175 -53q-124 -33 -157 -65q-34 -33 -34 -75z" />
<glyph unicode="&#xe1;" d="M73 281q0 121 71 199t262 116q229 46 297 64.5t144 48.5q0 75 -31 105t-109 30q-100 0 -150 -32q-39 -25 -63 -94l-389 41q22 102 63.5 160.5t119.5 101.5q56 31 154 48t212 17q183 0 294 -20.5t185 -85.5q52 -45 82 -127.5t30 -157.5v-469q0 -75 9.5 -117.5t41.5 -108.5 h-382q-23 41 -30 62.5t-14 67.5q-80 -77 -159 -110q-108 -44 -251 -44q-190 0 -288.5 88t-98.5 217zM481 311q0 -48 33.5 -78.5t98.5 -30.5q68 0 126.5 33t83 80.5t24.5 123.5v65q-84 -30 -175 -53q-124 -33 -157 -65q-34 -33 -34 -75zM505 1192l168 299h350l-323 -299h-195 z" />
<glyph unicode="&#xe2;" d="M73 281q0 121 71 199t262 116q229 46 297 64.5t144 48.5q0 75 -31 105t-109 30q-100 0 -150 -32q-39 -25 -63 -94l-389 41q22 102 63.5 160.5t119.5 101.5q56 31 154 48t212 17q183 0 294 -20.5t185 -85.5q52 -45 82 -127.5t30 -157.5v-469q0 -75 9.5 -117.5t41.5 -108.5 h-382q-23 41 -30 62.5t-14 67.5q-80 -77 -159 -110q-108 -44 -251 -44q-190 0 -288.5 88t-98.5 217zM314 1192l229 286h289l222 -286h-248l-122 153l-122 -153h-248zM481 311q0 -48 33.5 -78.5t98.5 -30.5q68 0 126.5 33t83 80.5t24.5 123.5v65q-84 -30 -175 -53 q-124 -33 -157 -65q-34 -33 -34 -75z" />
<glyph unicode="&#xe3;" d="M73 281q0 121 71 199t262 116q229 46 297 64.5t144 48.5q0 75 -31 105t-109 30q-100 0 -150 -32q-39 -25 -63 -94l-389 41q22 102 63.5 160.5t119.5 101.5q56 31 154 48t212 17q183 0 294 -20.5t185 -85.5q52 -45 82 -127.5t30 -157.5v-469q0 -75 9.5 -117.5t41.5 -108.5 h-382q-23 41 -30 62.5t-14 67.5q-80 -77 -159 -110q-108 -44 -251 -44q-190 0 -288.5 88t-98.5 217zM322 1233q0 107 59 170t140 63q35 0 66 -8t114.5 -43t121.5 -35q27 0 43.5 18.5t18.5 67.5h158q1 -26 1 -45q0 -111 -56 -172t-144 -61q-64 0 -194 53q-79 32 -109 32 q-29 0 -45 -18t-17 -64h-156q-1 24 -1 42zM481 311q0 -48 33.5 -78.5t98.5 -30.5q68 0 126.5 33t83 80.5t24.5 123.5v65q-84 -30 -175 -53q-124 -33 -157 -65q-34 -33 -34 -75z" />
<glyph unicode="&#xe4;" d="M73 281q0 121 71 199t262 116q229 46 297 64.5t144 48.5q0 75 -31 105t-109 30q-100 0 -150 -32q-39 -25 -63 -94l-389 41q22 102 63.5 160.5t119.5 101.5q56 31 154 48t212 17q183 0 294 -20.5t185 -85.5q52 -45 82 -127.5t30 -157.5v-469q0 -75 9.5 -117.5t41.5 -108.5 h-382q-23 41 -30 62.5t-14 67.5q-80 -77 -159 -110q-108 -44 -251 -44q-190 0 -288.5 88t-98.5 217zM340 1196v250h260v-250h-260zM481 311q0 -48 33.5 -78.5t98.5 -30.5q68 0 126.5 33t83 80.5t24.5 123.5v65q-84 -30 -175 -53q-124 -33 -157 -65q-34 -33 -34 -75z M764 1196v250h263v-250h-263z" />
<glyph unicode="&#xe5;" d="M73 281q0 121 71 199t262 116q229 46 297 64.5t144 48.5q0 75 -31 105t-109 30q-100 0 -150 -32q-39 -25 -63 -94l-389 41q22 102 63.5 160.5t119.5 101.5q56 31 154 48t212 17q183 0 294 -20.5t185 -85.5q52 -45 82 -127.5t30 -157.5v-469q0 -75 9.5 -117.5t41.5 -108.5 h-382q-23 41 -30 62.5t-14 67.5q-80 -77 -159 -110q-108 -44 -251 -44q-190 0 -288.5 88t-98.5 217zM442 1403q0 100 70.5 170.5t170.5 70.5q99 0 169.5 -70.5t70.5 -170.5t-70.5 -170t-169.5 -70q-100 0 -170.5 70t-70.5 170zM481 311q0 -48 33.5 -78.5t98.5 -30.5 q68 0 126.5 33t83 80.5t24.5 123.5v65q-84 -30 -175 -53q-124 -33 -157 -65q-34 -33 -34 -75zM579 1404q0 -43 30 -73t73 -30t73 30t30 73t-30 73t-73 30t-73 -30t-30 -73z" />
<glyph unicode="&#xe6;" horiz-adv-x="2048" d="M69 285q0 69 32 130t81 97q65 47 141 73q35 12 171 38t175 36q67 17 156 47q-2 80 -32.5 109t-111.5 29q-85 0 -127 -30.5t-59 -96.5l-391 45q29 106 68 160q53 74 161.5 119.5t305.5 45.5q158 0 260 -28q73 -20 161 -77q92 58 167.5 81t178.5 23q154 0 264.5 -44 t180.5 -119.5t100 -150.5q39 -99 39 -274v-67h-771q11 -96 47 -143q55 -71 144 -71q50 0 86.5 22.5t71.5 77.5l397 -35q-81 -151 -209.5 -228.5t-343.5 -77.5q-165 0 -284 48q-90 36 -173 120q-123 -90 -233.5 -129t-245.5 -39q-203 0 -305 85.5t-102 223.5zM480 319 q0 -46 33 -78t87 -32q55 0 113 28t89 85q23 41 23 109v76l-125 -41q-24 -8 -42 -11q-99 -19 -138.5 -57t-39.5 -79zM1216 626h368q-8 103 -52.5 160t-125.5 57q-72 0 -123.5 -52t-66.5 -165z" />
<glyph unicode="&#xe7;" d="M74 526q0 164 56 273q41 80 112 143.5t146 94.5q119 49 305 49q260 0 396.5 -93t191.5 -272l-383 -51q-18 68 -65.5 102.5t-127.5 34.5q-101 0 -163.5 -72.5t-62.5 -219.5q0 -131 62 -199t158 -68q80 0 134.5 41t81.5 126l387 -44q-32 -121 -105 -209.5t-186.5 -137.5 t-288.5 -49q-169 0 -281.5 31.5t-193.5 102t-127 165.5t-46 252zM360 -282q104 -20 221 -20q86 0 116.5 23t30.5 60q0 29 -25 50t-78 21q-71 0 -167 -17l30 118q94 23 176 23q171 0 236 -58t65 -137q0 -48 -29.5 -99t-105.5 -82t-202 -31q-114 0 -268 26v123z" />
<glyph unicode="&#xe8;" d="M72 529q0 249 159.5 403t440.5 154q228 0 360 -69t201 -200t69 -341v-46h-816q11 -98 53 -146q59 -69 154 -69q60 0 114 30q33 19 71 67l401 -37q-92 -160 -222 -229.5t-373 -69.5q-211 0 -332 59.5t-200.5 189t-79.5 304.5zM343 1491h347l164 -298h-192zM487 625h401 q-12 118 -63.5 169t-135.5 51q-97 0 -155 -77q-37 -48 -47 -143z" />
<glyph unicode="&#xe9;" d="M72 529q0 249 159.5 403t440.5 154q228 0 360 -69t201 -200t69 -341v-46h-816q11 -98 53 -146q59 -69 154 -69q60 0 114 30q33 19 71 67l401 -37q-92 -160 -222 -229.5t-373 -69.5q-211 0 -332 59.5t-200.5 189t-79.5 304.5zM487 625h401q-12 118 -63.5 169t-135.5 51 q-97 0 -155 -77q-37 -48 -47 -143zM505 1192l168 299h350l-323 -299h-195z" />
<glyph unicode="&#xea;" d="M72 529q0 249 159.5 403t440.5 154q228 0 360 -69t201 -200t69 -341v-46h-816q11 -98 53 -146q59 -69 154 -69q60 0 114 30q33 19 71 67l401 -37q-92 -160 -222 -229.5t-373 -69.5q-211 0 -332 59.5t-200.5 189t-79.5 304.5zM314 1192l229 286h289l222 -286h-248 l-122 153l-122 -153h-248zM487 625h401q-12 118 -63.5 169t-135.5 51q-97 0 -155 -77q-37 -48 -47 -143z" />
<glyph unicode="&#xeb;" d="M72 529q0 249 159.5 403t440.5 154q228 0 360 -69t201 -200t69 -341v-46h-816q11 -98 53 -146q59 -69 154 -69q60 0 114 30q33 19 71 67l401 -37q-92 -160 -222 -229.5t-373 -69.5q-211 0 -332 59.5t-200.5 189t-79.5 304.5zM340 1196v250h260v-250h-260zM487 625h401 q-12 118 -63.5 169t-135.5 51q-97 0 -155 -77q-37 -48 -47 -143zM764 1196v250h263v-250h-263z" />
<glyph unicode="&#xec;" horiz-adv-x="682" d="M1 1491h347l164 -298h-192zM138 0v1062h407v-1062h-407z" />
<glyph unicode="&#xed;" horiz-adv-x="682" d="M138 0v1062h407v-1062h-407zM163 1192l168 299h350l-323 -299h-195z" />
<glyph unicode="&#xee;" horiz-adv-x="682" d="M-28 1192l229 286h289l222 -286h-248l-122 153l-122 -153h-248zM138 0v1062h407v-1062h-407z" />
<glyph unicode="&#xef;" horiz-adv-x="682" d="M-2 1196v250h260v-250h-260zM138 0v1062h407v-1062h-407zM422 1196v250h263v-250h-263z" />
<glyph unicode="&#xf0;" d="M75 531q0 146 66 271t186 192.5t242 67.5q60 0 117 -17q38 -12 94 -46q-68 119 -129 201l-293 -107l-37 107l253 90q-65 64 -116.5 102.5t-118.5 73.5h412q60 -32 113 -72l203 72l37 -101l-146 -54q166 -168 249 -350t83 -379q0 -285 -161 -445.5t-442 -160.5 q-191 0 -333.5 72.5t-210.5 207t-68 275.5zM483 528q0 -143 57.5 -210t139.5 -67q76 0 142 65.5t66 230.5q0 144 -64.5 202t-140.5 58q-84 0 -142 -67t-58 -212z" />
<glyph unicode="&#xf1;" d="M123 0v1062h379v-173q85 106 172 151.5t212 45.5q169 0 264.5 -100.5t95.5 -310.5v-675h-409v584q0 100 -37 141.5t-104 41.5q-74 0 -120 -56t-46 -201v-510h-407zM322 1233q0 107 59 170t140 63q35 0 66 -8t114.5 -43t121.5 -35q27 0 43.5 18.5t18.5 67.5h158 q1 -26 1 -45q0 -111 -56 -172t-144 -61q-64 0 -194 53q-79 32 -109 32q-29 0 -45 -18t-17 -64h-156q-1 24 -1 42z" />
<glyph unicode="&#xf2;" d="M73 528q0 243 164 400.5t443 157.5q319 0 482 -185q131 -149 131 -367q0 -245 -162.5 -401.5t-449.5 -156.5q-256 0 -414 130q-194 161 -194 422zM343 1491h347l164 -298h-192zM481 529q0 -142 57.5 -210t144.5 -68q88 0 144.5 67t56.5 215q0 138 -57 205.5t-141 67.5 q-89 0 -147 -68.5t-58 -208.5z" />
<glyph unicode="&#xf3;" d="M73 528q0 243 164 400.5t443 157.5q319 0 482 -185q131 -149 131 -367q0 -245 -162.5 -401.5t-449.5 -156.5q-256 0 -414 130q-194 161 -194 422zM481 529q0 -142 57.5 -210t144.5 -68q88 0 144.5 67t56.5 215q0 138 -57 205.5t-141 67.5q-89 0 -147 -68.5t-58 -208.5z M505 1192l168 299h350l-323 -299h-195z" />
<glyph unicode="&#xf4;" d="M73 528q0 243 164 400.5t443 157.5q319 0 482 -185q131 -149 131 -367q0 -245 -162.5 -401.5t-449.5 -156.5q-256 0 -414 130q-194 161 -194 422zM314 1192l229 286h289l222 -286h-248l-122 153l-122 -153h-248zM481 529q0 -142 57.5 -210t144.5 -68q88 0 144.5 67 t56.5 215q0 138 -57 205.5t-141 67.5q-89 0 -147 -68.5t-58 -208.5z" />
<glyph unicode="&#xf5;" d="M73 528q0 243 164 400.5t443 157.5q319 0 482 -185q131 -149 131 -367q0 -245 -162.5 -401.5t-449.5 -156.5q-256 0 -414 130q-194 161 -194 422zM322 1233q0 107 59 170t140 63q35 0 66 -8t114.5 -43t121.5 -35q27 0 43.5 18.5t18.5 67.5h158q1 -26 1 -45 q0 -111 -56 -172t-144 -61q-64 0 -194 53q-79 32 -109 32q-29 0 -45 -18t-17 -64h-156q-1 24 -1 42zM481 529q0 -142 57.5 -210t144.5 -68q88 0 144.5 67t56.5 215q0 138 -57 205.5t-141 67.5q-89 0 -147 -68.5t-58 -208.5z" />
<glyph unicode="&#xf6;" d="M73 528q0 243 164 400.5t443 157.5q319 0 482 -185q131 -149 131 -367q0 -245 -162.5 -401.5t-449.5 -156.5q-256 0 -414 130q-194 161 -194 422zM340 1196v250h260v-250h-260zM481 529q0 -142 57.5 -210t144.5 -68q88 0 144.5 67t56.5 215q0 138 -57 205.5t-141 67.5 q-89 0 -147 -68.5t-58 -208.5zM764 1196v250h263v-250h-263z" />
<glyph unicode="&#xf7;" horiz-adv-x="1352" d="M127 570v326h1091v-326h-1091zM470 105v373h401v-373h-401zM470 987v369h401v-369h-401z" />
<glyph unicode="&#xf8;" d="M73 526q0 245 163 402.5t438 157.5q112 0 200 -21q59 -14 146 -58l133 149l104 -94l-124 -136q69 -58 114 -164t45 -230q0 -244 -161 -400t-438 -156q-113 0 -199 19q-59 13 -149 56l-133 -148l-105 97l127 135q-85 91 -123 183t-38 208zM453 522q0 -53 17 -126l351 389 q-28 27 -48 35q-39 16 -88 16q-101 0 -166.5 -77.5t-65.5 -236.5zM545 270q33 -26 54 -34q40 -14 88 -14q98 0 161.5 77.5t63.5 243.5q0 51 -17 117z" />
<glyph unicode="&#xf9;" d="M119 386v676h409v-584q0 -100 37 -142t104 -42q73 0 119.5 56t46.5 201v511h407v-1062h-380v172q-85 -106 -171.5 -151t-212.5 -45q-168 0 -263.5 100.5t-95.5 309.5zM343 1491h347l164 -298h-192z" />
<glyph unicode="&#xfa;" d="M119 386v676h409v-584q0 -100 37 -142t104 -42q73 0 119.5 56t46.5 201v511h407v-1062h-380v172q-85 -106 -171.5 -151t-212.5 -45q-168 0 -263.5 100.5t-95.5 309.5zM505 1192l168 299h350l-323 -299h-195z" />
<glyph unicode="&#xfb;" d="M119 386v676h409v-584q0 -100 37 -142t104 -42q73 0 119.5 56t46.5 201v511h407v-1062h-380v172q-85 -106 -171.5 -151t-212.5 -45q-168 0 -263.5 100.5t-95.5 309.5zM314 1192l229 286h289l222 -286h-248l-122 153l-122 -153h-248z" />
<glyph unicode="&#xfc;" d="M119 386v676h409v-584q0 -100 37 -142t104 -42q73 0 119.5 56t46.5 201v511h407v-1062h-380v172q-85 -106 -171.5 -151t-212.5 -45q-168 0 -263.5 100.5t-95.5 309.5zM340 1196v250h260v-250h-260zM764 1196v250h263v-250h-263z" />
<glyph unicode="&#xfd;" horiz-adv-x="1251" d="M5 1062h430l219 -707l203 707h401l-421 -1135q-72 -194 -147 -262q-106 -96 -323 -96q-88 0 -272 24l-32 284q88 -28 196 -28q72 0 116.5 33t75.5 118zM448 1192l168 299h350l-323 -299h-195z" />
<glyph unicode="&#xfe;" d="M125 -404v1870h411v-507q64 67 134 97t168 30q218 0 337 -159.5t119 -406.5q0 -265 -127 -404.5t-321 -139.5q-94 0 -171.5 32t-138.5 95v-507h-411zM533 528q0 -126 53 -187t134 -61q71 0 119 58.5t48 198.5q0 129 -50 189.5t-122 60.5q-78 0 -130 -61t-52 -198z" />
<glyph unicode="&#xff;" horiz-adv-x="1251" d="M5 1062h430l219 -707l203 707h401l-421 -1135q-72 -194 -147 -262q-106 -96 -323 -96q-88 0 -272 24l-32 284q88 -28 196 -28q72 0 116.5 33t75.5 118zM283 1196v250h260v-250h-260zM707 1196v250h263v-250h-263z" />
<glyph unicode="&#x100;" horiz-adv-x="1593" d="M2 0l551 1466h494l551 -1466h-474l-72 242h-516l-71 -242h-463zM470 1569v217h647v-217h-647zM634 559h323l-162 527z" />
<glyph unicode="&#x101;" d="M73 281q0 121 71 199t262 116q229 46 297 64.5t144 48.5q0 75 -31 105t-109 30q-100 0 -150 -32q-39 -25 -63 -94l-389 41q22 102 63.5 160.5t119.5 101.5q56 31 154 48t212 17q183 0 294 -20.5t185 -85.5q52 -45 82 -127.5t30 -157.5v-469q0 -75 9.5 -117.5t41.5 -108.5 h-382q-23 41 -30 62.5t-14 67.5q-80 -77 -159 -110q-108 -44 -251 -44q-190 0 -288.5 88t-98.5 217zM362 1229v217h647v-217h-647zM481 311q0 -48 33.5 -78.5t98.5 -30.5q68 0 126.5 33t83 80.5t24.5 123.5v65q-84 -30 -175 -53q-124 -33 -157 -65q-34 -33 -34 -75z" />
<glyph unicode="&#x102;" horiz-adv-x="1593" d="M2 0l551 1466h494l551 -1466h-474l-72 242h-516l-71 -242h-463zM453 1862h172q20 -58 57 -82.5t111 -24.5q87 0 124.5 24.5t53.5 82.5h165q-6 -95 -45 -159.5t-118 -103.5t-171 -39q-152 0 -243 79.5t-106 222.5zM634 559h323l-162 527z" />
<glyph unicode="&#x103;" d="M73 281q0 121 71 199t262 116q229 46 297 64.5t144 48.5q0 75 -31 105t-109 30q-100 0 -150 -32q-39 -25 -63 -94l-389 41q22 102 63.5 160.5t119.5 101.5q56 31 154 48t212 17q183 0 294 -20.5t185 -85.5q52 -45 82 -127.5t30 -157.5v-469q0 -75 9.5 -117.5t41.5 -108.5 h-382q-23 41 -30 62.5t-14 67.5q-80 -77 -159 -110q-108 -44 -251 -44q-190 0 -288.5 88t-98.5 217zM343 1491h172q20 -58 57 -82.5t111 -24.5q87 0 124.5 24.5t53.5 82.5h165q-6 -95 -45 -159.5t-118 -103.5t-171 -39q-152 0 -243 79.5t-106 222.5zM481 311 q0 -48 33.5 -78.5t98.5 -30.5q68 0 126.5 33t83 80.5t24.5 123.5v65q-84 -30 -175 -53q-124 -33 -157 -65q-34 -33 -34 -75z" />
<glyph unicode="&#x104;" horiz-adv-x="1593" d="M2 0l551 1466h494l551 -1466h-474l-72 242h-516l-71 -242h-463zM634 559h323l-162 527zM1175 -213q0 89 48 239h169q-20 -87 -20 -144q0 -76 37 -115t103 -39q47 0 128 26v-155q-124 -46 -212 -46q-120 0 -186.5 64t-66.5 170z" />
<glyph unicode="&#x105;" d="M73 281q0 121 71 199t262 116q229 46 297 64.5t144 48.5q0 75 -31 105t-109 30q-100 0 -150 -32q-39 -25 -63 -94l-389 41q22 102 63.5 160.5t119.5 101.5q56 31 154 48t212 17q183 0 294 -20.5t185 -85.5q52 -45 82 -127.5t30 -157.5v-469q0 -75 9.5 -117.5t41.5 -108.5 h-382q-23 41 -30 62.5t-14 67.5q-80 -77 -159 -110q-108 -44 -251 -44q-190 0 -288.5 88t-98.5 217zM481 311q0 -48 33.5 -78.5t98.5 -30.5q68 0 126.5 33t83 80.5t24.5 123.5v65q-84 -30 -175 -53q-124 -33 -157 -65q-34 -33 -34 -75zM872 -213q0 89 48 239h169 q-20 -87 -20 -144q0 -76 37 -115t103 -39q47 0 128 26v-155q-124 -46 -212 -46q-120 0 -186.5 64t-66.5 170z" />
<glyph unicode="&#x106;" horiz-adv-x="1593" d="M97 736q0 364 193.5 559.5t547.5 195.5q277 0 435.5 -112t235.5 -344l-400 -89q-21 67 -44 98q-38 52 -93 80t-123 28q-154 0 -236 -124q-62 -92 -62 -289q0 -244 74 -334.5t208 -90.5q130 0 196.5 73t96.5 212l397 -120q-40 -167 -126 -279t-213.5 -169t-324.5 -57 q-239 0 -390.5 69.5t-261.5 244.5t-110 448zM663 1555l168 299h350l-323 -299h-195z" />
<glyph unicode="&#x107;" d="M74 526q0 164 56 273q41 80 112 143.5t146 94.5q119 49 305 49q260 0 396.5 -93t191.5 -272l-383 -51q-18 68 -65.5 102.5t-127.5 34.5q-101 0 -163.5 -72.5t-62.5 -219.5q0 -131 62 -199t158 -68q80 0 134.5 41t81.5 126l387 -44q-32 -121 -105 -209.5t-186.5 -137.5 t-288.5 -49q-169 0 -281.5 31.5t-193.5 102t-127 165.5t-46 252zM605 1192l168 299h350l-323 -299h-195z" />
<glyph unicode="&#x108;" horiz-adv-x="1593" d="M97 736q0 364 193.5 559.5t547.5 195.5q277 0 435.5 -112t235.5 -344l-400 -89q-21 67 -44 98q-38 52 -93 80t-123 28q-154 0 -236 -124q-62 -92 -62 -289q0 -244 74 -334.5t208 -90.5q130 0 196.5 73t96.5 212l397 -120q-40 -167 -126 -279t-213.5 -169t-324.5 -57 q-239 0 -390.5 69.5t-261.5 244.5t-110 448zM452 1572l229 286h289l222 -286h-248l-122 153l-122 -153h-248z" />
<glyph unicode="&#x109;" d="M74 526q0 164 56 273q41 80 112 143.5t146 94.5q119 49 305 49q260 0 396.5 -93t191.5 -272l-383 -51q-18 68 -65.5 102.5t-127.5 34.5q-101 0 -163.5 -72.5t-62.5 -219.5q0 -131 62 -199t158 -68q80 0 134.5 41t81.5 126l387 -44q-32 -121 -105 -209.5t-186.5 -137.5 t-288.5 -49q-169 0 -281.5 31.5t-193.5 102t-127 165.5t-46 252zM332 1192l229 286h289l222 -286h-248l-122 153l-122 -153h-248z" />
<glyph unicode="&#x10a;" horiz-adv-x="1593" d="M97 736q0 364 193.5 559.5t547.5 195.5q277 0 435.5 -112t235.5 -344l-400 -89q-21 67 -44 98q-38 52 -93 80t-123 28q-154 0 -236 -124q-62 -92 -62 -289q0 -244 74 -334.5t208 -90.5q130 0 196.5 73t96.5 212l397 -120q-40 -167 -126 -279t-213.5 -169t-324.5 -57 q-239 0 -390.5 69.5t-261.5 244.5t-110 448zM660 1568v300h314v-300h-314z" />
<glyph unicode="&#x10b;" d="M74 526q0 164 56 273q41 80 112 143.5t146 94.5q119 49 305 49q260 0 396.5 -93t191.5 -272l-383 -51q-18 68 -65.5 102.5t-127.5 34.5q-101 0 -163.5 -72.5t-62.5 -219.5q0 -131 62 -199t158 -68q80 0 134.5 41t81.5 126l387 -44q-32 -121 -105 -209.5t-186.5 -137.5 t-288.5 -49q-169 0 -281.5 31.5t-193.5 102t-127 165.5t-46 252zM536 1196v300h314v-300h-314z" />
<glyph unicode="&#x10c;" horiz-adv-x="1593" d="M97 736q0 364 193.5 559.5t547.5 195.5q277 0 435.5 -112t235.5 -344l-400 -89q-21 67 -44 98q-38 52 -93 80t-123 28q-154 0 -236 -124q-62 -92 -62 -289q0 -244 74 -334.5t208 -90.5q130 0 196.5 73t96.5 212l397 -120q-40 -167 -126 -279t-213.5 -169t-324.5 -57 q-239 0 -390.5 69.5t-261.5 244.5t-110 448zM472 1841h247l122 -153l122 153h249l-230 -286h-288z" />
<glyph unicode="&#x10d;" d="M74 526q0 164 56 273q41 80 112 143.5t146 94.5q119 49 305 49q260 0 396.5 -93t191.5 -272l-383 -51q-18 68 -65.5 102.5t-127.5 34.5q-101 0 -163.5 -72.5t-62.5 -219.5q0 -131 62 -199t158 -68q80 0 134.5 41t81.5 126l387 -44q-32 -121 -105 -209.5t-186.5 -137.5 t-288.5 -49q-169 0 -281.5 31.5t-193.5 102t-127 165.5t-46 252zM334 1478h247l122 -153l122 153h249l-230 -286h-288z" />
<glyph unicode="&#x10e;" horiz-adv-x="1593" d="M156 0v1466h673q199 0 321.5 -54t202.5 -155t116 -235t36 -284q0 -235 -53.5 -364.5t-148.5 -217t-204 -116.5q-149 -40 -270 -40h-673zM406 1848h247l122 -153l122 153h249l-230 -286h-288zM609 333h111q142 0 202 31.5t94 110t34 254.5q0 233 -76 319t-252 86h-113 v-801z" />
<glyph unicode="&#x10f;" horiz-adv-x="1728" d="M72 542q0 264 126.5 404t321.5 140q95 0 172.5 -32t137.5 -96v508h411v-1466h-381v157q-80 -100 -146 -135q-88 -46 -196 -46q-217 0 -331.5 165t-114.5 401zM479 525q0 -130 49.5 -190.5t122.5 -60.5q78 0 130 61t52 199q0 125 -53 186.5t-134 61.5q-71 0 -119 -59 t-48 -198zM1423 1093q121 54 122 137h-122v236h270v-196q0 -108 -44.5 -170.5t-154.5 -110.5z" />
<glyph unicode="&#x110;" horiz-adv-x="1593" d="M2 622v221h154v623h673q199 0 321.5 -54t202.5 -154.5t115.5 -234.5t35.5 -284q0 -241 -55 -370.5t-149 -215t-204 -114.5q-147 -39 -267 -39h-673v622h-154zM609 333h111q142 0 202 31.5t94 110t34 254.5q0 233 -76.5 319t-252.5 86h-112v-291h220v-221h-220v-289z" />
<glyph unicode="&#x111;" d="M72 542q0 264 126.5 404t321.5 140q95 0 172.5 -32t137.5 -96v229h-306v163h306v116h411v-116h184v-163h-184v-1187h-381v157q-80 -100 -146 -135q-88 -46 -196 -46q-217 0 -331.5 165t-114.5 401zM479 525q0 -130 49.5 -190.5t122.5 -60.5q78 0 130 61t52 199 q0 125 -53 186.5t-134 61.5q-71 0 -119 -59t-48 -198z" />
<glyph unicode="&#x112;" horiz-adv-x="1479" d="M149 0v1466h1214v-313h-760v-233h705v-299h-705v-289h782v-332h-1236zM450 1569v217h647v-217h-647z" />
<glyph unicode="&#x113;" d="M72 529q0 249 159.5 403t440.5 154q228 0 360 -69t201 -200t69 -341v-46h-816q11 -98 53 -146q59 -69 154 -69q60 0 114 30q33 19 71 67l401 -37q-92 -160 -222 -229.5t-373 -69.5q-211 0 -332 59.5t-200.5 189t-79.5 304.5zM378 1229v217h647v-217h-647zM487 625h401 q-12 118 -63.5 169t-135.5 51q-97 0 -155 -77q-37 -48 -47 -143z" />
<glyph unicode="&#x114;" horiz-adv-x="1479" d="M149 0v1466h1214v-313h-760v-233h705v-299h-705v-289h782v-332h-1236zM416 1871h172q20 -58 57 -82.5t111 -24.5q87 0 124.5 24.5t53.5 82.5h165q-6 -95 -45 -159.5t-118 -103.5t-171 -39q-152 0 -243 79.5t-106 222.5z" />
<glyph unicode="&#x115;" d="M72 529q0 249 159.5 403t440.5 154q228 0 360 -69t201 -200t69 -341v-46h-816q11 -98 53 -146q59 -69 154 -69q60 0 114 30q33 19 71 67l401 -37q-92 -160 -222 -229.5t-373 -69.5q-211 0 -332 59.5t-200.5 189t-79.5 304.5zM328 1491h172q20 -58 57 -82.5t111 -24.5 q87 0 124.5 24.5t53.5 82.5h165q-6 -95 -45 -159.5t-118 -103.5t-171 -39q-152 0 -243 79.5t-106 222.5zM487 625h401q-12 118 -63.5 169t-135.5 51q-97 0 -155 -77q-37 -48 -47 -143z" />
<glyph unicode="&#x116;" horiz-adv-x="1479" d="M149 0v1466h1214v-313h-760v-233h705v-299h-705v-289h782v-332h-1236zM616 1568v300h314v-300h-314z" />
<glyph unicode="&#x117;" d="M72 529q0 249 159.5 403t440.5 154q228 0 360 -69t201 -200t69 -341v-46h-816q11 -98 53 -146q59 -69 154 -69q60 0 114 30q33 19 71 67l401 -37q-92 -160 -222 -229.5t-373 -69.5q-211 0 -332 59.5t-200.5 189t-79.5 304.5zM487 625h401q-12 118 -63.5 169t-135.5 51 q-97 0 -155 -77q-37 -48 -47 -143zM536 1196v300h314v-300h-314z" />
<glyph unicode="&#x118;" horiz-adv-x="1479" d="M149 0v1466h1214v-313h-760v-233h705v-299h-705v-289h782v-332h-1236zM875 -213q0 89 48 239h169q-20 -87 -20 -144q0 -76 37 -115t103 -39q47 0 128 26v-155q-124 -46 -212 -46q-120 0 -186.5 64t-66.5 170z" />
<glyph unicode="&#x119;" d="M72 529q0 249 159.5 403t440.5 154q228 0 360 -69t201 -200t69 -341v-46h-816q11 -98 53 -146q59 -69 154 -69q60 0 114 30q33 19 71 67l401 -37q-92 -160 -222 -229.5t-373 -69.5q-211 0 -332 59.5t-200.5 189t-79.5 304.5zM487 625h401q-12 118 -63.5 169t-135.5 51 q-97 0 -155 -77q-37 -48 -47 -143zM574 -213q0 89 48 239h169q-20 -87 -20 -144q0 -76 37 -115t103 -39q47 0 128 26v-155q-124 -46 -212 -46q-120 0 -186.5 64t-66.5 170z" />
<glyph unicode="&#x11a;" horiz-adv-x="1479" d="M149 0v1466h1214v-313h-760v-233h705v-299h-705v-289h782v-332h-1236zM403 1848h247l122 -153l122 153h249l-230 -286h-288z" />
<glyph unicode="&#x11b;" d="M72 529q0 249 159.5 403t440.5 154q228 0 360 -69t201 -200t69 -341v-46h-816q11 -98 53 -146q59 -69 154 -69q60 0 114 30q33 19 71 67l401 -37q-92 -160 -222 -229.5t-373 -69.5q-211 0 -332 59.5t-200.5 189t-79.5 304.5zM314 1478h247l122 -153l122 153h249 l-230 -286h-288zM487 625h401q-12 118 -63.5 169t-135.5 51q-97 0 -155 -77q-37 -48 -47 -143z" />
<glyph unicode="&#x11c;" horiz-adv-x="1706" d="M94 733q0 240 99 417.5t290 269.5q149 71 401 71q243 0 363.5 -44t200 -136.5t119.5 -234.5l-437 -78q-27 83 -91.5 127t-164.5 44q-149 0 -237.5 -103.5t-88.5 -327.5q0 -238 89.5 -340t249.5 -102q76 0 145 22t158 75v138h-303v305h700v-625q-201 -137 -355.5 -186.5 t-366.5 -49.5q-261 0 -425.5 89t-255 265t-90.5 404zM508 1572l229 286h289l222 -286h-248l-122 153l-122 -153h-248z" />
<glyph unicode="&#x11d;" d="M73 578q0 248 120 378t314 130q124 0 204.5 -42t150.5 -139v157h381v-1003l1 -47q0 -100 -42.5 -190.5t-113 -146.5t-179 -81t-248.5 -25q-320 0 -439.5 96t-119.5 257q0 20 2 54l395 -45q15 -55 46 -76q45 -31 113 -31q88 0 131.5 47t43.5 164v161q-60 -71 -120 -103 q-94 -50 -203 -50q-213 0 -344 186q-93 132 -93 349zM312 1192l229 286h289l222 -286h-248l-122 153l-122 -153h-248zM479 547q0 -115 49 -170.5t129 -55.5q76 0 127.5 57.5t51.5 173.5t-54 177.5t-132 61.5t-124.5 -56.5t-46.5 -187.5z" />
<glyph unicode="&#x11e;" horiz-adv-x="1706" d="M94 733q0 240 99 417.5t290 269.5q149 71 401 71q243 0 363.5 -44t200 -136.5t119.5 -234.5l-437 -78q-27 83 -91.5 127t-164.5 44q-149 0 -237.5 -103.5t-88.5 -327.5q0 -238 89.5 -340t249.5 -102q76 0 145 22t158 75v138h-303v305h700v-625q-201 -137 -355.5 -186.5 t-366.5 -49.5q-261 0 -425.5 89t-255 265t-90.5 404zM512 1854h172q20 -58 57 -82.5t111 -24.5q87 0 124.5 24.5t53.5 82.5h165q-6 -95 -45 -159.5t-118 -103.5t-171 -39q-152 0 -243 79.5t-106 222.5z" />
<glyph unicode="&#x11f;" d="M73 578q0 248 120 378t314 130q124 0 204.5 -42t150.5 -139v157h381v-1003l1 -47q0 -100 -42.5 -190.5t-113 -146.5t-179 -81t-248.5 -25q-320 0 -439.5 96t-119.5 257q0 20 2 54l395 -45q15 -55 46 -76q45 -31 113 -31q88 0 131.5 47t43.5 164v161q-60 -71 -120 -103 q-94 -50 -203 -50q-213 0 -344 186q-93 132 -93 349zM342 1491h172q20 -58 57 -82.5t111 -24.5q87 0 124.5 24.5t53.5 82.5h165q-6 -95 -45 -159.5t-118 -103.5t-171 -39q-152 0 -243 79.5t-106 222.5zM479 547q0 -115 49 -170.5t129 -55.5q76 0 127.5 57.5t51.5 173.5 t-54 177.5t-132 61.5t-124.5 -56.5t-46.5 -187.5z" />
<glyph unicode="&#x120;" horiz-adv-x="1706" d="M94 733q0 240 99 417.5t290 269.5q149 71 401 71q243 0 363.5 -44t200 -136.5t119.5 -234.5l-437 -78q-27 83 -91.5 127t-164.5 44q-149 0 -237.5 -103.5t-88.5 -327.5q0 -238 89.5 -340t249.5 -102q76 0 145 22t158 75v138h-303v305h700v-625q-201 -137 -355.5 -186.5 t-366.5 -49.5q-261 0 -425.5 89t-255 265t-90.5 404zM720 1568v300h314v-300h-314z" />
<glyph unicode="&#x121;" d="M73 578q0 248 120 378t314 130q124 0 204.5 -42t150.5 -139v157h381v-1003l1 -47q0 -100 -42.5 -190.5t-113 -146.5t-179 -81t-248.5 -25q-320 0 -439.5 96t-119.5 257q0 20 2 54l395 -45q15 -55 46 -76q45 -31 113 -31q88 0 131.5 47t43.5 164v161q-60 -71 -120 -103 q-94 -50 -203 -50q-213 0 -344 186q-93 132 -93 349zM479 547q0 -115 49 -170.5t129 -55.5q76 0 127.5 57.5t51.5 173.5t-54 177.5t-132 61.5t-124.5 -56.5t-46.5 -187.5zM524 1196v300h314v-300h-314z" />
<glyph unicode="&#x122;" horiz-adv-x="1706" d="M94 733q0 240 99 417.5t290 269.5q149 71 401 71q243 0 363.5 -44t200 -136.5t119.5 -234.5l-437 -78q-27 83 -91.5 127t-164.5 44q-149 0 -237.5 -103.5t-88.5 -327.5q0 -238 89.5 -340t249.5 -102q76 0 145 22t158 75v138h-303v305h700v-625q-201 -137 -355.5 -186.5 t-366.5 -49.5q-261 0 -425.5 89t-255 265t-90.5 404zM610 -282q104 -20 221 -20q86 0 116.5 23t30.5 60q0 29 -25 50t-78 21q-71 0 -167 -17l30 118q94 23 176 23q171 0 236 -58t65 -137q0 -48 -29.5 -99t-105.5 -82t-202 -31q-114 0 -268 26v123z" />
<glyph unicode="&#x123;" d="M73 578q0 248 120 378t314 130q124 0 204.5 -42t150.5 -139v157h381v-1003l1 -47q0 -100 -42.5 -190.5t-113 -146.5t-179 -81t-248.5 -25q-320 0 -439.5 96t-119.5 257q0 20 2 54l395 -45q15 -55 46 -76q45 -31 113 -31q88 0 131.5 47t43.5 164v161q-60 -71 -120 -103 q-94 -50 -203 -50q-213 0 -344 186q-93 132 -93 349zM479 547q0 -115 49 -170.5t129 -55.5q76 0 127.5 57.5t51.5 173.5t-54 177.5t-132 61.5t-124.5 -56.5t-46.5 -187.5zM561 1193v196q0 108 44.5 170.5t154.5 110.5l71 -104q-121 -54 -122 -137h122v-236h-270z" />
<glyph unicode="&#x124;" horiz-adv-x="1706" d="M152 0v1466h453v-513h495v513h455v-1466h-455v593h-495v-593h-453zM484 1572l229 286h289l222 -286h-248l-122 153l-122 -153h-248z" />
<glyph unicode="&#x125;" d="M123 0v1466h407v-540q83 86 165 123t194 37q166 0 261.5 -101t95.5 -310v-675h-409v584q0 100 -37 141.5t-104 41.5q-74 0 -120 -56t-46 -201v-510h-407zM316 1568l229 286h289l222 -286h-248l-122 153l-122 -153h-248z" />
<glyph unicode="&#x126;" horiz-adv-x="1706" d="M18 1102v221h134v143h452v-143h498v143h452v-143h134v-221h-134v-1102h-452v592h-498v-592h-452v1102h-134zM604 952h498v150h-498v-150z" />
<glyph unicode="&#x127;" d="M20 1186v186h103v94h407v-94h261v-186h-261v-260q144 159 361 159q176 0 266 -106.5t90 -302.5v-676h-407v584q0 184 -144 184q-79 0 -122.5 -58.5t-43.5 -199.5v-510h-407v1186h-103z" />
<glyph unicode="&#x128;" horiz-adv-x="797" d="M44 1613q0 107 59 170t140 63q35 0 66 -8t114.5 -43t121.5 -35q27 0 43.5 18.5t18.5 67.5h158q1 -26 1 -45q0 -111 -56 -172t-144 -61q-64 0 -194 53q-79 32 -109 32q-29 0 -45 -18t-17 -64h-156q-1 24 -1 42zM168 0v1466h454v-1466h-454z" />
<glyph unicode="&#x129;" horiz-adv-x="682" d="M-8 1233q0 107 59 170t140 63q35 0 66 -8t114.5 -43t121.5 -35q27 0 43.5 18.5t18.5 67.5h158q1 -26 1 -45q0 -111 -56 -172t-144 -61q-64 0 -194 53q-79 32 -109 32q-29 0 -45 -18t-17 -64h-156q-1 24 -1 42zM138 0v1062h407v-1062h-407z" />
<glyph unicode="&#x12a;" horiz-adv-x="797" d="M78 1569v217h647v-217h-647zM168 0v1466h454v-1466h-454z" />
<glyph unicode="&#x12b;" horiz-adv-x="682" d="M18 1229v217h647v-217h-647zM138 0v1062h407v-1062h-407z" />
<glyph unicode="&#x12c;" horiz-adv-x="797" d="M60 1875h172q20 -58 57 -82.5t111 -24.5q87 0 124.5 24.5t53.5 82.5h165q-6 -95 -45 -159.5t-118 -103.5t-171 -39q-152 0 -243 79.5t-106 222.5zM168 0v1466h454v-1466h-454z" />
<glyph unicode="&#x12d;" horiz-adv-x="682" d="M0 1491h172q20 -58 57 -82.5t111 -24.5q87 0 124.5 24.5t53.5 82.5h165q-6 -95 -45 -159.5t-118 -103.5t-171 -39q-152 0 -243 79.5t-106 222.5zM138 0v1062h407v-1062h-407z" />
<glyph unicode="&#x12e;" horiz-adv-x="797" d="M172 0v1466h453v-1466h-181q-12 -65 -12 -119q0 -153 139 -153q46 0 127 26v-155q-113 -45 -211 -45q-118 0 -186 63t-68 170q0 87 41 213h-102z" />
<glyph unicode="&#x12f;" horiz-adv-x="682" d="M137 0v1061h408v-1061h-183q-12 -65 -12 -119q0 -153 139 -153q46 0 127 26v-155q-113 -45 -210 -45q-119 0 -186.5 63t-67.5 170q0 87 41 213h-56zM138 1189v277h407v-277h-407z" />
<glyph unicode="&#x130;" horiz-adv-x="797" d="M168 0v1466h454v-1466h-454zM242 1555v300h314v-300h-314z" />
<glyph unicode="&#x131;" horiz-adv-x="682" d="M138 0v1062h407v-1062h-407z" />
<glyph unicode="&#x132;" horiz-adv-x="2105" d="M172 0v1466h453v-1466h-453zM772 496l432 59q0 -240 148 -240q70 0 108.5 51.5t38.5 196.5v903h453v-794q0 -162 -16.5 -271.5t-74 -201.5t-149 -144.5t-171 -66t-157.5 -13.5q-313 0 -454.5 135.5t-157.5 385.5z" />
<glyph unicode="&#x133;" horiz-adv-x="1368" d="M137 0v1061h408v-1061h-408zM137 1188v278h408v-278h-408zM584 -395l61 295q56 -11 72 -11q58 0 82 40.5t24 138.5v993h408v-1028q0 -147 -17.5 -239.5t-95 -158t-241.5 -65.5q-132 0 -293 35zM823 1188v278h408v-278h-408z" />
<glyph unicode="&#x134;" d="M35 495l433 59q1 -97 17 -144t54 -76q26 -19 74 -19q76 0 111.5 56.5t35.5 190.5v904h454v-797q0 -251 -44.5 -382t-179 -222t-344.5 -91q-222 0 -344 60t-188.5 175.5t-78.5 285.5zM328 1568l229 286h289l222 -286h-248l-122 153l-122 -153h-248z" />
<glyph unicode="&#x135;" horiz-adv-x="682" d="M-100 -396l61 296q49 -10 72 -10q52 0 79 35.5t27 141.5v995h408v-1030q0 -197 -28.5 -279t-105.5 -133t-220 -51q-118 0 -293 35zM-33 1192l230 287h288l222 -287h-248l-121 154l-123 -154h-248z" />
<glyph unicode="&#x136;" horiz-adv-x="1706" d="M152 0v1466h453v-554l475 554h602l-534 -553l558 -913h-558l-309 603l-234 -245v-358h-453zM746 -121h270v-196q0 -108 -44.5 -170.5t-154.5 -110.5l-71 104q121 54 122 137h-122v236z" />
<glyph unicode="&#x137;" d="M123 0v1466h416v-756l304 352h501l-381 -372l403 -690h-459l-215 426l-153 -150v-276h-416zM574 -121h270v-196q0 -108 -44.5 -170.5t-154.5 -110.5l-71 104q121 54 122 137h-122v236z" />
<glyph unicode="&#x138;" d="M123 0v1061h407v-352l306 352h499l-379 -371l402 -690h-459l-215 426l-154 -150v-276h-407z" />
<glyph unicode="&#x139;" d="M150 0v1466h453v-1105h707v-361h-1160zM552 1563l168 299h350l-323 -299h-195z" />
<glyph unicode="&#x13a;" horiz-adv-x="682" d="M137 0v1466h408v-1466h-408zM180 1563l168 299h350l-323 -299h-195z" />
<glyph unicode="&#x13b;" d="M150 0v1466h453v-1105h707v-361h-1160zM434 -282q104 -20 221 -20q86 0 116.5 23t30.5 60q0 29 -25 50t-78 21q-71 0 -167 -17l30 118q94 23 176 23q171 0 236 -58t65 -137q0 -48 -29.5 -99t-105.5 -82t-202 -31q-114 0 -268 26v123z" />
<glyph unicode="&#x13c;" horiz-adv-x="682" d="M18 -282q104 -20 221 -20q86 0 116.5 23t30.5 60q0 29 -25 50t-78 21q-71 0 -167 -17l30 118q94 23 176 23q171 0 236 -58t65 -137q0 -48 -29.5 -99t-105.5 -82t-202 -31q-114 0 -268 26v123zM137 0v1466h408v-1466h-408z" />
<glyph unicode="&#x13d;" d="M150 0v1466h453v-1105h707v-361h-1160zM956 1093q121 54 122 137h-122v236h270v-196q0 -108 -44.5 -170.5t-154.5 -110.5z" />
<glyph unicode="&#x13e;" horiz-adv-x="1024" d="M137 0v1466h408v-1466h-408zM717 1093q121 54 122 137h-122v236h270v-196q0 -108 -44.5 -170.5t-154.5 -110.5z" />
<glyph unicode="&#x13f;" d="M150 0v1466h453v-1105h707v-361h-1160zM900 768v300h314v-300h-314z" />
<glyph unicode="&#x140;" horiz-adv-x="1094" d="M137 0v1466h408v-1466h-408zM696 768v300h314v-300h-314z" />
<glyph unicode="&#x141;" d="M-1 323v280l151 114v749h453v-404l318 239v-280l-318 -240v-420h706v-361h-1159v439z" />
<glyph unicode="&#x142;" horiz-adv-x="682" d="M0 436v196l138 93v741h409v-469l136 89v-196l-136 -91v-799h-409v528z" />
<glyph unicode="&#x143;" horiz-adv-x="1706" d="M153 0v1466h423l552 -811v811h427v-1466h-427l-549 805v-805h-426zM674 1563l168 299h350l-323 -299h-195z" />
<glyph unicode="&#x144;" d="M123 0v1062h379v-173q85 106 172 151.5t212 45.5q169 0 264.5 -100.5t95.5 -310.5v-675h-409v584q0 100 -37 141.5t-104 41.5q-74 0 -120 -56t-46 -201v-510h-407zM509 1192l168 299h350l-323 -299h-195z" />
<glyph unicode="&#x145;" horiz-adv-x="1706" d="M153 0v1466h423l552 -811v811h427v-1466h-427l-549 805v-805h-426zM570 -282q104 -20 221 -20q86 0 116.5 23t30.5 60q0 29 -25 50t-78 21q-71 0 -167 -17l30 118q94 23 176 23q171 0 236 -58t65 -137q0 -48 -29.5 -99t-105.5 -82t-202 -31q-114 0 -268 26v123z" />
<glyph unicode="&#x146;" d="M123 0v1062h379v-173q85 106 172 151.5t212 45.5q169 0 264.5 -100.5t95.5 -310.5v-675h-409v584q0 100 -37 141.5t-104 41.5q-74 0 -120 -56t-46 -201v-510h-407zM426 -282q104 -20 221 -20q86 0 116.5 23t30.5 60q0 29 -25 50t-78 21q-71 0 -167 -17l30 118 q94 23 176 23q171 0 236 -58t65 -137q0 -48 -29.5 -99t-105.5 -82t-202 -31q-114 0 -268 26v123z" />
<glyph unicode="&#x147;" horiz-adv-x="1706" d="M153 0v1466h423l552 -811v811h427v-1466h-427l-549 805v-805h-426zM482 1848h247l122 -153l122 153h249l-230 -286h-288z" />
<glyph unicode="&#x148;" d="M123 0v1062h379v-173q85 106 172 151.5t212 45.5q169 0 264.5 -100.5t95.5 -310.5v-675h-409v584q0 100 -37 141.5t-104 41.5q-74 0 -120 -56t-46 -201v-510h-407zM317 1478h247l122 -153l122 153h249l-230 -286h-288z" />
<glyph unicode="&#x149;" horiz-adv-x="1757" d="M53 858q84 38 135 91t54 151h-189v366h396v-297q0 -159 -70 -266t-229 -174zM514 0v1061h381v-172h4q137 196 379 196q178 0 269 -105.5t91 -303.5v-676h-407v584q0 184 -144 184q-79 0 -122 -58.5t-43 -199.5v-510h-408z" />
<glyph unicode="&#x14a;" horiz-adv-x="1667" d="M152 0v1466h426v-172h4q63 81 194.5 139t272.5 58q526 0 526 -801q0 -569 -139.5 -844.5t-431.5 -275.5q-103 0 -242 35l61 336q54 -11 88 -11q113 0 162 184t49 560q0 438 -264 438q-104 0 -179 -58t-75 -132v-922h-452z" />
<glyph unicode="&#x14b;" horiz-adv-x="1395" d="M152 0v1061h399v-172h4q132 196 360 196q206 0 289.5 -161t83.5 -518q0 -429 -95 -632.5t-302 -203.5q-129 0 -262 35l61 295q39 -11 72 -11q67 0 93 121t26 377q0 240 -38.5 320.5t-117.5 80.5q-72 0 -109.5 -66.5t-37.5 -182.5v-539h-426z" />
<glyph unicode="&#x14c;" horiz-adv-x="1706" d="M93 732q0 359 200 559t557 200q366 0 564 -196.5t198 -550.5q0 -257 -86.5 -421.5t-250 -256t-407.5 -91.5q-248 0 -410.5 79t-263.5 250t-101 428zM530 1569v217h647v-217h-647zM546 730q0 -222 82.5 -319t224.5 -97q146 0 226 95t80 341q0 207 -83.5 302.5t-226.5 95.5 q-137 0 -220 -97t-83 -321z" />
<glyph unicode="&#x14d;" d="M73 528q0 243 164 400.5t443 157.5q319 0 482 -185q131 -149 131 -367q0 -245 -162.5 -401.5t-449.5 -156.5q-256 0 -414 130q-194 161 -194 422zM358 1229v217h647v-217h-647zM481 529q0 -142 57.5 -210t144.5 -68q88 0 144.5 67t56.5 215q0 138 -57 205.5t-141 67.5 q-89 0 -147 -68.5t-58 -208.5z" />
<glyph unicode="&#x14e;" horiz-adv-x="1706" d="M93 732q0 359 200 559t557 200q366 0 564 -196.5t198 -550.5q0 -257 -86.5 -421.5t-250 -256t-407.5 -91.5q-248 0 -410.5 79t-263.5 250t-101 428zM500 1875h172q20 -58 57 -82.5t111 -24.5q87 0 124.5 24.5t53.5 82.5h165q-6 -95 -45 -159.5t-118 -103.5t-171 -39 q-152 0 -243 79.5t-106 222.5zM546 730q0 -222 82.5 -319t224.5 -97q146 0 226 95t80 341q0 207 -83.5 302.5t-226.5 95.5q-137 0 -220 -97t-83 -321z" />
<glyph unicode="&#x14f;" d="M73 528q0 243 164 400.5t443 157.5q319 0 482 -185q131 -149 131 -367q0 -245 -162.5 -401.5t-449.5 -156.5q-256 0 -414 130q-194 161 -194 422zM332 1491h172q20 -58 57 -82.5t111 -24.5q87 0 124.5 24.5t53.5 82.5h165q-6 -95 -45 -159.5t-118 -103.5t-171 -39 q-152 0 -243 79.5t-106 222.5zM481 529q0 -142 57.5 -210t144.5 -68q88 0 144.5 67t56.5 215q0 138 -57 205.5t-141 67.5q-89 0 -147 -68.5t-58 -208.5z" />
<glyph unicode="&#x150;" horiz-adv-x="1706" d="M93 732q0 359 200 559t557 200q366 0 564 -196.5t198 -550.5q0 -257 -86.5 -421.5t-250 -256t-407.5 -91.5q-248 0 -410.5 79t-263.5 250t-101 428zM466 1568l168 295h325l-296 -295h-197zM546 730q0 -222 82.5 -319t224.5 -97q146 0 226 95t80 341q0 207 -83.5 302.5 t-226.5 95.5q-137 0 -220 -97t-83 -321zM866 1568l165 295h328l-302 -295h-191z" />
<glyph unicode="&#x151;" d="M73 528q0 243 164 400.5t443 157.5q319 0 482 -185q131 -149 131 -367q0 -245 -162.5 -401.5t-449.5 -156.5q-256 0 -414 130q-194 161 -194 422zM294 1196l168 295h325l-296 -295h-197zM481 529q0 -142 57.5 -210t144.5 -68q88 0 144.5 67t56.5 215q0 138 -57 205.5 t-141 67.5q-89 0 -147 -68.5t-58 -208.5zM694 1196l165 295h328l-302 -295h-191z" />
<glyph unicode="&#x152;" horiz-adv-x="2048" d="M71 728q0 382 173 589q146 174 376 174q133 0 225.5 -45.5t167.5 -134.5v155h941v-313h-542v-233h486v-299h-486v-289h572v-332h-971v162q-64 -93 -138 -134q-98 -54 -236 -54q-249 0 -392 168q-176 208 -176 586zM499 706q0 -164 31.5 -242.5t91.5 -117.5t119 -39 q61 0 123 42.5t90 120.5t28 277q0 162 -26.5 242t-86 123t-128.5 43q-74 0 -134.5 -47.5t-84 -126.5t-23.5 -275z" />
<glyph unicode="&#x153;" horiz-adv-x="2048" d="M59 543q0 275 201 431q143 112 374 112q112 0 198 -27t189 -96q92 62 186 92.5t211 30.5q267 0 420.5 -154t153.5 -426q0 -23 -2 -70h-773q9 -118 58 -168t128 -50q52 0 90 23t74 75l392 -36q-67 -149 -207 -226.5t-333 -77.5q-244 0 -415 118q-99 -65 -181.5 -91.5 t-182.5 -26.5q-259 0 -420 159.5t-161 407.5zM466 543q0 -148 43.5 -209t126.5 -61q84 0 130 58t46 225q0 139 -46 196.5t-115 57.5q-88 0 -136.5 -58t-48.5 -209zM1213 629h370q-12 118 -58 166.5t-122 48.5q-75 0 -125.5 -50.5t-64.5 -164.5z" />
<glyph unicode="&#x154;" horiz-adv-x="1593" d="M156 0v1466h755q210 0 321 -36t179 -133.5t68 -237.5q0 -122 -52 -210.5t-143 -143.5q-58 -35 -159 -58q81 -27 118 -54q25 -18 72.5 -77t63.5 -91l219 -425h-512l-242 448q-46 87 -82 113q-49 34 -111 34h-40v-595h-455zM611 872h191q31 0 120 20q45 9 73.5 46t28.5 85 q0 71 -45 109t-169 38h-199v-298zM655 1559l168 299h350l-323 -299h-195z" />
<glyph unicode="&#x155;" horiz-adv-x="909" d="M127 0v1062h381v-174q55 113 113.5 155.5t144.5 42.5q90 0 197 -56l-126 -290q-72 30 -114 30q-80 0 -124 -66q-63 -93 -63 -348v-356h-409zM344 1192l168 299h350l-323 -299h-195z" />
<glyph unicode="&#x156;" horiz-adv-x="1593" d="M156 0v1466h755q210 0 321 -36t179 -133.5t68 -237.5q0 -122 -52 -210.5t-143 -143.5q-58 -35 -159 -58q81 -27 118 -54q25 -18 72.5 -77t63.5 -91l219 -425h-512l-242 448q-46 87 -82 113q-49 34 -111 34h-40v-595h-455zM534 -282q104 -20 221 -20q86 0 116.5 23 t30.5 60q0 29 -25 50t-78 21q-71 0 -167 -17l30 118q94 23 176 23q171 0 236 -58t65 -137q0 -48 -29.5 -99t-105.5 -82t-202 -31q-114 0 -268 26v123zM611 872h191q31 0 120 20q45 9 73.5 46t28.5 85q0 71 -45 109t-169 38h-199v-298z" />
<glyph unicode="&#x157;" horiz-adv-x="909" d="M127 0v1062h381v-174q55 113 113.5 155.5t144.5 42.5q90 0 197 -56l-126 -290q-72 30 -114 30q-80 0 -124 -66q-63 -93 -63 -348v-356h-409zM166 -282q104 -20 221 -20q86 0 116.5 23t30.5 60q0 29 -25 50t-78 21q-71 0 -167 -17l30 118q94 23 176 23q171 0 236 -58 t65 -137q0 -48 -29.5 -99t-105.5 -82t-202 -31q-114 0 -268 26v123z" />
<glyph unicode="&#x158;" horiz-adv-x="1593" d="M156 0v1466h755q210 0 321 -36t179 -133.5t68 -237.5q0 -122 -52 -210.5t-143 -143.5q-58 -35 -159 -58q81 -27 118 -54q25 -18 72.5 -77t63.5 -91l219 -425h-512l-242 448q-46 87 -82 113q-49 34 -111 34h-40v-595h-455zM463 1848h247l122 -153l122 153h249l-230 -286 h-288zM611 872h191q31 0 120 20q45 9 73.5 46t28.5 85q0 71 -45 109t-169 38h-199v-298z" />
<glyph unicode="&#x159;" horiz-adv-x="909" d="M127 0v1062h381v-174q55 113 113.5 155.5t144.5 42.5q90 0 197 -56l-126 -290q-72 30 -114 30q-80 0 -124 -66q-63 -93 -63 -348v-356h-409zM157 1478h247l122 -153l122 153h249l-230 -286h-288z" />
<glyph unicode="&#x15a;" horiz-adv-x="1479" d="M71 485l431 27q14 -105 57 -160q70 -89 200 -89q97 0 149.5 45.5t52.5 105.5q0 57 -50 102t-232 85q-298 67 -425 178q-128 111 -128 283q0 113 65.5 213.5t197 158t360.5 57.5q281 0 428.5 -104.5t175.5 -332.5l-427 -25q-17 99 -71.5 144t-150.5 45q-79 0 -119 -33.5 t-40 -81.5q0 -35 33 -63q32 -29 152 -54q297 -64 425.5 -129.5t187 -162.5t58.5 -217q0 -141 -78 -260t-218 -180.5t-353 -61.5q-374 0 -518 144t-163 366zM564 1563l168 299h350l-323 -299h-195z" />
<glyph unicode="&#x15b;" horiz-adv-x="1251" d="M51 294l404 38q25 -72 70 -103t120 -31q82 0 127 35q35 26 35 65q0 44 -46 68q-33 17 -175 42q-212 37 -294.5 68.5t-139 106.5t-56.5 171q0 105 61 181t168 113.5t287 37.5q190 0 280.5 -29t151 -90t100.5 -165l-386 -38q-15 51 -50 75q-48 32 -116 32 q-69 0 -100.5 -24.5t-31.5 -59.5q0 -39 40 -59t174 -36q203 -23 302 -64t151.5 -117t52.5 -167q0 -92 -55.5 -179t-175 -138.5t-325.5 -51.5q-291 0 -414.5 83t-158.5 236zM432 1192l168 299h350l-323 -299h-195z" />
<glyph unicode="&#x15c;" horiz-adv-x="1479" d="M71 485l431 27q14 -105 57 -160q70 -89 200 -89q97 0 149.5 45.5t52.5 105.5q0 57 -50 102t-232 85q-298 67 -425 178q-128 111 -128 283q0 113 65.5 213.5t197 158t360.5 57.5q281 0 428.5 -104.5t175.5 -332.5l-427 -25q-17 99 -71.5 144t-150.5 45q-79 0 -119 -33.5 t-40 -81.5q0 -35 33 -63q32 -29 152 -54q297 -64 425.5 -129.5t187 -162.5t58.5 -217q0 -141 -78 -260t-218 -180.5t-353 -61.5q-374 0 -518 144t-163 366zM368 1576l229 286h289l222 -286h-248l-122 153l-122 -153h-248z" />
<glyph unicode="&#x15d;" horiz-adv-x="1251" d="M51 294l404 38q25 -72 70 -103t120 -31q82 0 127 35q35 26 35 65q0 44 -46 68q-33 17 -175 42q-212 37 -294.5 68.5t-139 106.5t-56.5 171q0 105 61 181t168 113.5t287 37.5q190 0 280.5 -29t151 -90t100.5 -165l-386 -38q-15 51 -50 75q-48 32 -116 32 q-69 0 -100.5 -24.5t-31.5 -59.5q0 -39 40 -59t174 -36q203 -23 302 -64t151.5 -117t52.5 -167q0 -92 -55.5 -179t-175 -138.5t-325.5 -51.5q-291 0 -414.5 83t-158.5 236zM236 1192l229 286h289l222 -286h-248l-122 153l-122 -153h-248z" />
<glyph unicode="&#x15e;" horiz-adv-x="1479" d="M71 485l431 27q14 -105 57 -160q70 -89 200 -89q97 0 149.5 45.5t52.5 105.5q0 57 -50 102t-232 85q-298 67 -425 178q-128 111 -128 283q0 113 65.5 213.5t197 158t360.5 57.5q281 0 428.5 -104.5t175.5 -332.5l-427 -25q-17 99 -71.5 144t-150.5 45q-79 0 -119 -33.5 t-40 -81.5q0 -35 33 -63q32 -29 152 -54q297 -64 425.5 -129.5t187 -162.5t58.5 -217q0 -141 -78 -260t-218 -180.5t-353 -61.5q-374 0 -518 144t-163 366zM417 -282q104 -20 221 -20q86 0 116.5 23t30.5 60q0 29 -25 50t-78 21q-71 0 -167 -17l30 118q94 23 176 23 q171 0 236 -58t65 -137q0 -48 -29.5 -99t-105.5 -82t-202 -31q-114 0 -268 26v123z" />
<glyph unicode="&#x15f;" horiz-adv-x="1251" d="M51 294l404 38q25 -72 70 -103t120 -31q82 0 127 35q35 26 35 65q0 44 -46 68q-33 17 -175 42q-212 37 -294.5 68.5t-139 106.5t-56.5 171q0 105 61 181t168 113.5t287 37.5q190 0 280.5 -29t151 -90t100.5 -165l-386 -38q-15 51 -50 75q-48 32 -116 32 q-69 0 -100.5 -24.5t-31.5 -59.5q0 -39 40 -59t174 -36q203 -23 302 -64t151.5 -117t52.5 -167q0 -92 -55.5 -179t-175 -138.5t-325.5 -51.5q-291 0 -414.5 83t-158.5 236zM303 -282q104 -20 221 -20q86 0 116.5 23t30.5 60q0 29 -25 50t-78 21q-71 0 -167 -17l30 118 q94 23 176 23q171 0 236 -58t65 -137q0 -48 -29.5 -99t-105.5 -82t-202 -31q-114 0 -268 26v123z" />
<glyph unicode="&#x160;" horiz-adv-x="1479" d="M71 485l431 27q14 -105 57 -160q70 -89 200 -89q97 0 149.5 45.5t52.5 105.5q0 57 -50 102t-232 85q-298 67 -425 178q-128 111 -128 283q0 113 65.5 213.5t197 158t360.5 57.5q281 0 428.5 -104.5t175.5 -332.5l-427 -25q-17 99 -71.5 144t-150.5 45q-79 0 -119 -33.5 t-40 -81.5q0 -35 33 -63q32 -29 152 -54q297 -64 425.5 -129.5t187 -162.5t58.5 -217q0 -141 -78 -260t-218 -180.5t-353 -61.5q-374 0 -518 144t-163 366zM371 1841h247l122 -153l122 153h249l-230 -286h-288z" />
<glyph unicode="&#x161;" horiz-adv-x="1251" d="M51 294l404 38q25 -72 70 -103t120 -31q82 0 127 35q35 26 35 65q0 44 -46 68q-33 17 -175 42q-212 37 -294.5 68.5t-139 106.5t-56.5 171q0 105 61 181t168 113.5t287 37.5q190 0 280.5 -29t151 -90t100.5 -165l-386 -38q-15 51 -50 75q-48 32 -116 32 q-69 0 -100.5 -24.5t-31.5 -59.5q0 -39 40 -59t174 -36q203 -23 302 -64t151.5 -117t52.5 -167q0 -92 -55.5 -179t-175 -138.5t-325.5 -51.5q-291 0 -414.5 83t-158.5 236zM257 1478h247l122 -153l122 153h249l-230 -286h-288z" />
<glyph unicode="&#x162;" horiz-adv-x="1479" d="M47 1104v362h1377v-362h-462v-1104h-453v1104h-462zM417 -282q104 -20 221 -20q86 0 116.5 23t30.5 60q0 29 -25 50t-78 21q-71 0 -167 -17l30 118q94 23 176 23q171 0 236 -58t65 -137q0 -48 -29.5 -99t-105.5 -82t-202 -31q-114 0 -268 26v123z" />
<glyph unicode="&#x163;" horiz-adv-x="909" d="M56 765v297h150v195l408 209v-404h224v-297h-224v-377q0 -68 13 -90q20 -34 70 -34q45 0 126 26l30 -281q-151 -33 -282 -33q-152 0 -224 39t-106.5 118.5t-34.5 257.5v374h-150zM238 -282q104 -20 221 -20q86 0 116.5 23t30.5 60q0 29 -25 50t-78 21q-71 0 -167 -17 l30 118q94 23 176 23q171 0 236 -58t65 -137q0 -48 -29.5 -99t-105.5 -82t-202 -31q-114 0 -268 26v123z" />
<glyph unicode="&#x164;" horiz-adv-x="1479" d="M47 1104v362h1377v-362h-462v-1104h-453v1104h-462zM374 1848h247l122 -153l122 153h249l-230 -286h-288z" />
<glyph unicode="&#x165;" horiz-adv-x="1280" d="M56 765v297h150v195l408 209v-404h224v-297h-224v-377q0 -68 13 -90q20 -34 70 -34q45 0 126 26l30 -281q-151 -33 -282 -33q-152 0 -224 39t-106.5 118.5t-34.5 257.5v374h-150zM966 1093q121 54 122 137h-122v236h270v-196q0 -108 -44.5 -170.5t-154.5 -110.5z" />
<glyph unicode="&#x166;" horiz-adv-x="1479" d="M53 1106v360h1374v-360h-460v-283h192v-262h-192v-561h-453v561h-182v262h182v283h-461z" />
<glyph unicode="&#x167;" horiz-adv-x="909" d="M53 422v221h150v121h-150v297h150v196l407 209v-405h224v-297h-224v-121h176v-221h-176v-33q0 -82 23 -103.5t61 -21.5q51 0 125 27l31 -283q-147 -33 -283 -33q-153 0 -231 44t-105.5 128t-27.5 244v31h-150z" />
<glyph unicode="&#x168;" horiz-adv-x="1706" d="M151 592v874h452v-895q0 -120 66.5 -187.5t184.5 -67.5q117 0 183.5 66.5t66.5 188.5v895h452v-874q0 -130 -40.5 -245.5t-127 -202t-181.5 -121.5q-132 -49 -317 -49q-107 0 -233.5 15t-211.5 59.5t-155.5 126.5t-96.5 169q-42 140 -42 248zM492 1617q0 107 59 170 t140 63q35 0 66 -8t114.5 -43t121.5 -35q27 0 43.5 18.5t18.5 67.5h158q1 -26 1 -45q0 -111 -56 -172t-144 -61q-64 0 -194 53q-79 32 -109 32q-29 0 -45 -18t-17 -64h-156q-1 24 -1 42z" />
<glyph unicode="&#x169;" d="M119 386v676h409v-584q0 -100 37 -142t104 -42q73 0 119.5 56t46.5 201v511h407v-1062h-380v172q-85 -106 -171.5 -151t-212.5 -45q-168 0 -263.5 100.5t-95.5 309.5zM324 1233q0 107 59 170t140 63q35 0 66 -8t114.5 -43t121.5 -35q27 0 43.5 18.5t18.5 67.5h158 q1 -26 1 -45q0 -111 -56 -172t-144 -61q-64 0 -194 53q-79 32 -109 32q-29 0 -45 -18t-17 -64h-156q-1 24 -1 42z" />
<glyph unicode="&#x16a;" horiz-adv-x="1706" d="M151 592v874h452v-895q0 -120 66.5 -187.5t184.5 -67.5q117 0 183.5 66.5t66.5 188.5v895h452v-874q0 -130 -40.5 -245.5t-127 -202t-181.5 -121.5q-132 -49 -317 -49q-107 0 -233.5 15t-211.5 59.5t-155.5 126.5t-96.5 169q-42 140 -42 248zM534 1569v217h647v-217h-647 z" />
<glyph unicode="&#x16b;" d="M119 386v676h409v-584q0 -100 37 -142t104 -42q73 0 119.5 56t46.5 201v511h407v-1062h-380v172q-85 -106 -171.5 -151t-212.5 -45q-168 0 -263.5 100.5t-95.5 309.5zM354 1229v217h647v-217h-647z" />
<glyph unicode="&#x16c;" horiz-adv-x="1706" d="M151 592v874h452v-895q0 -120 66.5 -187.5t184.5 -67.5q117 0 183.5 66.5t66.5 188.5v895h452v-874q0 -130 -40.5 -245.5t-127 -202t-181.5 -121.5q-132 -49 -317 -49q-107 0 -233.5 15t-211.5 59.5t-155.5 126.5t-96.5 169q-42 140 -42 248zM508 1875h172 q20 -58 57 -82.5t111 -24.5q87 0 124.5 24.5t53.5 82.5h165q-6 -95 -45 -159.5t-118 -103.5t-171 -39q-152 0 -243 79.5t-106 222.5z" />
<glyph unicode="&#x16d;" d="M119 386v676h409v-584q0 -100 37 -142t104 -42q73 0 119.5 56t46.5 201v511h407v-1062h-380v172q-85 -106 -171.5 -151t-212.5 -45q-168 0 -263.5 100.5t-95.5 309.5zM340 1491h172q20 -58 57 -82.5t111 -24.5q87 0 124.5 24.5t53.5 82.5h165q-6 -95 -45 -159.5 t-118 -103.5t-171 -39q-152 0 -243 79.5t-106 222.5z" />
<glyph unicode="&#x16e;" horiz-adv-x="1706" d="M151 592v874h452v-895q0 -120 66.5 -187.5t184.5 -67.5q117 0 183.5 66.5t66.5 188.5v895h452v-874q0 -130 -40.5 -245.5t-127 -202t-181.5 -121.5q-132 -49 -317 -49q-107 0 -233.5 15t-211.5 59.5t-155.5 126.5t-96.5 169q-42 140 -42 248zM613 1773q0 100 70.5 170.5 t170.5 70.5q99 0 169.5 -70.5t70.5 -170.5t-70.5 -170t-169.5 -70q-100 0 -170.5 70t-70.5 170zM750 1774q0 -43 30 -73t73 -30t73 30t30 73t-30 73t-73 30t-73 -30t-30 -73z" />
<glyph unicode="&#x16f;" d="M119 386v676h409v-584q0 -100 37 -142t104 -42q73 0 119.5 56t46.5 201v511h407v-1062h-380v172q-85 -106 -171.5 -151t-212.5 -45q-168 0 -263.5 100.5t-95.5 309.5zM442 1403q0 100 70.5 170.5t170.5 70.5q99 0 169.5 -70.5t70.5 -170.5t-70.5 -170t-169.5 -70 q-100 0 -170.5 70t-70.5 170zM579 1404q0 -43 30 -73t73 -30t73 30t30 73t-30 73t-73 30t-73 -30t-30 -73z" />
<glyph unicode="&#x170;" horiz-adv-x="1706" d="M151 592v874h452v-895q0 -120 66.5 -187.5t184.5 -67.5q117 0 183.5 66.5t66.5 188.5v895h452v-874q0 -130 -40.5 -245.5t-127 -202t-181.5 -121.5q-132 -49 -317 -49q-107 0 -233.5 15t-211.5 59.5t-155.5 126.5t-96.5 169q-42 140 -42 248zM553 1566l168 295h325 l-296 -295h-197zM953 1566l165 295h328l-302 -295h-191z" />
<glyph unicode="&#x171;" d="M119 386v676h409v-584q0 -100 37 -142t104 -42q73 0 119.5 56t46.5 201v511h407v-1062h-380v172q-85 -106 -171.5 -151t-212.5 -45q-168 0 -263.5 100.5t-95.5 309.5zM290 1196l168 295h325l-296 -295h-197zM690 1196l165 295h328l-302 -295h-191z" />
<glyph unicode="&#x172;" horiz-adv-x="1706" d="M152 592v874h452v-895q0 -119 63.5 -187.5t186.5 -68.5t185.5 68.5t62.5 187.5v895h452v-874q0 -273 -161 -444t-490 -173q-8 -55 -8 -94q0 -153 139 -153q46 0 127 26v-155q-113 -45 -211 -45q-118 0 -186 63t-68 170q0 78 35 195q-290 15 -434.5 184.5t-144.5 425.5z " />
<glyph unicode="&#x173;" d="M119 385v676h407v-584q0 -184 144 -184q79 0 122.5 58.5t43.5 199.5v510h407v-1061h-211q-12 -65 -12 -119q0 -153 139 -153q46 0 127 26v-155q-114 -45 -211 -45q-118 0 -186 63t-68 170q0 62 21 140l20 73v172h-4q-137 -197 -379 -197q-178 0 -269 106t-91 304z" />
<glyph unicode="&#x174;" horiz-adv-x="2048" d="M-1 1466h430l155 -819l226 819h429l227 -819l155 819h428l-323 -1466h-444l-257 923l-256 -923h-444zM656 1568l229 286h289l222 -286h-248l-122 153l-122 -153h-248z" />
<glyph unicode="&#x175;" horiz-adv-x="1933" d="M3 1062h394l171 -669l216 669h367l224 -669l171 669h391l-391 -1062h-362l-215 639l-208 -639h-364zM588 1192l229 286h289l222 -286h-248l-122 153l-122 -153h-248z" />
<glyph unicode="&#x176;" horiz-adv-x="1593" d="M2 1466h503l296 -495l296 495h500l-570 -852v-614h-454v614zM428 1568l229 286h289l222 -286h-248l-122 153l-122 -153h-248z" />
<glyph unicode="&#x177;" horiz-adv-x="1251" d="M5 1062h430l219 -707l203 707h401l-421 -1135q-72 -194 -147 -262q-106 -96 -323 -96q-88 0 -272 24l-32 284q88 -28 196 -28q72 0 116.5 33t75.5 118zM276 1192l229 286h289l222 -286h-248l-122 153l-122 -153h-248z" />
<glyph unicode="&#x178;" horiz-adv-x="1593" d="M2 1466h503l296 -495l296 495h500l-570 -852v-614h-454v614zM454 1559v250h260v-250h-260zM878 1559v250h263v-250h-263z" />
<glyph unicode="&#x179;" horiz-adv-x="1479" d="M34 0v304l813 849h-734v313h1282v-293l-822 -858h852v-315h-1391zM558 1563l168 299h350l-323 -299h-195z" />
<glyph unicode="&#x17a;" horiz-adv-x="1139" d="M37 0v264l508 520h-468v278h985v-238l-536 -546h569v-278h-1058zM396 1192l168 299h350l-323 -299h-195z" />
<glyph unicode="&#x17b;" horiz-adv-x="1479" d="M34 0v304l813 849h-734v313h1282v-293l-822 -858h852v-315h-1391zM609 1555v300h314v-300h-314z" />
<glyph unicode="&#x17c;" horiz-adv-x="1139" d="M37 0v264l508 520h-468v278h985v-238l-536 -546h569v-278h-1058zM416 1196v300h314v-300h-314z" />
<glyph unicode="&#x17d;" horiz-adv-x="1479" d="M34 0v304l813 849h-734v313h1282v-293l-822 -858h852v-315h-1391zM371 1841h247l122 -153l122 153h249l-230 -286h-288z" />
<glyph unicode="&#x17e;" horiz-adv-x="1139" d="M37 0v264l508 520h-468v278h985v-238l-536 -546h569v-278h-1058zM201 1478h247l122 -153l122 153h249l-230 -286h-288z" />
<glyph unicode="&#x17f;" horiz-adv-x="799" d="M119 0v1016q0 204 119 339.5t424 135.5q61 0 122 -18l-59 -250q-46 12 -84 12q-131 0 -131 -209v-1026h-391z" />
<glyph unicode="&#x192;" d="M37 -372l73 260q103 -36 154 -36q39 0 61 21.5t39 102.5l156 733h-191l59 290h195l45 213q17 85 57.5 148t117.5 97t187 34q166 0 345 -62l-73 -262q-93 39 -153 39q-39 0 -61.5 -23.5t-44.5 -112.5l-17 -71h198l-63 -290h-195l-188 -882q-27 -126 -113.5 -192 t-245.5 -66q-148 0 -342 59z" />
<glyph unicode="&#x1fa;" horiz-adv-x="1593" d="M2 0l551 1466h34q-32 56 -32 121q0 99 70.5 170t169.5 71q100 0 170.5 -70.5t70.5 -170.5q0 -65 -33 -121h44l551 -1466h-474l-77 242h-506l-76 -242h-463zM579 1920l168 299h350l-323 -299h-195zM646 577h299l-150 485zM692 1588q0 -44 30 -74t73 -30q42 0 72 30t30 73 t-30 73t-72 30q-43 0 -73 -30t-30 -72z" />
<glyph unicode="&#x1fb;" d="M73 281q0 121 71 199t262 116q229 46 297 64.5t144 48.5q0 75 -31 105t-109 30q-100 0 -150 -32q-39 -25 -63 -94l-389 41q22 102 63.5 160.5t119.5 101.5q56 31 154 48t212 17q183 0 294 -20.5t185 -85.5q52 -45 82 -127.5t30 -157.5v-469q0 -75 9.5 -117.5t41.5 -108.5 h-382q-23 41 -30 62.5t-14 67.5q-80 -77 -159 -110q-108 -44 -251 -44q-190 0 -288.5 88t-98.5 217zM442 1403q0 100 70.5 170.5t170.5 70.5q99 0 169.5 -70.5t70.5 -170.5t-70.5 -170t-169.5 -70q-100 0 -170.5 70t-70.5 170zM451 1732l168 299h350l-323 -299h-195z M481 311q0 -48 33.5 -78.5t98.5 -30.5q68 0 126.5 33t83 80.5t24.5 123.5v65q-84 -30 -175 -53q-124 -33 -157 -65q-34 -33 -34 -75zM579 1404q0 -43 30 -73t73 -30t73 30t30 73t-30 73t-73 30t-73 -30t-30 -73z" />
<glyph unicode="&#x1fc;" horiz-adv-x="2048" d="M-76 0l632 1466h1400v-313h-618v-233h562v-299h-562v-289h637v-332h-1063v263h-435l-97 -263h-456zM600 597h312v572h-101zM999 1572l168 299h350l-323 -299h-195z" />
<glyph unicode="&#x1fd;" horiz-adv-x="2048" d="M69 285q0 69 32 130t81 97q65 47 141 73q35 12 171 38t175 36q67 17 156 47q-2 80 -32.5 109t-111.5 29q-85 0 -127 -30.5t-59 -96.5l-391 45q29 106 68 160q53 74 161.5 119.5t305.5 45.5q158 0 260 -28q73 -20 161 -77q92 58 167.5 81t178.5 23q154 0 264.5 -44 t180.5 -119.5t100 -150.5q39 -99 39 -274v-67h-771q11 -96 47 -143q55 -71 144 -71q50 0 86.5 22.5t71.5 77.5l397 -35q-81 -151 -209.5 -228.5t-343.5 -77.5q-165 0 -284 48q-90 36 -173 120q-123 -90 -233.5 -129t-245.5 -39q-203 0 -305 85.5t-102 223.5zM480 319 q0 -46 33 -78t87 -32q55 0 113 28t89 85q23 41 23 109v76l-125 -41q-24 -8 -42 -11q-99 -19 -138.5 -57t-39.5 -79zM827 1192l168 299h350l-323 -299h-195zM1216 626h368q-8 103 -52.5 160t-125.5 57q-72 0 -123.5 -52t-66.5 -165z" />
<glyph unicode="&#x1fe;" horiz-adv-x="1706" d="M35 107l176 168q-119 185 -119 454q0 361 199.5 561.5t554.5 200.5q315 0 500 -139l174 164l151 -161l-173 -164q53 -80 83 -201.5t30 -254.5q0 -257 -92.5 -422.5t-255 -251.5t-409.5 -86q-176 0 -315 45q-90 29 -178 95l-175 -167zM545 738q0 -68 10 -137l499 474 q-75 73 -206 73q-137 0 -220 -96.5t-83 -313.5zM649 387q73 -73 203 -73q145 0 225.5 94t80.5 326q0 64 -8 127zM663 1572l168 299h350l-323 -299h-195z" />
<glyph unicode="&#x1ff;" d="M73 526q0 245 163 402.5t438 157.5q112 0 200 -21q59 -14 146 -58l133 149l104 -94l-124 -136q69 -58 114 -164t45 -230q0 -244 -161 -400t-438 -156q-113 0 -199 19q-59 13 -149 56l-133 -148l-105 97l127 135q-85 91 -123 183t-38 208zM453 522q0 -53 17 -126l351 389 q-28 27 -48 35q-39 16 -88 16q-101 0 -166.5 -77.5t-65.5 -236.5zM503 1192l168 299h350l-323 -299h-195zM545 270q33 -26 54 -34q40 -14 88 -14q98 0 161.5 77.5t63.5 243.5q0 51 -17 117z" />
<glyph unicode="&#x218;" horiz-adv-x="1479" d="M71 485l431 27q14 -105 57 -160q70 -89 200 -89q97 0 149.5 45.5t52.5 105.5q0 57 -50 102t-232 85q-298 67 -425 178q-128 111 -128 283q0 113 65.5 213.5t197 158t360.5 57.5q281 0 428.5 -104.5t175.5 -332.5l-427 -25q-17 99 -71.5 144t-150.5 45q-79 0 -119 -33.5 t-40 -81.5q0 -35 33 -63q32 -29 152 -54q297 -64 425.5 -129.5t187 -162.5t58.5 -217q0 -141 -78 -260t-218 -180.5t-353 -61.5q-374 0 -518 144t-163 366zM606 -121h270v-196q0 -108 -44.5 -170.5t-154.5 -110.5l-71 104q121 54 122 137h-122v236z" />
<glyph unicode="&#x219;" horiz-adv-x="1251" d="M51 294l404 38q25 -72 70 -103t120 -31q82 0 127 35q35 26 35 65q0 44 -46 68q-33 17 -175 42q-212 37 -294.5 68.5t-139 106.5t-56.5 171q0 105 61 181t168 113.5t287 37.5q190 0 280.5 -29t151 -90t100.5 -165l-386 -38q-15 51 -50 75q-48 32 -116 32 q-69 0 -100.5 -24.5t-31.5 -59.5q0 -39 40 -59t174 -36q203 -23 302 -64t151.5 -117t52.5 -167q0 -92 -55.5 -179t-175 -138.5t-325.5 -51.5q-291 0 -414.5 83t-158.5 236zM481 -121h270v-196q0 -108 -44.5 -170.5t-154.5 -110.5l-71 104q121 54 122 137h-122v236z" />
<glyph unicode="&#x21a;" horiz-adv-x="1479" d="M47 1104v362h1377v-362h-462v-1104h-453v1104h-462zM597 -121h270v-196q0 -108 -44.5 -170.5t-154.5 -110.5l-71 104q121 54 122 137h-122v236z" />
<glyph unicode="&#x21b;" horiz-adv-x="909" d="M56 765v297h150v195l408 209v-404h224v-297h-224v-377q0 -68 13 -90q20 -34 70 -34q45 0 126 26l30 -281q-151 -33 -282 -33q-152 0 -224 39t-106.5 118.5t-34.5 257.5v374h-150zM352 -121h270v-196q0 -108 -44.5 -170.5t-154.5 -110.5l-71 104q121 54 122 137h-122v236z " />
<glyph unicode="&#x2c6;" horiz-adv-x="682" d="M-28 1192l229 286h289l222 -286h-248l-122 153l-122 -153h-248z" />
<glyph unicode="&#x2c7;" horiz-adv-x="682" d="M-28 1478h247l122 -153l122 153h249l-230 -286h-288z" />
<glyph unicode="&#x2d8;" horiz-adv-x="682" d="M0 1491h172q20 -58 57 -82.5t111 -24.5q87 0 124.5 24.5t53.5 82.5h165q-6 -95 -45 -159.5t-118 -103.5t-171 -39q-152 0 -243 79.5t-106 222.5z" />
<glyph unicode="&#x2d9;" horiz-adv-x="683" d="M184 1196v300h314v-300h-314z" />
<glyph unicode="&#x2da;" horiz-adv-x="682" d="M100 1403q0 100 70.5 170.5t170.5 70.5q99 0 169.5 -70.5t70.5 -170.5t-70.5 -170t-169.5 -70q-100 0 -170.5 70t-70.5 170zM237 1404q0 -43 30 -73t73 -30t73 30t30 73t-30 73t-73 30t-73 -30t-30 -73z" />
<glyph unicode="&#x2db;" horiz-adv-x="682" d="M152 -213q0 89 48 239h169q-20 -87 -20 -144q0 -76 37 -115t103 -39q47 0 128 26v-155q-124 -46 -212 -46q-120 0 -186.5 64t-66.5 170z" />
<glyph unicode="&#x2dc;" horiz-adv-x="682" d="M-20 1233q0 107 59 170t140 63q35 0 66 -8t114.5 -43t121.5 -35q27 0 43.5 18.5t18.5 67.5h158q1 -26 1 -45q0 -111 -56 -172t-144 -61q-64 0 -194 53q-79 32 -109 32q-29 0 -45 -18t-17 -64h-156q-1 24 -1 42z" />
<glyph unicode="&#x2dd;" horiz-adv-x="682" d="M46 1196l168 295h325l-296 -295h-197zM446 1196l165 295h328l-302 -295h-191z" />
<glyph unicode="&#x3a9;" horiz-adv-x="1706" d="M94 821q0 309 196.5 489.5t559.5 180.5q375 0 568.5 -173t193.5 -497q0 -146 -72.5 -292.5t-157.5 -209.5h217v-319h-661v319q221 155 221 472q0 360 -309 360q-149 0 -226 -96t-77 -264q0 -297 221 -472v-319h-662v319h218q-85 63 -157.5 209.5t-72.5 292.5z" />
<glyph unicode="&#x3c0;" horiz-adv-x="1448" d="M20 764v297h1410v-297h-134v-764h-407v764h-309v-764h-408v764h-152z" />
<glyph unicode="&#x401;" horiz-adv-x="1479" d="M149 0v1466h1214v-313h-760v-233h705v-299h-705v-289h782v-332h-1236zM397 1559v250h260v-250h-260zM821 1559v250h263v-250h-263z" />
<glyph unicode="&#x402;" horiz-adv-x="2056" d="M53 1106v360h1374v-360h-460v-205q200 72 364 72q314 0 479.5 -131t165.5 -375q0 -233 -161.5 -356t-471.5 -123q-57 0 -172 16l62 309q72 -14 110 -14q76 0 129.5 40.5t53.5 111.5q0 75 -62 115t-166 40q-152 0 -331 -74v-532h-453v1106h-461z" />
<glyph unicode="&#x403;" d="M150 0v1466h1161v-360h-709v-1106h-452zM495 1576l168 299h350l-323 -299h-195z" />
<glyph unicode="&#x404;" horiz-adv-x="1630" d="M94 743q0 356 197.5 552t564.5 196q494 0 676 -369l-408 -155q-67 184 -268 184q-258 0 -301 -283h444v-272h-442q37 -281 297 -281q223 0 285 226l426 -115q-68 -200 -238.5 -325.5t-488.5 -125.5q-353 0 -548.5 198.5t-195.5 569.5z" />
<glyph unicode="&#x405;" horiz-adv-x="1479" d="M71 485l431 27q14 -105 57 -160q70 -89 200 -89q97 0 149.5 45.5t52.5 105.5q0 57 -50 102t-232 85q-298 67 -425 178q-128 111 -128 283q0 113 65.5 213.5t197 158t360.5 57.5q281 0 428.5 -104.5t175.5 -332.5l-427 -25q-17 99 -71.5 144t-150.5 45q-79 0 -119 -33.5 t-40 -81.5q0 -35 33 -63q32 -29 152 -54q297 -64 425.5 -129.5t187 -162.5t58.5 -217q0 -141 -78 -260t-218 -180.5t-353 -61.5q-374 0 -518 144t-163 366z" />
<glyph unicode="&#x406;" horiz-adv-x="797" d="M168 0v1466h454v-1466h-454z" />
<glyph unicode="&#x407;" horiz-adv-x="797" d="M56 1559v250h260v-250h-260zM168 0v1466h454v-1466h-454zM480 1559v250h263v-250h-263z" />
<glyph unicode="&#x408;" d="M35 495l433 59q1 -97 17 -144t54 -76q26 -19 74 -19q76 0 111.5 56.5t35.5 190.5v904h454v-797q0 -251 -44.5 -382t-179 -222t-344.5 -91q-222 0 -344 60t-188.5 175.5t-78.5 285.5z" />
<glyph unicode="&#x409;" horiz-adv-x="2478" d="M2 10v297h68q92 0 130 40.5t38 148.5v970h1259v-565h242q324 0 489.5 -123t165.5 -360q0 -149 -93 -263t-268 -134.5t-210 -20.5h-779v1106h-354v-451q0 -278 -29.5 -408.5t-138 -191.5t-350.5 -61q-74 0 -170 16zM1497 315h232q213 0 213 154q0 135 -213 135h-232v-289z " />
<glyph unicode="&#x40a;" horiz-adv-x="2478" d="M152 0v1466h452v-514h440v514h453v-565h242q324 0 489.5 -123t165.5 -360q0 -149 -93 -263t-268 -134.5t-210 -20.5h-779v592h-440v-592h-452zM1497 315h232q213 0 213 154q0 135 -213 135h-232v-289z" />
<glyph unicode="&#x40b;" horiz-adv-x="1999" d="M53 1106v360h1374v-360h-460v-246q199 115 397 115q224 0 369 -133t145 -363v-479h-453v389q0 223 -198 223q-147 0 -260 -106v-506h-453v1106h-461z" />
<glyph unicode="&#x40c;" horiz-adv-x="1495" d="M150 0v1466h452v-563q59 3 92 42t103 224q51 137 103 196.5t169 85.5t367 26v-310h-23q-116 0 -172 -44t-92 -142.5t-77.5 -147t-113.5 -77.5q98 -32 171 -110.5t155 -244.5l199 -401h-510l-176 379q-63 134 -98 167.5t-97 33.5v-580h-452zM567 1572l168 299h350 l-323 -299h-195z" />
<glyph unicode="&#x40e;" horiz-adv-x="1376" d="M12 1466h492l203 -604l200 604h461l-481 -1132q-59 -137 -103 -204.5t-130.5 -111t-237.5 -43.5q-80 0 -275 23v303q115 -12 168 -12q157 0 191 117zM348 1872h172q30 -107 168 -107q76 0 119.5 21.5t58.5 85.5h164q-2 -145 -100.5 -223t-233.5 -78q-157 0 -246.5 79.5 t-101.5 221.5z" />
<glyph unicode="&#x40f;" horiz-adv-x="1706" d="M152 0v1466h452v-1106h498v1106h452v-1466h-520v-319h-364v319h-518z" />
<glyph unicode="&#x410;" horiz-adv-x="1593" d="M2 0l551 1466h494l551 -1466h-474l-72 242h-516l-71 -242h-463zM634 559h323l-162 527z" />
<glyph unicode="&#x411;" horiz-adv-x="1593" d="M152 0v1466h1234v-297h-782v-268h242q333 0 494 -117.5t161 -365.5q0 -203 -147.5 -310.5t-423.5 -107.5h-778zM604 315h232q213 0 213 154q0 135 -213 135h-232v-289z" />
<glyph unicode="&#x412;" horiz-adv-x="1593" d="M151 0v1466h848q212 0 325.5 -105t113.5 -260q0 -130 -81 -223q-54 -62 -158 -98q158 -38 232.5 -130.5t74.5 -232.5q0 -114 -53 -205t-145 -144q-57 -33 -172 -48q-153 -20 -203 -20h-782zM608 315h231q117 0 165 41.5t48 111.5q0 65 -47.5 104.5t-166.5 39.5h-230v-297 zM608 891h197q106 0 147.5 36.5t41.5 105.5q0 64 -41.5 100t-144.5 36h-200v-278z" />
<glyph unicode="&#x413;" d="M150 0v1466h1161v-360h-709v-1106h-452z" />
<glyph unicode="&#x414;" horiz-adv-x="1716" d="M23 -319v657h151q127 355 127 801v327h1229v-1128h158v-657h-365v319h-936v-319h-364zM610 338h467v768h-364v-19q0 -304 -103 -749z" />
<glyph unicode="&#x415;" horiz-adv-x="1479" d="M149 0v1466h1214v-313h-760v-233h705v-299h-705v-289h782v-332h-1236z" />
<glyph unicode="&#x416;" horiz-adv-x="2224" d="M-4 0l199 401q82 167 155.5 245.5t169.5 109.5q-71 29 -113 77.5t-77.5 147t-91.5 142.5t-172 44h-23v310q250 0 367 -26t168.5 -85.5t103.5 -196.5q69 -185 102 -224t93 -42v563h452v-563q59 3 92 42t103 224q51 137 103 196.5t169 85.5t367 26v-310h-23 q-116 0 -172 -44t-92 -142.5t-77.5 -147t-112.5 -77.5q97 -32 170 -110.5t155 -244.5l199 -401h-510l-176 379q-63 134 -98 167.5t-97 33.5v-580h-452v580q-63 0 -98 -33.5t-97 -167.5l-176 -379h-510z" />
<glyph unicode="&#x417;" horiz-adv-x="1409" d="M59 408l428 32q36 -153 205 -153q94 0 142.5 47t48.5 131q0 81 -61 131.5t-167 50.5h-123v262h97q87 0 136.5 45.5t49.5 126.5q0 119 -149 119q-154 0 -179 -137l-405 47q99 381 592 381q273 0 428 -106t155 -285q0 -216 -188 -303q264 -71 264 -332 q0 -215 -165.5 -352.5t-467.5 -137.5q-516 0 -641 433z" />
<glyph unicode="&#x418;" horiz-adv-x="1706" d="M151 0v1466h427v-811l552 811h423v-1466h-426v805l-549 -805h-427z" />
<glyph unicode="&#x419;" horiz-adv-x="1706" d="M151 0v1466h427v-811l552 811h423v-1466h-426v805l-549 -805h-427zM500 1827h174q42 -125 182 -125q150 0 191 125h174q-21 -126 -121.5 -203.5t-239.5 -77.5q-138 0 -239 78t-121 203z" />
<glyph unicode="&#x41a;" horiz-adv-x="1495" d="M150 0v1466h452v-563q59 3 92 42t103 224q51 137 103 196.5t169 85.5t367 26v-310h-23q-116 0 -172 -44t-92 -142.5t-77.5 -147t-113.5 -77.5q98 -32 171 -110.5t155 -244.5l199 -401h-510l-176 379q-63 134 -98 167.5t-97 33.5v-580h-452z" />
<glyph unicode="&#x41b;" horiz-adv-x="1647" d="M2 10v297h68q92 0 130 40.5t38 148.5v970h1259v-1466h-453v1106h-354v-451q0 -278 -29.5 -408.5t-138 -191.5t-350.5 -61q-74 0 -170 16z" />
<glyph unicode="&#x41c;" horiz-adv-x="1933" d="M145 0v1466h596l230 -892l229 892h594v-1466h-370v1118l-287 -1118h-335l-286 1118v-1118h-371z" />
<glyph unicode="&#x41d;" horiz-adv-x="1706" d="M152 0v1466h453v-513h495v513h455v-1466h-455v593h-495v-593h-453z" />
<glyph unicode="&#x41e;" horiz-adv-x="1706" d="M93 732q0 359 200 559t557 200q366 0 564 -196.5t198 -550.5q0 -257 -86.5 -421.5t-250 -256t-407.5 -91.5q-248 0 -410.5 79t-263.5 250t-101 428zM546 730q0 -222 82.5 -319t224.5 -97q146 0 226 95t80 341q0 207 -83.5 302.5t-226.5 95.5q-137 0 -220 -97t-83 -321z " />
<glyph unicode="&#x41f;" horiz-adv-x="1706" d="M152 0v1466h1402v-1466h-452v1106h-498v-1106h-452z" />
<glyph unicode="&#x420;" horiz-adv-x="1479" d="M148 0v1466h753q246 0 368.5 -117t122.5 -333q0 -222 -133.5 -347t-407.5 -125h-248v-544h-455zM603 841h111q131 0 184 45.5t53 116.5q0 69 -46 117t-173 48h-129v-327z" />
<glyph unicode="&#x421;" horiz-adv-x="1593" d="M97 736q0 364 193.5 559.5t547.5 195.5q277 0 435.5 -112t235.5 -344l-400 -89q-21 67 -44 98q-38 52 -93 80t-123 28q-154 0 -236 -124q-62 -92 -62 -289q0 -244 74 -334.5t208 -90.5q130 0 196.5 73t96.5 212l397 -120q-40 -167 -126 -279t-213.5 -169t-324.5 -57 q-239 0 -390.5 69.5t-261.5 244.5t-110 448z" />
<glyph unicode="&#x422;" horiz-adv-x="1479" d="M47 1104v362h1377v-362h-462v-1104h-453v1104h-462z" />
<glyph unicode="&#x423;" horiz-adv-x="1376" d="M12 1466h492l203 -604l200 604h461l-481 -1132q-59 -137 -103 -204.5t-130.5 -111t-237.5 -43.5q-80 0 -275 23v303q115 -12 168 -12q157 0 191 117z" />
<glyph unicode="&#x424;" horiz-adv-x="1892" d="M74 754q0 531 667 600v112h412v-112q668 -70 668 -600q0 -541 -668 -602v-152h-412v156q-667 57 -667 598zM516 752q0 -102 61.5 -183t163.5 -114v606q-101 -29 -163 -114.5t-62 -194.5zM1153 459q107 31 166 110.5t59 190.5q0 106 -60.5 190.5t-164.5 118.5v-610z" />
<glyph unicode="&#x425;" horiz-adv-x="1593" d="M3 0l506 764l-460 702h499l260 -451l252 451h494l-456 -710l499 -756h-509l-289 471l-290 -471h-506z" />
<glyph unicode="&#x426;" horiz-adv-x="1761" d="M152 0v1466h452v-1106h498v1106h452v-1128h158v-657h-364v319h-1196z" />
<glyph unicode="&#x427;" horiz-adv-x="1647" d="M135 926v540h453v-450q0 -107 51 -165t147 -58q178 0 258 106v567h453v-1466h-453v545q-208 -115 -395 -115q-224 0 -369 132.5t-145 363.5z" />
<glyph unicode="&#x428;" horiz-adv-x="2273" d="M152 0v1466h452v-1106h305v1106h453v-1106h309v1106h453v-1466h-1972z" />
<glyph unicode="&#x429;" horiz-adv-x="2331" d="M152 0v1466h452v-1106h305v1106h453v-1106h309v1106h453v-1128h157v-657h-364v319h-1765z" />
<glyph unicode="&#x42a;" horiz-adv-x="2052" d="M51 1169v297h1020v-575h242q655 0 655 -473q0 -149 -93 -263t-268 -134.5t-210 -20.5h-779v1169h-567zM1071 315h232q213 0 213 154q0 145 -213 145h-232v-299z" />
<glyph unicode="&#x42b;" horiz-adv-x="2216" d="M152 0v1466h452v-565h242q333 0 494 -117.5t161 -365.5q0 -203 -147.5 -310.5t-423.5 -107.5h-778zM604 315h232q213 0 213 154q0 135 -213 135h-232v-289zM1612 0v1466h454v-1466h-454z" />
<glyph unicode="&#x42c;" horiz-adv-x="1585" d="M152 0v1466h452v-565h242q333 0 494 -117.5t161 -365.5q0 -203 -147.5 -310.5t-423.5 -107.5h-778zM604 315h232q213 0 213 154q0 135 -213 135h-232v-289z" />
<glyph unicode="&#x42d;" horiz-adv-x="1630" d="M63 426l426 115q62 -226 285 -226q260 0 297 281h-442v272h444q-43 283 -301 283q-201 0 -268 -184l-408 155q182 369 676 369q367 0 564.5 -196t197.5 -552q0 -371 -195 -569.5t-548 -198.5q-318 0 -489 125.5t-239 325.5z" />
<glyph unicode="&#x42e;" horiz-adv-x="2372" d="M152 0v1466h452v-514h176q59 263 247 401t486 138q367 0 564.5 -196t197.5 -552q0 -371 -195 -569.5t-548 -198.5q-371 0 -553 176.5t-213 440.5h-162v-592h-452zM1210 729q0 -414 306 -414q151 0 229 97.5t78 337.5q0 401 -310 401q-303 0 -303 -422z" />
<glyph unicode="&#x42f;" horiz-adv-x="1597" d="M4 0h512l242 448q46 87 82 113q49 34 111 34h40v-595h455v1466h-755q-210 0 -321 -36t-179 -133.5t-68 -237.5q0 -122 52 -210.5t143 -143.5q58 -35 159 -58q-81 -27 -118 -54q-25 -18 -72.5 -77t-63.5 -91zM578 1023q0 71 45 109t169 38h199v-298h-191q-31 0 -120 20 q-45 9 -73.5 46t-28.5 85z" />
<glyph unicode="&#x430;" d="M73 281q0 121 71 199t262 116q229 46 297 64.5t144 48.5q0 75 -31 105t-109 30q-100 0 -150 -32q-39 -25 -63 -94l-389 41q22 102 63.5 160.5t119.5 101.5q56 31 154 48t212 17q183 0 294 -20.5t185 -85.5q52 -45 82 -127.5t30 -157.5v-469q0 -75 9.5 -117.5t41.5 -108.5 h-382q-23 41 -30 62.5t-14 67.5q-80 -77 -159 -110q-108 -44 -251 -44q-190 0 -288.5 88t-98.5 217zM481 311q0 -48 33.5 -78.5t98.5 -30.5q68 0 126.5 33t83 80.5t24.5 123.5v65q-84 -30 -175 -53q-124 -33 -157 -65q-34 -33 -34 -75z" />
<glyph unicode="&#x431;" d="M74 676q0 344 132 556t380 220l123 4q165 7 182 43h323q0 -291 -327 -303q-221 -8 -300 -43.5t-108 -122.5q73 55 201 55q299 0 455.5 -157.5t156.5 -392.5q0 -233 -155.5 -396.5t-456.5 -163.5q-300 0 -453 164.5t-153 536.5zM481 528q0 -129 51.5 -201.5t149.5 -72.5 t150.5 72t52.5 206q0 133 -54 204t-145 71q-101 0 -153 -77.5t-52 -201.5z" />
<glyph unicode="&#x432;" horiz-adv-x="1260" d="M123 0v1061h655q178 0 271.5 -68t93.5 -190q0 -86 -61 -149.5t-158 -84.5v-4q121 -12 192.5 -80t71.5 -182q0 -152 -100 -227.5t-359 -75.5h-606zM530 250h134q50 0 81 23t31 67q0 96 -112 96h-134v-186zM530 657h103q102 0 102 93q0 75 -108 75h-97v-168z" />
<glyph unicode="&#x433;" horiz-adv-x="1040" d="M137 0v1061h860v-297h-452v-764h-408z" />
<glyph unicode="&#x434;" horiz-adv-x="1356" d="M14 297h103q112 200 112 524v240h990v-764h112v-600h-282v303h-752v-303h-283v600zM520 297h291v467h-195v-12q0 -221 -96 -455z" />
<glyph unicode="&#x435;" d="M72 529q0 249 159.5 403t440.5 154q228 0 360 -69t201 -200t69 -341v-46h-816q11 -98 53 -146q59 -69 154 -69q60 0 114 30q33 19 71 67l401 -37q-92 -160 -222 -229.5t-373 -69.5q-211 0 -332 59.5t-200.5 189t-79.5 304.5zM487 625h401q-12 118 -63.5 169t-135.5 51 q-97 0 -155 -77q-37 -48 -47 -143z" />
<glyph unicode="&#x436;" horiz-adv-x="1892" d="M8 0l180 319q72 128 124 169.5t159 50.5q-53 10 -89 40t-75 102t-82 88.5t-131 16.5h-18v289q209 0 299.5 -17.5t140 -72t95.5 -158.5t65 -124.5t65 -24.5v383h408v-383q46 4 65 24.5t65 124.5t95.5 158.5t140.5 72t300 17.5v-289h-19q-87 0 -130.5 -16.5t-82.5 -88.5 t-75 -102t-89 -40q102 -9 154.5 -47t128.5 -173l180 -319h-459l-143 293q-35 73 -59.5 89.5t-71.5 16.5v-399h-408v399q-46 0 -70.5 -16t-60.5 -90l-143 -293h-459z" />
<glyph unicode="&#x437;" horiz-adv-x="1389" d="M76 354l387 43q20 -56 82.5 -99.5t142.5 -43.5q205 0 205 102q0 35 -39 56.5t-102 21.5h-177v209h181q53 0 97 22t44 56q0 38 -51.5 62t-143.5 24q-90 0 -152 -37.5t-79 -89.5l-375 51q55 181 201 267.5t403 86.5q267 0 418.5 -87t151.5 -220q0 -160 -164 -229 q95 -30 151 -93.5t56 -140.5q0 -166 -159 -253t-464 -87q-256 0 -402.5 94.5t-211.5 284.5z" />
<glyph unicode="&#x438;" horiz-adv-x="1446" d="M137 0v1061h385v-529l404 529h383v-1061h-385v522l-400 -522h-387z" />
<glyph unicode="&#x439;" horiz-adv-x="1446" d="M137 0v1061h385v-529l404 529h383v-1061h-385v522l-400 -522h-387zM369 1491h172q30 -107 168 -107q76 0 119.5 21.5t58.5 85.5h164q-3 -145 -101 -223t-233 -78q-158 0 -247 79.5t-101 221.5z" />
<glyph unicode="&#x43a;" horiz-adv-x="1315" d="M123 0v1061h407v-383q50 5 74 33t69.5 123t81.5 139t92 66t140 28t250 6v-289h-18q-82 0 -125 -6.5t-69 -27.5t-60 -86t-56.5 -90.5t-66.5 -34.5q85 -8 131 -36.5t139 -183.5l193 -319h-459l-156 293q-37 70 -72.5 88t-87.5 18v-399h-407z" />
<glyph unicode="&#x43b;" horiz-adv-x="1466" d="M27 0v301q72 -22 110 -22q82 0 82 122v660h1124v-1061h-407v764h-309v-445q0 -178 -72.5 -264t-222.5 -86q-170 0 -305 31z" />
<glyph unicode="&#x43c;" horiz-adv-x="1733" d="M137 0v1061h486l254 -610l233 610h485v-1061h-344v666l-252 -666h-245l-273 666v-666h-344z" />
<glyph unicode="&#x43d;" horiz-adv-x="1460" d="M137 0v1061h408v-363h370v363h408v-1061h-408v401h-370v-401h-408z" />
<glyph unicode="&#x43e;" d="M73 528q0 243 164 400.5t443 157.5q319 0 482 -185q131 -149 131 -367q0 -245 -162.5 -401.5t-449.5 -156.5q-256 0 -414 130q-194 161 -194 422zM481 529q0 -142 57.5 -210t144.5 -68q88 0 144.5 67t56.5 215q0 138 -57 205.5t-141 67.5q-89 0 -147 -68.5t-58 -208.5z " />
<glyph unicode="&#x43f;" d="M119 0v1061h1124v-1061h-407v764h-310v-764h-407z" />
<glyph unicode="&#x440;" d="M125 -404v1466h381v-157q79 99 145 134q89 47 197 47q213 0 329.5 -163t116.5 -403q0 -265 -127 -404.5t-321 -139.5q-94 0 -171.5 32t-138.5 95v-507h-411zM533 528q0 -126 53 -187t134 -61q71 0 119 58.5t48 198.5q0 129 -50 189.5t-122 60.5q-78 0 -130 -61t-52 -198z " />
<glyph unicode="&#x441;" d="M74 526q0 164 56 273q41 80 112 143.5t146 94.5q119 49 305 49q260 0 396.5 -93t191.5 -272l-383 -51q-18 68 -65.5 102.5t-127.5 34.5q-101 0 -163.5 -72.5t-62.5 -219.5q0 -131 62 -199t158 -68q80 0 134.5 41t81.5 126l387 -44q-32 -121 -105 -209.5t-186.5 -137.5 t-288.5 -49q-169 0 -281.5 31.5t-193.5 102t-127 165.5t-46 252z" />
<glyph unicode="&#x442;" horiz-adv-x="1040" d="M20 764v297h998v-297h-295v-764h-408v764h-295z" />
<glyph unicode="&#x443;" horiz-adv-x="1251" d="M5 1062h430l219 -707l203 707h401l-421 -1135q-72 -194 -147 -262q-106 -96 -323 -96q-88 0 -272 24l-32 284q88 -28 196 -28q72 0 116.5 33t75.5 118z" />
<glyph unicode="&#x444;" horiz-adv-x="2075" d="M76 547q0 246 121 392t327 146q195 0 310 -135v516h407v-512q122 131 311 131q205 0 326 -158.5t121 -412.5q0 -246 -121 -392.5t-328 -146.5q-196 0 -309 127v-508h-407v506q-128 -125 -312 -125q-204 0 -325 158.5t-121 413.5zM483 539q0 -263 172 -263 q76 0 129.5 57.5t53.5 201.5q0 107 -48 178t-141 71q-79 0 -122.5 -66.5t-43.5 -178.5zM1237 526q0 -107 48 -178.5t140 -71.5q80 0 123 67t43 179q0 262 -172 262q-75 0 -128.5 -57t-53.5 -201z" />
<glyph unicode="&#x445;" d="M11 0l386 556l-366 506h483l169 -296l196 296h449l-362 -506l388 -556h-475l-196 342l-231 -342h-441z" />
<glyph unicode="&#x446;" horiz-adv-x="1413" d="M117 0v1061h407v-764h310v764h407v-764h156v-600h-283v303h-997z" />
<glyph unicode="&#x447;" horiz-adv-x="1356" d="M115 707v354h407v-291q0 -72 33 -113t92 -41q114 0 184 93v352h408v-1061h-408v391q-154 -92 -333 -92q-383 0 -383 408z" />
<glyph unicode="&#x448;" horiz-adv-x="1944" d="M117 0v1061h407v-764h228v764h407v-764h227v764h408v-1061h-1677z" />
<glyph unicode="&#x449;" horiz-adv-x="1970" d="M117 0v1061h407v-764h228v764h407v-764h227v764h408v-764h156v-600h-283v303h-1550z" />
<glyph unicode="&#x44a;" horiz-adv-x="1579" d="M8 764v297h840v-377h186q471 0 471 -344q0 -340 -458 -340h-607v764h-432zM848 250h133q50 0 81.5 23t31.5 67q0 96 -113 96h-133v-186z" />
<glyph unicode="&#x44b;" horiz-adv-x="1862" d="M137 0v1061h408v-377h186q471 0 471 -344q0 -340 -459 -340h-606zM545 250h133q50 0 81.5 23t31.5 67q0 96 -113 96h-133v-186zM1318 0v1062h407v-1062h-407z" />
<glyph unicode="&#x44c;" horiz-adv-x="1272" d="M137 0v1061h408v-377h186q471 0 471 -344q0 -340 -459 -340h-606zM545 250h133q50 0 81.5 23t31.5 67q0 96 -113 96h-133v-186z" />
<glyph unicode="&#x44d;" d="M63 375l388 43q49 -164 217 -164q171 0 209 170h-314v209h307q-44 174 -211 174q-160 0 -192 -137l-383 51q57 187 198 275.5t390 88.5q185 0 306 -48.5t217.5 -174t96.5 -336.5q0 -249 -152 -400t-497 -151q-471 0 -580 400z" />
<glyph unicode="&#x44e;" horiz-adv-x="1997" d="M137 0v1061h408v-363h184q55 185 206 286t376 101q298 0 455 -157.5t157 -392.5q0 -233 -156 -396.5t-456 -163.5q-237 0 -391 113t-201 313h-174v-401h-408zM1112 528q0 -129 51 -201.5t150 -72.5q98 0 150.5 72t52.5 206q0 133 -54 204t-145 71q-101 0 -153 -77.5 t-52 -201.5z" />
<glyph unicode="&#x44f;" horiz-adv-x="1278" d="M2 0l158 307q70 137 184 150q-129 20 -196.5 107.5t-67.5 191.5q0 103 51.5 182.5t150 101t248.5 21.5h625v-1061h-407v412h-15q-43 0 -67.5 -23.5t-49.5 -71.5l-163 -317h-451zM487 737q0 -84 148 -84h113v166h-127q-90 0 -112 -21.5t-22 -60.5z" />
<glyph unicode="&#x451;" d="M72 529q0 249 159.5 403t440.5 154q228 0 360 -69t201 -200t69 -341v-46h-816q11 -98 53 -146q59 -69 154 -69q60 0 114 30q33 19 71 67l401 -37q-92 -160 -222 -229.5t-373 -69.5q-211 0 -332 59.5t-200.5 189t-79.5 304.5zM340 1196v250h260v-250h-260zM487 625h401 q-12 118 -63.5 169t-135.5 51q-97 0 -155 -77q-37 -48 -47 -143zM764 1196v250h263v-250h-263z" />
<glyph unicode="&#x452;" horiz-adv-x="1384" d="M20 1186v186h119v94h408v-94h244v-186h-244v-260q143 159 360 159q177 0 267 -106.5t90 -302.5v-623q0 -166 -21 -255t-99.5 -148.5t-234.5 -59.5q-124 0 -293 35l62 295q54 -10 72 -10q50 0 78 35.5t28 142.5v496q0 184 -143 184q-79 0 -122.5 -58.5t-43.5 -199.5v-510 h-408v1186h-119z" />
<glyph unicode="&#x453;" horiz-adv-x="909" d="M127 0v1062h381v-174q55 113 113.5 155.5t144.5 42.5q90 0 197 -56l-126 -290q-72 30 -114 30q-80 0 -124 -66q-63 -93 -63 -348v-356h-409zM344 1192l168 299h350l-323 -299h-195z" />
<glyph unicode="&#x454;" d="M74 526q0 200 85 321t207.5 179.5t327.5 58.5q249 0 390 -88.5t198 -275.5l-383 -51q-32 137 -192 137q-167 0 -211 -174h307v-209h-314q38 -170 209 -170q168 0 217 164l388 -43q-109 -400 -580 -400q-345 0 -497 151t-152 400z" />
<glyph unicode="&#x455;" horiz-adv-x="1251" d="M51 294l404 38q25 -72 70 -103t120 -31q82 0 127 35q35 26 35 65q0 44 -46 68q-33 17 -175 42q-212 37 -294.5 68.5t-139 106.5t-56.5 171q0 105 61 181t168 113.5t287 37.5q190 0 280.5 -29t151 -90t100.5 -165l-386 -38q-15 51 -50 75q-48 32 -116 32 q-69 0 -100.5 -24.5t-31.5 -59.5q0 -39 40 -59t174 -36q203 -23 302 -64t151.5 -117t52.5 -167q0 -92 -55.5 -179t-175 -138.5t-325.5 -51.5q-291 0 -414.5 83t-158.5 236z" />
<glyph unicode="&#x456;" horiz-adv-x="682" d="M138 0v1062h407v-1062h-407zM138 1189v277h407v-277h-407z" />
<glyph unicode="&#x457;" horiz-adv-x="682" d="M-2 1196v250h260v-250h-260zM138 0v1062h407v-1062h-407zM422 1196v250h263v-250h-263z" />
<glyph unicode="&#x458;" horiz-adv-x="682" d="M-100 -396l61 296q49 -10 72 -10q52 0 79 35.5t27 141.5v995h408v-1030q0 -197 -28.5 -279t-105.5 -133t-220 -51q-118 0 -293 35zM139 1186v280h408v-280h-408z" />
<glyph unicode="&#x459;" horiz-adv-x="2071" d="M27 0v301q72 -22 110 -22q82 0 82 122v660h1124v-377h187q471 0 471 -344q0 -340 -459 -340h-606v764h-309v-445q0 -178 -72.5 -264t-222.5 -86q-170 0 -305 31zM1343 250h134q50 0 81 23t31 67q0 96 -112 96h-134v-186z" />
<glyph unicode="&#x45a;" horiz-adv-x="2095" d="M137 0v1061h408v-363h411v363h408v-377h186q471 0 471 -344q0 -340 -458 -340h-607v401h-411v-401h-408zM1364 250h133q50 0 81.5 23t31.5 67q0 96 -113 96h-133v-186z" />
<glyph unicode="&#x45b;" horiz-adv-x="1384" d="M20 1186v186h119v94h408v-94h244v-186h-244v-260q143 159 360 159q177 0 267 -106.5t90 -302.5v-676h-408v584q0 184 -143 184q-79 0 -122.5 -58.5t-43.5 -199.5v-510h-408v1186h-119z" />
<glyph unicode="&#x45c;" horiz-adv-x="1315" d="M123 0v1061h407v-383q50 5 74 33t69.5 123t81.5 139t92 66t140 28t250 6v-289h-18q-82 0 -125 -6.5t-69 -27.5t-60 -86t-56.5 -90.5t-66.5 -34.5q85 -8 131 -36.5t139 -183.5l193 -319h-459l-156 293q-37 70 -72.5 88t-87.5 18v-399h-407zM507 1192l168 299h350 l-323 -299h-195z" />
<glyph unicode="&#x45e;" horiz-adv-x="1251" d="M5 1062h430l219 -707l203 707h401l-421 -1135q-72 -194 -147 -262q-106 -96 -323 -96q-88 0 -272 24l-32 284q88 -28 196 -28q72 0 116.5 33t75.5 118zM270 1491h172q30 -107 168 -107q77 0 120 21.5t58 85.5h164q-2 -145 -100 -223t-234 -78q-157 0 -246.5 79.5 t-101.5 221.5z" />
<glyph unicode="&#x45f;" d="M119 0v1061h407v-764h310v764h407v-1061h-422v-303h-282v303h-420z" />
<glyph unicode="&#x490;" horiz-adv-x="1137" d="M150 0v1466h587v297h365v-657h-500v-1106h-452z" />
<glyph unicode="&#x491;" horiz-adv-x="958" d="M137 0v1061h525v303h262v-600h-379v-764h-408z" />
<glyph unicode="&#x1e80;" horiz-adv-x="2048" d="M-1 1466h430l155 -819l226 819h429l227 -819l155 819h428l-323 -1466h-444l-257 923l-256 -923h-444zM753 1871h347l164 -298h-192z" />
<glyph unicode="&#x1e81;" horiz-adv-x="1933" d="M3 1062h394l171 -669l216 669h367l224 -669l171 669h391l-391 -1062h-362l-215 639l-208 -639h-364zM677 1491h347l164 -298h-192z" />
<glyph unicode="&#x1e82;" horiz-adv-x="2048" d="M-1 1466h430l155 -819l226 819h429l227 -819l155 819h428l-323 -1466h-444l-257 923l-256 -923h-444zM811 1568l168 299h350l-323 -299h-195z" />
<glyph unicode="&#x1e83;" horiz-adv-x="1933" d="M3 1062h394l171 -669l216 669h367l224 -669l171 669h391l-391 -1062h-362l-215 639l-208 -639h-364zM779 1192l168 299h350l-323 -299h-195z" />
<glyph unicode="&#x1e84;" horiz-adv-x="2048" d="M-1 1466h430l155 -819l226 819h429l227 -819l155 819h428l-323 -1466h-444l-257 923l-256 -923h-444zM686 1568v250h260v-250h-260zM1110 1568v250h263v-250h-263z" />
<glyph unicode="&#x1e85;" horiz-adv-x="1933" d="M3 1062h394l171 -669l216 669h367l224 -669l171 669h391l-391 -1062h-362l-215 639l-208 -639h-364zM622 1196v250h260v-250h-260zM1046 1196v250h263v-250h-263z" />
<glyph unicode="&#x1ef2;" horiz-adv-x="1593" d="M2 1466h503l296 -495l296 495h500l-570 -852v-614h-454v614zM469 1867h347l164 -298h-192z" />
<glyph unicode="&#x1ef3;" horiz-adv-x="1251" d="M5 1062h430l219 -707l203 707h401l-421 -1135q-72 -194 -147 -262q-106 -96 -323 -96q-88 0 -272 24l-32 284q88 -28 196 -28q72 0 116.5 33t75.5 118zM341 1491h347l164 -298h-192z" />
<glyph unicode="&#x2000;" horiz-adv-x="1109" />
<glyph unicode="&#x2001;" horiz-adv-x="2219" />
<glyph unicode="&#x2002;" horiz-adv-x="1109" />
<glyph unicode="&#x2003;" horiz-adv-x="2219" />
<glyph unicode="&#x2004;" horiz-adv-x="739" />
<glyph unicode="&#x2005;" horiz-adv-x="554" />
<glyph unicode="&#x2006;" horiz-adv-x="369" />
<glyph unicode="&#x2007;" horiz-adv-x="369" />
<glyph unicode="&#x2008;" horiz-adv-x="277" />
<glyph unicode="&#x2009;" horiz-adv-x="443" />
<glyph unicode="&#x200a;" horiz-adv-x="123" />
<glyph unicode="&#x2010;" horiz-adv-x="682" d="M45 377v315h592v-315h-592z" />
<glyph unicode="&#x2011;" horiz-adv-x="682" d="M45 377v315h592v-315h-592z" />
<glyph unicode="&#x2012;" horiz-adv-x="682" d="M45 377v315h592v-315h-592z" />
<glyph unicode="&#x2013;" horiz-adv-x="1024" d="M-12 424v222h1048v-222h-1048z" />
<glyph unicode="&#x2014;" horiz-adv-x="2048" d="M-12 424v222h2072v-222h-2072z" />
<glyph unicode="&#x2018;" horiz-adv-x="569" d="M70 675v335q0 185 77 292t264 189l94 -178q-115 -54 -159 -107.5t-49 -126.5h208v-404h-435z" />
<glyph unicode="&#x2019;" horiz-adv-x="569" d="M70 853q116 54 159.5 107.5t48.5 126.5h-208v404h435v-335q0 -185 -77 -292.5t-263 -188.5z" />
<glyph unicode="&#x201a;" horiz-adv-x="569" d="M70 0v404h435v-335q0 -185 -77 -292t-263 -189l-95 178q116 54 159.5 107.5t48.5 126.5h-208z" />
<glyph unicode="&#x201c;" horiz-adv-x="1024" d="M55 675v335q0 185 77 292t264 189l94 -178q-115 -54 -159 -107.5t-49 -126.5h208v-404h-435zM562 675v335q0 185 77 292t264 189l94 -178q-115 -54 -159 -107.5t-49 -126.5h208v-404h-435z" />
<glyph unicode="&#x201d;" horiz-adv-x="1024" d="M55 853q116 54 159.5 107.5t48.5 126.5h-208v404h435v-335q0 -185 -77 -292.5t-263 -188.5zM562 853q116 54 159.5 107.5t48.5 126.5h-208v404h435v-335q0 -185 -77 -292.5t-263 -188.5z" />
<glyph unicode="&#x201e;" horiz-adv-x="1024" d="M55 0v404h435v-335q0 -185 -77 -292t-263 -189l-95 178q116 54 159.5 107.5t48.5 126.5h-208zM562 0v404h435v-335q0 -185 -77 -292t-263 -189l-95 178q116 54 159.5 107.5t48.5 126.5h-208z" />
<glyph unicode="&#x2020;" d="M141 790v296h370v380h352v-380h374v-296h-374v-1197h-352v1197h-370z" />
<glyph unicode="&#x2021;" d="M141 -73v296h370v612h-370v297h370v334h352v-334h374v-297h-374v-612h374v-296h-374v-334h-352v334h-370z" />
<glyph unicode="&#x2022;" horiz-adv-x="1024" d="M180 721q0 138 97 235t235 97t235 -97t97 -235q0 -137 -97 -234.5t-235 -97.5t-235 97.5t-97 234.5z" />
<glyph unicode="&#x2026;" horiz-adv-x="2048" d="M124 0v408h435v-408h-435zM807 0v408h435v-408h-435zM1489 0v408h435v-408h-435z" />
<glyph unicode="&#x202f;" horiz-adv-x="443" />
<glyph unicode="&#x2030;" horiz-adv-x="2048" d="M0 1105q0 200 83.5 293t219.5 93t220 -92.5t84 -282.5q0 -210 -83.5 -303t-220.5 -93q-136 0 -219.5 93t-83.5 292zM211 1105q0 -148 26 -188t65 -40q40 0 66 40t26 188t-26 188t-66 40q-39 0 -65 -40t-26 -188zM304 -74l570 1565h180l-572 -1565h-178zM743 312 q0 200 83.5 293t219.5 93t220 -93t84 -283q0 -209 -83.5 -302.5t-220.5 -93.5q-136 0 -219.5 93.5t-83.5 292.5zM954 311q0 -148 26 -188t66 -40q39 0 65 40t26 188t-26 188.5t-65 40.5q-40 0 -66 -40.5t-26 -188.5zM1442 312q0 200 83.5 293t219.5 93q135 0 219 -93 t84 -283q0 -209 -83 -302.5t-220 -93.5q-136 0 -219.5 93.5t-83.5 292.5zM1652 311q0 -148 26 -188t66 -40t66 40t26 188t-26 188.5t-66 40.5t-66 -40.5t-26 -188.5z" />
<glyph unicode="&#x2039;" horiz-adv-x="682" d="M23 533l319 463h312l-277 -463l277 -462h-312z" />
<glyph unicode="&#x203a;" horiz-adv-x="682" d="M28 71h312l319 462l-319 463h-312l277 -463z" />
<glyph unicode="&#x2044;" horiz-adv-x="342" d="M-397 -53l920 1544h215l-922 -1544h-213z" />
<glyph unicode="&#x205f;" horiz-adv-x="554" />
<glyph unicode="&#x20ac;" d="M18 502l48 182h110q-2 15 -2 53q0 40 2 58h-133l47 182h109q130 514 714 514q191 0 387 -102l-90 -363q-136 125 -284 125q-194 0 -262 -174h360l-43 -182h-352q-2 -20 -2 -58v-53h372l-43 -182h-303q59 -187 256 -187q216 0 404 140v-373q-156 -107 -377 -107 q-357 0 -528 163t-209 364h-181z" />
<glyph unicode="&#x2122;" horiz-adv-x="1946" d="M36 1272v194h801v-194h-285v-621h-235v621h-281zM930 651v815h357l113 -445l119 445h346v-815h-221v576l-153 -576h-185l-151 576v-576h-225z" />
<glyph unicode="&#x2202;" horiz-adv-x="1024" d="M85 293q0 130 61.5 252.5t151.5 211t185.5 133t188.5 44.5q164 0 236 -150q8 82 8 127q0 171 -116 265q-71 58 -197 58q-81 0 -131.5 -20t-94.5 -64h-42q52 146 142.5 215t205.5 69q152 0 223 -102t71 -291q0 -360 -106 -620.5t-238 -365.5q-97 -78 -232 -78 q-97 0 -169 39.5t-109.5 117t-37.5 159.5zM341 212q0 -97 30 -132.5t89 -35.5q99 0 200 117q166 195 232 530q-34 103 -89.5 147.5t-124.5 44.5q-70 0 -136 -61q-86 -80 -143.5 -262t-57.5 -348z" />
<glyph unicode="&#x2206;" horiz-adv-x="1253" d="M26 0l628 1387l572 -1387h-1200zM151 82h839l-399 967z" />
<glyph unicode="&#x220f;" horiz-adv-x="1685" d="M46 -394h35q88 0 125.5 36t37.5 119v1538q0 83 -37 119t-126 36h-35v37h1594v-37h-35q-88 0 -125 -36t-37 -119v-1538q0 -83 37 -119t125 -36h35v-37h-597v37h35q88 0 125 36t37 119v1652h-795v-1652q0 -83 37 -119t125 -36h36v-37h-597v37z" />
<glyph unicode="&#x2211;" horiz-adv-x="1460" d="M43 -395l669 932l-669 917v37h1278l27 -336h-40q-16 137 -77.5 196.5t-171.5 59.5h-740l562 -788l-629 -878h818q70 0 153 28q57 18 94.5 66.5t62.5 152.5l40 -8l-64 -415h-1313v36z" />
<glyph unicode="&#x221a;" horiz-adv-x="1124" d="M84 916l301 151l405 -823l260 1625h74l-312 -1947l-496 1021l-198 -91z" />
<glyph unicode="&#x221e;" horiz-adv-x="1195" d="M19 733q0 136 70.5 214t171.5 78q71 0 149 -44t138 -127q74 121 151 174.5t172 53.5q132 0 219.5 -93.5t87.5 -255.5t-87.5 -255.5t-219.5 -93.5q-94 0 -171 53t-152 175q-60 -84 -138 -128t-149 -44q-101 0 -171.5 78.5t-70.5 214.5zM159 738q0 -68 33 -106t80 -38 q39 0 70 21q54 36 120 122q-100 141 -190 141q-46 0 -79.5 -37t-33.5 -103zM641 735q67 -103 94 -134.5t62.5 -50t76.5 -18.5q76 0 117 59t41 146q0 94 -45 146t-110 52q-54 0 -106 -39t-130 -161z" />
<glyph unicode="&#x222b;" horiz-adv-x="555" d="M-3 -99q0 45 25.5 72t64.5 27q40 0 69 -32t49 -32q17 0 28 14t11 47q0 42 -9 120q-37 315 -37 831l18 548q9 113 31.5 187t45.5 104.5t62.5 53t76.5 22.5q50 0 87.5 -33.5t37.5 -73.5q0 -47 -26.5 -75.5t-65.5 -28.5q-35 0 -76 36q-23 20 -40 20t-28.5 -14.5t-11.5 -49.5 q0 -42 9 -145q37 -410 37 -665q0 -67 -14 -526q-5 -164 -20 -256q-20 -122 -52 -175t-70.5 -75t-83.5 -22q-52 0 -85 34t-33 87z" />
<glyph unicode="&#x2248;" horiz-adv-x="1352" d="M99 251v329q93 83 174 117.5t177 34.5q49 0 103 -15.5t158.5 -66t148.5 -63.5t83 -13q134 0 303 157v-326q-115 -92 -186 -123t-147 -31q-58 0 -116.5 17t-183 80t-196.5 63q-154 0 -318 -160zM99 733v329q93 83 174 118t177 35q49 0 103 -15.5t158.5 -66.5t148.5 -63.5 t83 -12.5q134 0 303 156v-325q-115 -93 -186 -123.5t-147 -30.5q-58 0 -116.5 17t-183 80t-196.5 63q-154 0 -318 -161z" />
<glyph unicode="&#x2260;" horiz-adv-x="1352" d="M98 325v324h403l65 168h-468v324h595l202 515h276l-201 -515h275v-324h-399l-67 -168h466v-324h-593l-203 -517h-279l203 517h-275z" />
<glyph unicode="&#x2264;" horiz-adv-x="1352" d="M98 -124v324h1149v-324h-1149zM98 743v294l1149 475v-350l-703 -271l703 -268v-350z" />
<glyph unicode="&#x2265;" horiz-adv-x="1352" d="M105 -124h1149v324h-1149v-324zM105 273l1149 470v294l-1149 475v-350l703 -271l-703 -268v-350z" />
<glyph unicode="&#x25ca;" horiz-adv-x="1012" d="M47 709l391 713h111l418 -713l-418 -709h-111zM155 709l340 -615l359 615l-359 616z" />
<glyph unicode="&#x25fc;" horiz-adv-x="1060" d="M0 0v1060h1060v-1060h-1060z" />
<glyph unicode="&#xfb01;" d="M20 764v298h132v48q0 60 13.5 140.5t54.5 132t113 80t175 28.5q78 0 283 -23l-45 -245q-72 10 -103 10q-66 0 -93.5 -30t-27.5 -117v-24h182v-298h-182v-764h-370v764h-132zM871 0v1062h371v-1062h-371zM871 1189v277h371v-277h-371z" />
<glyph unicode="&#xfb02;" d="M20 764v298h132v48q0 60 13.5 140.5t54.5 132t113 80t175 28.5q78 0 283 -23l-45 -245q-72 10 -103 10q-66 0 -93.5 -30t-27.5 -117v-24h182v-298h-182v-764h-370v764h-132zM871 0v1466h371v-1466h-371z" />
</font>
</defs>
</svg>
