<?xml version="1.0" standalone="no"?>
<!DOCTYPE svg PUBLIC "-//W3C//DTD SVG 1.1//EN" "http://www.w3.org/Graphics/SVG/1.1/DTD/svg11.dtd" >
<svg xmlns="http://www.w3.org/2000/svg">
<metadata>Generated by IcoMoon</metadata>
<defs>
<font id="icomoon" horiz-adv-x="1024">
<font-face units-per-em="1024" ascent="960" descent="-64" />
<missing-glyph horiz-adv-x="1024" />
<glyph unicode="&#x20;" horiz-adv-x="512" d="" />
<glyph unicode="&#xe900;" glyph-name="attachment-file-button" d="M916.771 543.981h11.168c43.327-1.12 74.014 25.823 84.669 49.694 11.552 23.679 11.2 43.583 11.328 46.271l0.064 127.996c-0.224 2.688 0.192 22.623-11.36 46.335-10.56 23.871-41.247 50.75-84.669 49.63-64.030 0.064-703.978 0.064-703.978 0.032-2.656-0.128-54.59 0.256-110.333-27.359-55.902-26.591-114.748-89.309-113.66-196.602-1.12-107.293 57.726-170.107 113.628-196.634 55.774-27.615 107.709-27.231 110.365-27.359h240.728c-10.656-30.047-16.735-62.238-16.735-95.997 0-159.067 128.86-287.927 287.991-287.991 159.067 0.064 287.927 128.924 287.991 287.991-0.032 90.557-41.887 171.259-107.197 223.993zM223.993 479.919c0 0-9.024-0.064-24.703 2.624-23.743 3.808-58.91 14.048-86.013 36.863-26.975 23.071-48.798 56.574-49.31 120.572 1.12 84.669 38.239 117.916 78.366 139.388 20.159 10.080 41.215 15.424 56.958 17.983 15.648 2.624 24.703 2.368 24.703 2.624 0 0 639.98 0 703.978 0 20.671-1.12 21.951-6.24 27.359-14.368 2.016-4.16 3.424-9.152 4.064-12.928 0.64-3.744 0.352-4.736 0.576-4.736l-0.064-127.996c0.064 0 0.128-0.992-0.576-4.736-0.832-5.728-3.584-13.92-7.616-18.495-4.32-4.448-7.776-8.256-23.775-8.768-22.495 0-100.413 0.032-191.898 0.032-0.032 0-0.032 0-0.064 0s-0.032 0-0.064 0c-168.635 0-383.54 0-383.924-0.032-20.703 1.12-21.951 6.24-27.359 14.304-2.112 4.224-3.488 9.216-4.064 12.96-0.704 3.744-0.352 4.768-0.608 4.768 1.12 20.671 6.24 21.919 14.368 27.327 4.16 2.112 9.184 3.488 12.928 4.096s4.736 0.32 4.736 0.512h511.984v63.998h-511.984c-2.656-0.128-22.623 0.256-46.271-11.328-23.935-10.56-50.846-41.343-49.726-84.605 0.128-2.688-0.256-22.591 11.328-46.271 10.56-23.903 41.343-50.846 84.669-49.726 0 0 92.157 0 203.13 0-22.623-18.239-42.431-39.839-58.654-64.062h-272.471zM735.977 99.739c-121.628 0.288-220.025 98.685-220.313 220.249 0.288 121.628 98.685 220.025 220.313 220.281 121.564-0.256 219.961-98.653 220.249-220.281-0.288-121.564-98.685-219.961-220.249-220.249zM767.976 479.983h-63.998v-127.996h-127.996v-63.998h127.996v-127.996h63.998v127.996h127.996v63.998h-127.996z" />
<glyph unicode="&#xe901;" glyph-name="autobuz" d="M935.688 360.739h-536.181v412.123h536.181v-412.123zM420.534 381.766h496.23v370.070h-496.23v-370.070zM466.793 108.419c-37.848 0-69.388 31.54-69.388 69.388s31.54 69.388 69.388 69.388 69.388-31.54 69.388-69.388-31.54-69.388-69.388-69.388zM466.793 226.168c-25.232 0-48.361-21.027-48.361-48.361s21.027-48.361 48.361-48.361 48.361 21.027 48.361 48.361-21.027 48.361-48.361 48.361zM868.402 108.419c-37.848 0-69.388 31.54-69.388 69.388s31.54 69.388 69.388 69.388 69.388-31.54 69.388-69.388-31.54-69.388-69.388-69.388zM868.402 226.168c-25.232 0-48.361-21.027-48.361-48.361s21.027-48.361 48.361-48.361 48.361 21.027 48.361 48.361-23.129 48.361-48.361 48.361zM878.916-13.536c-23.129 0-39.951 29.437-39.951 69.388 0 2.103 0 4.205 0 4.205h-336.427c0-2.103 0-2.103 0-4.205 0-39.951-16.821-69.388-39.951-69.388s-39.951 29.437-39.951 69.388c0 2.103 0 4.205 0 4.205h-73.593v767.474h639.211v-767.474h-69.388c0-2.103 0-2.103 0-4.205 0-39.951-16.821-69.388-39.951-69.388zM479.409 81.084h382.686v-10.513c0-4.205 0-8.411 0-14.719 0-29.437 10.513-48.361 18.924-48.361s18.924 18.924 18.924 48.361c0 4.205 0 8.411-2.103 14.719l-2.103 12.616h71.491v723.318h-597.158v-725.421h75.696l-2.103-12.616c0-4.205 0-8.411 0-14.719 0-29.437 10.513-48.361 18.924-48.361s18.924 18.924 18.924 48.361c0 4.205 0 8.411-2.103 14.719v12.616zM134.571 510.029c-54.669 0-98.825 44.156-98.825 98.825s44.156 98.825 98.825 98.825c54.669 0 98.825-44.156 98.825-98.825s-44.156-98.825-98.825-98.825zM134.571 686.653c-42.053 0-77.799-35.745-77.799-77.799s35.745-77.799 77.799-77.799c42.053 0 77.799 35.745 77.799 77.799s-35.745 77.799-77.799 77.799zM124.057 520.542h21.027v-496.23h-21.027v496.23zM809.528 535.261c-35.745 0-63.080 29.437-63.080 63.080 0 35.745 29.437 63.080 63.080 63.080s63.080-29.437 63.080-63.080c0-35.745-29.437-63.080-63.080-63.080zM809.528 640.394c-23.129 0-42.053-18.924-42.053-42.053s18.924-42.053 42.053-42.053 42.053 18.924 42.053 42.053c0 23.129-18.924 42.053-42.053 42.053zM809.528 362.842c-18.924 0-37.848 6.308-54.669 21.027s-25.232 33.643-27.335 56.772c-2.103 21.027 6.308 42.053 21.027 58.875s33.643 25.232 56.772 27.335c21.027 2.103 42.053-6.308 58.875-21.027 33.643-29.437 37.848-82.004 6.308-115.647-16.821-16.821-39.951-27.335-60.977-27.335zM809.528 512.131c-2.103 0-2.103 0-4.205 0-16.821-2.103-33.643-8.411-46.259-23.129-12.616-12.616-16.821-31.54-16.821-48.361 2.103-16.821 8.411-33.643 23.129-46.259 27.335-25.232 69.388-21.027 94.62 6.308s21.027 69.388-6.308 94.62v0c-12.616 12.616-29.437 16.821-44.156 16.821zM852.476 506.671l11.030-9.747-98.86-111.878-11.030 9.747 98.86 111.878zM757.519 500.869l111.818-98.919-9.753-11.024-111.818 98.919 9.753 11.024z" />
<glyph unicode="&#xe902;" glyph-name="balcon" d="M815.836 373.355h-14.719v431.047h-559.31v-431.047h-16.821v447.869h590.85zM515.154 812.813h16.821v-439.458h-16.821v439.458zM44.156 350.226h933.585v-14.719h-933.585v14.719zM75.696 341.815h16.821v-283.86h-16.821v283.86zM105.133 200.936c0-12.774-10.355-23.129-23.129-23.129s-23.129 10.355-23.129 23.129c0 12.774 10.355 23.129 23.129 23.129s23.129-10.355 23.129-23.129zM168.214 341.815h16.821v-283.86h-16.821v283.86zM199.754 200.936c0-12.774-10.355-23.129-23.129-23.129s-23.129 10.355-23.129 23.129c0 12.774 10.355 23.129 23.129 23.129s23.129-10.355 23.129-23.129zM262.834 341.815h16.821v-283.86h-16.821v283.86zM294.374 200.936c0-12.774-10.355-23.129-23.129-23.129s-23.129 10.355-23.129 23.129c0 12.774 10.355 23.129 23.129 23.129s23.129-10.355 23.129-23.129zM357.454 341.815h16.821v-283.86h-16.821v283.86zM388.994 200.936c0-12.774-10.355-23.129-23.129-23.129s-23.129 10.355-23.129 23.129c0 12.774 10.355 23.129 23.129 23.129s23.129-10.355 23.129-23.129zM452.074 341.815h16.821v-283.86h-16.821v283.86zM483.614 200.936c0-12.774-10.355-23.129-23.129-23.129s-23.129 10.355-23.129 23.129c0 12.774 10.355 23.129 23.129 23.129s23.129-10.355 23.129-23.129zM546.694 341.815h16.821v-283.86h-16.821v283.86zM578.234 200.936c0-12.774-10.355-23.129-23.129-23.129s-23.129 10.355-23.129 23.129c0 12.774 10.355 23.129 23.129 23.129s23.129-10.355 23.129-23.129zM641.314 341.815h16.821v-283.86h-16.821v283.86zM672.854 200.936c0-12.774-10.355-23.129-23.129-23.129s-23.129 10.355-23.129 23.129c0 12.774 10.355 23.129 23.129 23.129s23.129-10.355 23.129-23.129zM735.934 341.815h16.821v-283.86h-16.821v283.86zM767.474 200.936c0-12.774-10.355-23.129-23.129-23.129s-23.129 10.355-23.129 23.129c0 12.774 10.355 23.129 23.129 23.129s23.129-10.355 23.129-23.129zM830.554 341.815h16.821v-283.86h-16.821v283.86zM859.992 200.936c0-12.774-10.355-23.129-23.129-23.129s-23.129 10.355-23.129 23.129c0 12.774 10.355 23.129 23.129 23.129s23.129-10.355 23.129-23.129zM925.175 341.815h16.821v-283.86h-16.821v283.86zM954.612 200.936c0-12.774-10.355-23.129-23.129-23.129s-23.129 10.355-23.129 23.129c0 12.774 10.355 23.129 23.129 23.129s23.129-10.355 23.129-23.129zM44.156 57.955h933.585v-39.951h-933.585v39.951z" />
<glyph unicode="&#xe903;" glyph-name="banca" d="M897.84 562.595h-786.398l393.199 340.632 393.199-340.632zM168.214 583.622h672.854l-336.427 290.168-336.427-290.168zM895.737-30.357h-149.29v534.078h149.29v-534.078zM765.372-9.331h107.236v492.025h-107.236v-492.025zM277.552-30.357h-149.29v534.078h149.29v-534.078zM149.29-9.331h107.236v492.025h-107.236v-492.025zM410.021 150.472h10.513c2.103-25.232 10.513-44.156 23.129-56.772s33.643-21.027 60.977-23.129v157.7c-39.951 25.232-67.285 46.259-79.901 67.285-10.513 12.616-14.719 29.437-14.719 50.464 0 23.129 8.411 42.053 25.232 58.875s39.951 27.335 71.491 29.437v21.027h16.821v-25.232c14.719 0 27.335-2.103 37.848-4.205 4.205-2.103 23.129-8.411 52.567-18.924v-79.901h-10.513c-2.103 29.437-10.513 50.464-23.129 63.080s-31.54 21.027-56.772 23.129v-136.674c46.259-31.54 73.593-54.669 86.209-69.388s18.924-33.643 18.924-56.772c0-25.232-8.411-46.259-27.335-65.183s-44.156-29.437-77.799-33.643v-33.643h-18.924v33.643c-16.821 0-33.643 2.103-46.259 6.308-14.719 2.103-31.54 8.411-48.361 14.719v77.799zM504.641 287.146v126.16c-18.924-2.103-31.54-8.411-39.951-16.821s-12.616-21.027-12.616-35.745c0-12.616 4.205-25.232 12.616-35.745 6.308-12.616 21.027-25.232 39.951-37.848zM521.462 70.571c12.616 2.103 23.129 6.308 31.54 10.513 10.513 6.308 18.924 14.719 23.129 25.232 6.308 10.513 8.411 21.027 8.411 31.54 0 12.616-4.205 23.129-10.513 33.643s-25.232 25.232-52.567 44.156v-145.084z" />
<glyph unicode="&#xe904;" glyph-name="calendar" d="M357.454 756.041h359.556v-21.027h-359.556v21.027zM939.893 39.031h-824.246v717.010h166.111v-21.027h-145.084v-674.957h782.193v674.957h-128.263v21.027h149.29zM363.762 449.051h-132.468v132.468h132.468v-132.468zM252.32 470.078h90.415v90.415h-90.415v-90.415zM595.055 449.051h-132.468v132.468h132.468v-132.468zM483.614 470.078h90.415v90.415h-90.415v-90.415zM826.349 449.051h-132.468v132.468h132.468v-132.468zM714.908 470.078h90.415v90.415h-90.415v-90.415zM363.762 293.454h-132.468v132.468h132.468v-132.468zM252.32 314.48h90.415v90.415h-90.415v-90.415zM595.055 293.454h-132.468v132.468h132.468v-132.468zM483.614 314.48h90.415v90.415h-90.415v-90.415zM826.349 293.454h-132.468v132.468h132.468v-132.468zM714.908 314.48h90.415v90.415h-90.415v-90.415zM361.659 139.959h-132.468v132.468h132.468v-132.468zM250.218 160.986h90.415v90.415h-90.415v-90.415zM592.953 139.959h-132.468v132.468h132.468v-132.468zM481.511 160.986h90.415v90.415h-90.415v-90.415zM319.606 701.372c-27.335 0-48.361 21.027-48.361 48.361v58.875c0 27.335 21.027 48.361 48.361 48.361s48.361-21.027 48.361-48.361v-58.875c0-25.232-21.027-48.361-48.361-48.361zM319.606 838.045c-14.719 0-27.335-12.616-27.335-27.335v-58.875c0-14.719 12.616-27.335 27.335-27.335s27.335 12.616 27.335 27.335v56.772c0 16.821-12.616 29.437-27.335 29.437zM752.756 701.372c-27.335 0-48.361 21.027-48.361 48.361v58.875c0 27.335 21.027 48.361 48.361 48.361s48.361-21.027 48.361-48.361v-58.875c2.103-25.232-21.027-48.361-48.361-48.361zM752.756 838.045c-14.719 0-27.335-12.616-27.335-27.335v-58.875c0-14.719 12.616-27.335 27.335-27.335s27.335 12.616 27.335 27.335v56.772c2.103 16.821-10.513 29.437-27.335 29.437zM126.16 671.934h803.22v-21.027h-803.22v21.027z" />
<glyph unicode="&#xe905;" glyph-name="camere" d="M563.515 926.357l-222.883-193.446v-756.961h155.598v25.232h-130.366v704.394h399.507v-704.394h-130.366v-25.232h155.598v756.961l-227.088 193.446zM380.583 730.809l182.932 159.803 182.932-159.803h-365.864zM475.203 285.043v-309.092h21.027v288.066h136.674v-288.066h21.027v309.092h-178.727z" />
<glyph unicode="&#xe906;" glyph-name="carte" d="M494.127 24.312h-18.924v4.205c-100.928 157.7-403.713 75.696-405.815 73.593l-12.616-4.205v475.203l6.308 2.103c12.616 4.205 321.708 88.312 428.945-84.107l-8.411-6.308h10.513v-460.485zM241.807 146.267c82.004 0 174.522-16.821 231.294-84.107v420.534c-92.517 145.084-353.248 88.312-399.507 75.696v-431.047c27.335 6.308 94.62 18.924 168.214 18.924zM494.127 24.312h-18.924v460.485h10.513l-8.411 4.205c107.236 174.522 416.329 88.312 431.047 84.107l6.308-2.103v-470.998l-12.616 4.205c-2.103 0-304.887 84.107-405.815-73.593v-6.308zM494.127 482.694v-418.431c107.236 126.16 342.735 77.799 399.507 63.080v431.047c-46.259 10.513-306.99 67.285-399.507-75.696zM933.585 644.6h-21.027v10.513l-407.918 206.062-449.971-206.062v-10.513h-18.924v23.129l468.895 214.472 428.945-214.472z" />
<glyph unicode="&#xe907;" glyph-name="etaj" d="M212.37 676.14h23.129v-706.497h-23.129v706.497zM546.694 474.283h-138.776v155.598h138.776v-155.598zM431.047 499.515h88.312v105.133h-88.312v-105.133zM546.694 270.324h-138.776v155.598h138.776v-155.598zM431.047 295.556h88.312v105.133h-88.312v-105.133zM546.694 68.468h-138.776v155.598h138.776v-155.598zM431.047 93.7h88.312v105.133h-88.312v-105.133zM723.318 474.283h-138.776v155.598h138.776v-155.598zM607.671 499.515h88.312v105.133h-88.312v-105.133zM723.318 270.324h-138.776v155.598h138.776v-155.598zM607.671 295.556h88.312v105.133h-88.312v-105.133zM723.318 68.468h-138.776v155.598h138.776v-155.598zM607.671 93.7h88.312v105.133h-88.312v-105.133zM231.294 751.836l71.491-69.388h-21.027l-58.875 58.875-58.875-58.875h-21.027l71.491 69.388h16.821zM569.823 926.357l-222.883-193.446v-759.064h449.971v756.961l-227.088 195.548zM569.823 890.612l182.932-159.803h-365.864l182.932 159.803zM769.577 1.183h-397.405v704.394h397.405v-704.394z" />
<glyph unicode="&#xe908;" d="M902.045-11.433h-780.090v340.632h780.090v-340.632zM140.879 9.593h742.242v300.682h-742.242v-300.682z" />
<glyph unicode="&#xe909;" d="M521.462 310.275h-399.507v178.727h399.507v-178.727zM140.879 329.199h361.659v140.879h-361.659v-140.879z" />
<glyph unicode="&#xe90a;" d="M407.918 66.366h-191.343v164.008h191.343v-164.008zM233.396 85.29h153.495v126.16h-153.495v-126.16z" />
<glyph unicode="&#xe90b;" d="M618.185 66.366h-191.343v164.008h191.343v-164.008zM443.663 85.29h153.495v126.16h-153.495v-126.16z" />
<glyph unicode="&#xe90c;" d="M828.452 66.366h-191.343v164.008h191.343v-164.008zM653.93 85.29h153.495v126.16h-153.495v-126.16z" />
<glyph unicode="&#xe90d;" d="M281.758 310.275h-117.749v134.571h117.749v-134.571zM182.932 329.199h77.799v96.723h-77.799v-96.723z" />
<glyph unicode="&#xe90e;" d="M449.971 310.275h-117.749v134.571h117.749v-134.571zM351.146 329.199h77.799v96.723h-77.799v-96.723z" />
<glyph unicode="&#xe90f;" d="M698.086 882.201h33.643v-563.515h-33.643v563.515z" />
<glyph unicode="&#xe910;" d="M172.419 751.836h719.113v-37.848h-719.113v37.848z" />
<glyph unicode="&#xe911;" d="M769.577 686.653h84.107v-92.517h-84.107v92.517z" />
<glyph unicode="&#xe912;" d="M344.838 581.52l-75.696 58.875v92.517h21.027v-82.004l67.285-54.669z" />
<glyph unicode="&#xe913;" d="M218.678 581.52l-14.719 14.719 67.285 54.669v82.004h21.027v-92.517z" />
<glyph unicode="&#xe914;" d="M401.61 535.261h-252.32v65.183h252.32v-65.183zM170.316 556.287h210.267v23.129h-210.267v-23.129z" />
<glyph unicode="&#xe915;" glyph-name="inimacasa-01" d="M498.333 53.749l-254.423 340.632c-21.027 27.335-31.54 60.977-31.54 94.62 0 50.464 23.129 96.723 63.080 128.263 33.643 25.232 75.696 37.848 117.749 31.54s77.799-27.335 103.031-60.977l6.308-8.411 6.308 8.411c52.567 69.388 153.495 84.107 220.78 31.54 39.951-29.437 60.977-75.696 60.977-124.057 0-35.745-10.513-69.388-33.643-96.723l-258.628-344.838zM372.172 619.368c-27.335 0-54.669-8.411-77.799-27.335-33.643-25.232-52.567-63.080-52.567-103.031 0-27.335 8.411-54.669 25.232-75.696l231.294-306.99 235.499 311.195c16.821 23.129 27.335 50.464 27.335 79.901 0 39.951-18.924 77.799-50.464 100.928-56.772 42.053-136.674 31.54-178.727-25.232l-29.437-39.951-29.437 39.951c-21.027 27.335-50.464 44.156-84.107 48.361-6.308-4.205-12.616-2.103-16.821-2.103zM958.817-15.639h-31.54v664.444l-405.815 203.959-447.869-203.959v-664.444h-29.437v683.368l477.306 218.678 437.355-218.678z" />
<glyph unicode="&#xe916;" glyph-name="joacacopii" d="M439.458 533.158c-2.103 8.411-4.205 16.821-6.308 25.232l-21.027-94.62-231.294 50.464 25.232 111.441 222.883-48.361c-2.103 6.308-4.205 14.719-6.308 21.027l-212.37 48.361 25.232 111.441 147.187-31.54c-2.103 8.411-6.308 14.719-8.411 21.027l-134.571 29.437 27.335 128.263 23.129-4.205c-10.513 14.719-16.821 21.027-16.821 21.027h12.616l-33.643 6.308-203.959-933.585 267.039-58.875 126.16 582.439c0 6.308-2.103 10.513-2.103 14.719zM300.682-40.871l-231.294 50.464 25.232 115.647 231.294-50.464-25.232-115.647zM330.119 93.7l-231.294 50.464 21.027 92.517 231.294-50.464-21.027-92.517zM355.351 205.142l-231.294 50.464 25.232 111.441 231.294-50.464-25.232-111.441zM382.686 335.507l-231.294 50.464 25.232 111.441 231.294-50.464-25.232-111.441zM990.357-11.433h-283.86c-100.928 44.156-201.856 246.012-269.142 536.181-67.285 292.271-161.906 382.686-164.008 384.789l-18.924 16.821h262.834l2.103-2.103c4.205-4.205 100.928-96.723 170.316-393.199 65.183-281.758 164.008-481.511 258.628-523.565l42.053-18.924zM712.805 9.593h197.651c-90.415 67.285-178.727 256.526-239.704 517.257-60.977 262.834-145.084 363.762-159.803 380.583h-208.164c29.437-37.848 100.928-145.084 155.598-376.378 63.080-279.655 161.906-479.409 254.423-521.462z" />
<glyph unicode="&#xe917;" glyph-name="lift" d="M679.162 72.674h-426.842v656.033h424.739v-656.033zM273.347 93.7h382.686v613.979h-382.686v-613.979zM39.951 861.175h21.027v-824.246h-21.027v824.246zM944.099 861.175h21.027v-824.246h-21.027v824.246zM859.992 501.618h-155.598l77.799 134.571 77.799-134.571zM742.242 522.645h82.004l-42.053 71.491-39.951-71.491zM782.193 276.632l-77.799 134.571h155.598l-77.799-134.571zM742.242 390.177l42.053-71.491 42.053 71.491h-84.107z" />
<glyph unicode="&#xe918;" glyph-name="locatie" d="M540.386-55.589l-8.411 18.924c-10.513 21.027-256.526 523.565-256.526 664.444 0 147.187 119.852 264.936 264.936 264.936 147.187 0 264.936-119.852 264.936-264.936 0-140.879-246.012-643.417-256.526-664.444l-8.411-18.924zM540.386 873.791c-134.571 0-243.91-109.339-243.91-243.91 0-121.955 197.651-540.386 243.91-635.006 46.259 94.62 243.91 513.051 243.91 635.006 0 132.468-109.339 243.91-243.91 243.91zM670.752 627.778c0-71.999-58.367-130.366-130.366-130.366s-130.366 58.367-130.366 130.366c0 71.999 58.367 130.366 130.366 130.366s130.366-58.367 130.366-130.366z" />
<glyph unicode="&#xe919;" glyph-name="masina" d="M603.466 457.462h-285.963l111.441 88.312h174.522v-88.312zM378.48 478.489h203.959v46.259h-147.187l-56.772-46.259zM889.429 453.257l-241.807 6.308v88.312h147.187l94.62-94.62zM668.649 478.489l168.214-4.205-50.464 50.464h-117.749v-46.259zM836.862 240.887c-44.156 0-82.004 35.745-82.004 82.004 0 4.205 0 8.411 2.103 12.616h-456.279c0-4.205 2.103-8.411 2.103-12.616 0-44.156-35.745-82.004-82.004-82.004-44.156 0-82.004 35.745-82.004 82.004 0 4.205 0 8.411 2.103 12.616h-82.004v130.366l203.959 31.54 189.24 103.031h372.172l140.879-140.879v-124.057h-46.259c0-4.205 2.103-8.411 2.103-12.616-2.103-44.156-39.951-82.004-84.107-82.004zM273.347 356.534h513.051l-4.205-14.719c-2.103-6.308-4.205-12.616-4.205-18.924 0-33.643 27.335-60.977 60.977-60.977s60.977 27.335 60.977 60.977c0 6.308-2.103 12.616-4.205 18.924l-4.205 14.719h54.669v94.62l-130.366 130.366h-357.454l-189.24-103.031-187.138-29.437v-90.415h86.209l-4.205-14.719c-2.103-6.308-4.205-12.616-4.205-18.924 0-33.643 27.335-60.977 60.977-60.977s60.977 27.335 60.977 60.977c0 6.308-2.103 12.616-4.205 18.924l-4.205 12.616z" />
<glyph unicode="&#xe91a;" glyph-name="meniu" d="M117.749 594.136h788.501v-71.491h-788.501v71.491zM117.749 434.333h788.501v-71.491h-788.501v71.491zM117.749 272.427h788.501v-71.491h-788.501v71.491z" />
<glyph unicode="&#xe91b;" glyph-name="mp" d="M748.55-3.023h-677.060v679.162h677.060v-679.162zM92.517 18.004h635.006v637.109h-635.006v-637.109zM193.446 812.813h420.534v-12.616h-420.534v12.616zM618.185 718.193l-10.513 8.411 75.696 75.696v6.308l-75.696 75.696 10.513 8.411 77.799-77.799v-18.924zM617.723 893.023l77.313-77.313-8.921-8.921-77.313 77.313 8.921 8.921zM885.224 554.185h12.616v-420.534h-12.616v420.534zM899.943 49.544h-16.821l-79.901 79.901 10.513 8.411 73.593-75.696h6.308l75.696 75.696 8.411-8.411zM968.974 136.927l8.921-8.921-77.313-77.313-8.921 8.921 77.313 77.313zM813.733 549.979l-10.513 8.411 79.901 79.901h16.821l77.799-79.901-8.411-8.411-75.696 73.593h-6.308zM901.323 634.898l77.313-77.324-8.922-8.921-77.313 77.324 8.922 8.921z" />
<glyph unicode="&#xe91c;" glyph-name="om" d="M494.127 489.002c-105.133 0-189.24 86.209-189.24 189.24 0 105.133 86.209 189.24 189.24 189.24s189.24-86.209 189.24-189.24c0-103.031-84.107-189.24-189.24-189.24zM494.127 846.456c-92.517 0-166.111-75.696-166.111-166.111 0-92.517 75.696-166.111 166.111-166.111s166.111 75.696 166.111 166.111c0 90.415-73.593 166.111-166.111 166.111zM902.045 72.674h-23.129c0 218.678-178.727 397.405-397.405 397.405s-397.405-178.727-397.405-397.405h-23.129c0 231.294 189.24 420.534 420.534 420.534s420.534-187.138 420.534-420.534zM527.77 396.485h-65.183c-18.924 0-33.643 14.719-33.643 33.643s14.719 33.643 33.643 33.643h65.183c18.924 0 33.643-14.719 33.643-33.643 0-16.821-14.719-33.643-33.643-33.643zM460.485 442.743c-6.308 0-10.513-4.205-10.513-10.513s4.205-10.513 10.513-10.513h65.183c6.308 0 10.513 4.205 10.513 10.513s-4.205 10.513-10.513 10.513h-65.183zM494.127 9.593c-10.513 0-33.643 0-77.799 328.016 0 31.54 48.361 79.901 77.799 79.901s77.799-48.361 77.799-77.799c-44.156-330.119-67.285-330.119-77.799-330.119zM494.127 394.382c-16.821 0-54.669-37.848-54.669-54.669 16.821-121.955 39.951-256.526 54.669-296.476 14.719 39.951 37.848 174.522 54.669 298.579 0 14.719-37.848 52.567-54.669 52.567z" />
<glyph unicode="&#xe91d;" glyph-name="piscina" d="M346.94 249.298h-21.027v529.873c0 54.669 44.156 100.928 100.928 100.928 54.669 0 100.928-44.156 100.928-100.928v-86.209h-21.027v86.209c0 44.156-35.745 79.901-79.901 79.901s-79.901-35.745-79.901-79.901v-529.873zM653.93 249.298h-21.027v529.873c0 54.669 44.156 100.928 100.928 100.928 54.669 0 100.928-44.156 100.928-100.928v-86.209h-21.027v86.209c0 44.156-35.745 79.901-79.901 79.901s-79.901-35.745-79.901-79.901v-529.873zM336.427 604.649h306.99v-21.027h-306.99v21.027zM336.427 482.694h306.99v-21.027h-306.99v21.027zM336.427 369.15h306.99v-21.027h-306.99v21.027zM185.035 125.24c-4.205 0-8.411 0-12.616 0-63.080 4.205-113.544 29.437-142.982 73.593l16.821 10.513c25.232-39.951 71.491-63.080 126.16-65.183 56.772-2.103 119.852 14.719 174.522 52.567l10.513-16.821c-52.567-35.745-113.544-54.669-172.419-54.669zM492.025 125.24c-4.205 0-8.411 0-12.616 0-63.080 4.205-113.544 29.437-142.982 73.593l16.821 10.513c25.232-39.951 71.491-63.080 126.16-65.183 56.772-2.103 119.852 14.719 174.522 52.567l10.513-16.821c-52.567-35.745-113.544-54.669-172.419-54.669zM799.014 125.24c-65.183 0-124.057 25.232-157.7 73.593l16.821 10.513c54.669-82.004 189.24-88.312 302.784-12.616l10.513-16.821c-54.669-35.745-117.749-54.669-172.419-54.669zM185.035 18.004c-4.205 0-8.411 0-12.616 0-63.080 4.205-113.544 29.437-142.982 73.593l16.821 10.513c25.232-39.951 71.491-63.080 126.16-65.183 56.772-2.103 119.852 14.719 174.522 52.567l10.513-16.821c-52.567-35.745-113.544-54.669-172.419-54.669zM492.025 18.004c-4.205 0-8.411 0-12.616 0-63.080 4.205-113.544 29.437-142.982 73.593l16.821 10.513c25.232-39.951 71.491-63.080 126.16-65.183 56.772-2.103 119.852 14.719 174.522 52.567l10.513-16.821c-52.567-35.745-113.544-54.669-172.419-54.669zM799.014 18.004c-65.183 0-124.057 25.232-157.7 73.593l16.821 10.513c54.669-82.004 189.24-88.312 302.784-12.616l10.513-16.821c-54.669-37.848-117.749-54.669-172.419-54.669z" />
<glyph unicode="&#xe91e;" glyph-name="pom" d="M439.458-38.768c-18.924 0-35.745 16.821-35.745 35.745v405.815c-4.205 0-10.513-2.103-14.719-2.103-58.875 0-105.133 54.669-105.133 124.057 0 10.513 2.103 18.924 4.205 29.437-39.951 23.129-67.285 65.183-67.285 111.441 0 69.388 56.772 126.16 128.263 126.16 18.924 0 35.745-4.205 52.567-10.513 21.027 63.080 75.696 105.133 138.776 105.133 82.004 0 147.187-71.491 147.187-157.7 0-25.232-6.308-52.567-18.924-75.696 25.232-27.335 39.951-60.977 39.951-96.723 0-88.312-84.107-157.7-187.138-157.7-16.821 0-31.54 2.103-48.361 6.308v-405.815c2.103-21.027-14.719-37.848-33.643-37.848zM424.739 432.23v-433.15c0-8.411 6.308-14.719 14.719-14.719s14.719 6.308 14.719 14.719v433.15l12.616-4.205c18.924-6.308 37.848-8.411 56.772-8.411 90.415 0 166.111 60.977 166.111 136.674 0 31.54-12.616 63.080-37.848 88.312l-6.308 6.308 4.205 6.308c12.616 21.027 18.924 46.259 18.924 71.491 0 75.696-56.772 136.674-126.16 136.674-56.772 0-107.236-42.053-121.955-100.928l-6.308-14.719-12.616 6.308c-16.821 10.513-35.745 14.719-54.669 14.719-58.875 0-107.236-48.361-107.236-105.133 0-39.951 25.232-77.799 63.080-96.723l8.411-4.205-2.103-8.411c-4.205-12.616-4.205-23.129-4.205-31.54 0-56.772 37.848-103.031 84.107-103.031 8.411 0 14.719 2.103 21.027 4.205l14.719 6.308z" />
<glyph unicode="&#xe91f;" glyph-name="pret" d="M187.138 518.439h21.027v-510.949h-21.027v510.949zM361.659 690.858h21.027v-681.265h-21.027v681.265zM521.462 543.671h21.027v-536.181h-21.027v536.181zM670.752 459.565h21.027v-449.971h-21.027v449.971zM828.452 543.671h21.027v-536.181h-21.027v536.181zM679.162 503.721l168.214 157.7-14.719 14.719-151.392-142.982-309.092 300.682-241.807-281.758 16.821-14.719 224.986 264.936z" />
<glyph unicode="&#xe920;" glyph-name="sageata-jos" d="M435.253 196.731l-258.628 502.538h73.593l212.37-422.637h2.103l212.37 422.637h73.593l-258.628-502.538h-56.772z" />
<glyph unicode="&#xe921;" glyph-name="sageata" d="M212.37 476.386l502.538 258.628v-73.593l-422.637-212.37v-2.103l422.637-212.37v-73.593l-502.538 258.628v56.772z" />
<glyph unicode="&#xe922;" glyph-name="spital" d="M994.563-21.947h-958.817v677.060h328.016v216.575h302.784v-216.575h328.016v-677.060zM54.669-3.023h918.867v639.211h-325.914v216.575h-264.936v-216.575h-328.016v-639.211zM441.561 800.197h21.027v-231.294h-21.027v231.294zM553.002 800.197h21.027v-231.294h-21.027v231.294zM447.869 690.858h115.647v-14.719h-115.647v14.719zM363.762 327.097h-201.856v164.008h203.959v-164.008zM182.932 348.123h161.906v121.955h-161.906v-121.955zM616.082 327.097h-203.959v164.008h203.959v-164.008zM435.253 348.123h161.906v121.955h-161.906v-121.955zM868.402 327.097h-203.959v164.008h203.959v-164.008zM687.573 348.123h161.906v121.955h-161.906v-121.955zM363.762 102.111h-201.856v164.008h203.959v-164.008zM182.932 123.138h161.906v121.955h-161.906v-121.955zM616.082 102.111h-203.959v164.008h203.959v-164.008zM435.253 123.138h161.906v121.955h-161.906v-121.955zM868.402 102.111h-203.959v164.008h203.959v-164.008zM687.573 123.138h161.906v121.955h-161.906v-121.955z" />
<glyph unicode="&#xe923;" glyph-name="suprafata" d="M998.768 169.396l8.411 6.308-222.883 273.347-86.209 105.133-382.686 2.103v-4.205l-147.187-214.472h-2.103v-4.205l-117.749-172.419 8.411-6.308v-2.103h4.205l4.205-2.103 2.103 2.103 931.483 8.411v8.411zM668.649 331.302l-124.057 2.103-14.719 98.825 92.517-2.103 46.259-98.825zM647.622 430.127l128.263-2.103 79.901-98.825-161.906 2.103-46.259 98.825zM527.77 453.257l-12.616 79.901h60.977l37.848-82.004-86.209 2.103zM506.743 455.359l-113.544 2.103 23.129 77.799h77.799l12.616-79.901zM508.846 434.333l14.719-100.928-168.214 2.103 31.54 100.928 121.955-2.103zM527.77 312.378l21.027-136.674-239.704-2.103 42.053 140.879 176.624-2.103zM548.797 312.378l130.366-2.103 60.977-132.468-172.419-2.103-18.924 136.674zM702.292 310.275l170.316-2.103 105.133-128.263-214.472-2.103-60.977 132.468zM756.961 449.051l-119.852 2.103-37.848 82.004h88.312l69.388-84.107zM328.016 535.261h65.183l-23.129-77.799-92.517 2.103 50.464 75.696zM262.834 438.538l100.928-2.103-31.54-100.928-138.776 2.103 69.388 100.928zM180.83 316.583l147.187-2.103-42.053-140.879-201.856-2.103 96.723 145.084zM1002.973 182.012l23.129-23.129h-39.951z" />
<glyph unicode="&#xe924;" glyph-name="wc" d="M382.686 7.491v8.411c0 2.103 4.205 298.579-231.294 401.61v0l-4.205 2.103c-6.308 2.103-14.719 6.308 2.103 460.485v8.411h233.396l-46.259-367.967c0-2.103-6.308-18.924 10.513-37.848 29.437-33.643 134.571-84.107 523.565-33.643h4.205l2.103-2.103c8.411-8.411 14.719-54.669 8.411-103.031-8.411-54.669-33.643-130.366-117.749-174.522-23.129-12.616-60.977-16.821-105.133-16.821 16.821-2.103 29.437-4.205 33.643-4.205h8.411l-37.848-134.571-283.86-6.308zM155.598 432.23c224.986-94.62 241.807-357.454 243.91-407.918l256.526 6.308 27.335 105.133c-77.799 8.411-187.138 21.027-195.548 21.027v16.821c25.232 0 54.669 0 86.209 0 71.491-2.103 151.392-4.205 182.932 12.616 50.464 27.335 86.209 71.491 103.031 128.263s8.411 107.236 4.205 121.955c-374.275-48.361-496.23-6.308-531.975 39.951-21.027 25.232-12.616 50.464-12.616 50.464l44.156 349.043h-199.754c-6.308-168.214-12.616-410.021-8.411-443.663zM147.463 533.869l180.739-5.683-0.529-16.813-180.739 5.683 0.529 16.813z" />
<glyph unicode="&#xe925;" glyph-name="zambet" d="M44.156 404.895c0 29.437 0 56.772 0 86.209 2.103 4.205 2.103 8.411 4.205 12.616 29.437 191.343 136.674 317.503 319.606 382.686 31.54 10.513 65.183 14.719 98.825 23.129 29.437 0 60.977 0 90.415 0 4.205-2.103 8.411-2.103 10.513-4.205 191.343-29.437 321.708-134.571 386.891-315.4 10.513-31.54 14.719-65.183 23.129-98.825 0-29.437 0-56.772 0-86.209-2.103-4.205-2.103-8.411-4.205-12.616-29.437-193.446-138.776-319.606-319.606-384.789-31.54-10.513-65.183-14.719-98.825-23.129-29.437 0-60.977 0-90.415 0-4.205 2.103-8.411 2.103-10.513 4.205-195.548 31.54-328.016 140.879-391.097 332.222-8.411 27.335-12.616 56.772-18.924 84.107zM513.051 869.585c-237.602 2.103-428.945-187.138-428.945-420.534s189.24-422.637 424.739-422.637c235.499-2.103 426.842 187.138 428.945 420.534s-187.138 422.637-424.739 422.637zM256.526 371.253c172.419 0 340.632 0 510.949 0 0-92.517-37.848-164.008-111.441-214.472-88.312-58.875-182.932-60.977-275.45-6.308-82.004 48.361-124.057 124.057-124.057 220.78zM292.271 339.713c12.616-109.339 111.441-193.446 220.78-191.343 111.441 2.103 210.267 88.312 216.575 191.343-145.084 0-290.168 0-437.355 0zM315.4 461.667c-39.951 0-73.593 29.437-73.593 69.388s31.54 73.593 73.593 73.593c39.951 0 71.491-31.54 71.491-71.491s-31.54-71.491-71.491-71.491zM710.702 461.667c-39.951 0-71.491 29.437-73.593 69.388 0 39.951 31.54 73.593 73.593 71.491 39.951 0 71.491-33.643 71.491-71.491s-31.54-69.388-71.491-69.388z" />
<glyph unicode="&#xe926;" glyph-name="zambet2" d="M44.156 404.895c0 29.437 0 56.772 0 86.209 2.103 4.205 2.103 8.411 4.205 12.616 29.437 191.343 136.674 317.503 319.606 382.686 31.54 10.513 65.183 14.719 98.825 23.129 29.437 0 60.977 0 90.415 0 4.205-2.103 8.411-2.103 10.513-4.205 191.343-29.437 321.708-134.571 386.891-315.4 10.513-31.54 14.719-65.183 23.129-98.825 0-29.437 0-56.772 0-86.209-2.103-4.205-2.103-8.411-4.205-12.616-29.437-193.446-138.776-319.606-319.606-384.789-31.54-10.513-65.183-14.719-98.825-23.129-29.437 0-60.977 0-90.415 0-4.205 2.103-8.411 2.103-10.513 4.205-195.548 31.54-328.016 140.879-391.097 332.222-8.411 27.335-12.616 56.772-18.924 84.107zM513.051 869.585c-237.602 2.103-428.945-187.138-428.945-420.534s189.24-422.637 424.739-422.637c235.499-2.103 426.842 187.138 428.945 420.534s-187.138 422.637-424.739 422.637zM729.626 339.713c-6.308-103.031-103.031-189.24-216.575-191.343-111.441-2.103-210.267 82.004-220.78 191.343h-33.643c8.411-82.004 48.361-145.084 121.955-187.138 92.517-52.567 185.035-50.464 275.45 6.308 67.285 42.053 103.031 105.133 111.441 180.83h-37.848zM315.4 461.667c-39.951 0-73.593 29.437-73.593 69.388s31.54 73.593 73.593 73.593c39.951 0 71.491-31.54 71.491-71.491s-31.54-71.491-71.491-71.491zM710.702 461.667c-39.951 0-71.491 29.437-73.593 69.388 0 39.951 31.54 73.593 73.593 71.491 39.951 0 71.491-33.643 71.491-71.491s-31.54-69.388-71.491-69.388z" />
<glyph unicode="&#xe927;" glyph-name="zambet3" d="M44.156 404.895c0 29.437 0 56.772 0 86.209 2.103 4.205 2.103 8.411 4.205 12.616 29.437 191.343 136.674 317.503 319.606 382.686 31.54 10.513 65.183 14.719 98.825 23.129 29.437 0 60.977 0 90.415 0 4.205-2.103 8.411-2.103 10.513-4.205 191.343-29.437 321.708-134.571 386.891-315.4 10.513-31.54 14.719-65.183 23.129-98.825 0-29.437 0-56.772 0-86.209-2.103-4.205-2.103-8.411-4.205-12.616-29.437-193.446-138.776-319.606-319.606-384.789-31.54-10.513-65.183-14.719-98.825-23.129-29.437 0-60.977 0-90.415 0-4.205 2.103-8.411 2.103-10.513 4.205-195.548 31.54-328.016 140.879-391.097 332.222-8.411 27.335-12.616 56.772-18.924 84.107zM513.051 869.585c-237.602 2.103-428.945-187.138-428.945-420.534s189.24-422.637 424.739-422.637c235.499-2.103 426.842 187.138 428.945 420.534s-187.138 422.637-424.739 422.637zM315.4 461.667c-39.951 0-73.593 29.437-73.593 69.388s31.54 73.593 73.593 73.593c39.951 0 71.491-31.54 71.491-71.491s-31.54-71.491-71.491-71.491zM710.702 461.667c-39.951 0-71.491 29.437-73.593 69.388 0 39.951 31.54 73.593 73.593 71.491 39.951 0 71.491-33.643 71.491-71.491s-31.54-69.388-71.491-69.388zM313.298 272.427h395.302v-42.053h-395.302v42.053z" />
<glyph unicode="&#xe928;" glyph-name="zambet4" d="M44.156 404.895c0 29.437 0 56.772 0 86.209 2.103 4.205 2.103 8.411 4.205 12.616 29.437 191.343 136.674 317.503 319.606 382.686 31.54 10.513 65.183 14.719 98.825 23.129 29.437 0 60.977 0 90.415 0 4.205-2.103 8.411-2.103 10.513-4.205 191.343-29.437 321.708-134.571 386.891-315.4 10.513-31.54 14.719-65.183 23.129-98.825 0-29.437 0-56.772 0-86.209-2.103-4.205-2.103-8.411-4.205-12.616-29.437-193.446-138.776-319.606-319.606-384.789-31.54-10.513-65.183-14.719-98.825-23.129-29.437 0-60.977 0-90.415 0-4.205 2.103-8.411 2.103-10.513 4.205-195.548 31.54-328.016 140.879-391.097 332.222-8.411 27.335-12.616 56.772-18.924 84.107zM513.051 869.585c-237.602 2.103-428.945-187.138-428.945-420.534s189.24-422.637 424.739-422.637c235.499-2.103 426.842 187.138 428.945 420.534s-187.138 422.637-424.739 422.637zM294.374 154.678c6.308 103.031 103.031 189.24 216.575 191.343 111.441 2.103 210.267-82.004 220.78-191.343h33.643c-8.411 82.004-48.361 145.084-121.955 187.138-92.517 52.567-185.035 50.464-275.45-6.308-67.285-42.053-103.031-105.133-111.441-180.83h37.848zM315.4 461.667c-39.951 0-73.593 29.437-73.593 69.388s31.54 73.593 73.593 73.593c39.951 0 71.491-31.54 71.491-71.491s-31.54-71.491-71.491-71.491zM710.702 461.667c-39.951 0-71.491 29.437-73.593 69.388 0 39.951 31.54 73.593 73.593 71.491 39.951 0 71.491-33.643 71.491-71.491s-31.54-69.388-71.491-69.388z" />
<glyph unicode="&#xe929;" glyph-name="zambet5" d="M44.156 404.895c0 29.437 0 56.772 0 86.209 2.103 4.205 2.103 8.411 4.205 12.616 29.437 191.343 136.674 317.503 319.606 382.686 31.54 10.513 65.183 14.719 98.825 23.129 29.437 0 60.977 0 90.415 0 4.205-2.103 8.411-2.103 10.513-4.205 191.343-29.437 321.708-134.571 386.891-315.4 10.513-31.54 14.719-65.183 23.129-98.825 0-29.437 0-56.772 0-86.209-2.103-4.205-2.103-8.411-4.205-12.616-29.437-193.446-138.776-319.606-319.606-384.789-31.54-10.513-65.183-14.719-98.825-23.129-29.437 0-60.977 0-90.415 0-4.205 2.103-8.411 2.103-10.513 4.205-195.548 31.54-328.016 140.879-391.097 332.222-8.411 27.335-12.616 56.772-18.924 84.107zM513.051 869.585c-237.602 2.103-428.945-187.138-428.945-420.534s189.24-422.637 424.739-422.637c235.499-2.103 426.842 187.138 428.945 420.534s-187.138 422.637-424.739 422.637zM294.374 154.678c6.308 103.031 103.031 189.24 216.575 191.343 111.441 2.103 210.267-82.004 220.78-191.343h33.643c-8.411 82.004-48.361 145.084-121.955 187.138-92.517 52.567-185.035 50.464-275.45-6.308-67.285-42.053-103.031-105.133-111.441-180.83h37.848zM336.427 461.667c-39.951 0-73.593 29.437-73.593 69.388s31.54 73.593 73.593 73.593c39.951 0 71.491-31.54 71.491-71.491s-31.54-71.491-71.491-71.491zM710.702 461.667c-39.951 0-71.491 29.437-73.593 69.388 0 39.951 31.54 73.593 73.593 71.491 39.951 0 71.491-33.643 71.491-71.491s-31.54-69.388-71.491-69.388zM733.901 696.8l13.306-39.892-157.573-52.557-13.306 39.892 157.573 52.557zM295.235 698.877l157.589-52.524-13.297-39.896-157.589 52.524 13.297 39.896z" />
</font>
</defs>
</svg>
